<?xml version="1.0" encoding="utf-8"?>

<!-- License Agreement at http://iconmonstr.com/license/ -->

<!DOCTYPE svg PUBLIC "-//W3C//DTD SVG 1.1//EN" "http://www.w3.org/Graphics/SVG/1.1/DTD/svg11.dtd">
<svg version="1.1" xmlns="http://www.w3.org/2000/svg" xmlns:xlink="http://www.w3.org/1999/xlink" id="pen" viewBox="0 0 512 512" enable-background="new 0 0 512 512" xml:space="preserve">
<path id="pen-icon" d="M72.819,429.273l14.593,14.593l-15.117,15.11c-4.027,4.031-10.559,4.031-14.588,0.003
	c-4.031-4.03-4.031-10.562,0-14.591L72.819,429.273z M354.941,57.21c-9.784-9.785-25.392-9.526-35.178,0.262l-99.539,99.536
	c-9.785,9.788-10.044,25.392-0.258,35.177L354.941,57.21z M199.832,249.627l-58.925,58.925
	c-30.745,30.745-46.211,60.295-60.268,101.438l26.058,26.058c41.143-14.06,70.689-29.523,101.434-60.264l58.93-58.929
	L199.832,249.627z M441.451,75.232c-21.154-21.154-55.454-21.154-76.608,0L216.368,223.708l76.608,76.609L441.45,151.841
	C462.605,130.685,462.605,96.387,441.451,75.232z"/>
</svg>
