<svg id="Layer_2" xmlns="http://www.w3.org/2000/svg" viewBox="0 0 208.3 253.7"><style>.st0{fill:#191724}</style><title>circle</title><path class="st0" d="M79 8.2c.8 1 0 .1 0 0zM131.6 247.9c-1.2-.3-2.4.1-3.1 1-.1-.1-1.2.3-.9.3h.2c-4 1.1-7.6 2.2-11.6 3.2.1 0 .2-.1.3-.1-.1 0-.2.1-.3.1 5.2-1 10.4-2.5 15.4-4.5 0 .1 0 .1 0 0 0 .1 0 .1 0 0zM154.4 234.1c-.7 1.2-1.6 2.3-2.7 3.2 2.1-1.5 4.2-3.1 6.3-4.6-1.2.6-2.4 1.1-3.6 1.4zM81.9 193.5c-.2.3.8 1.2 2.6 2.3-1.6-1.2-2.7-2.1-2.6-2.3zM0 75.9s6.7-6.4 12.7-12C5.4 70-.6 75.4 0 75.9zM66.4 53.9c.4.3 6.3-5.2 11.4-9.5-5.2 4.1-11.8 9.2-11.4 9.5zM106.7 232c-.9.9-4 .8-7 .4 3.7.5 6.6.6 7-.4zM55.6 217.7c-1.8-.3-3.5-.7-5.2-1.2 1.7.5 3.5 1 5.2 1.2zM107.6 231.9c.2.2.5.2.8.2-.3 0-.5-.1-.8-.2zM109.3 232.1h-.9.9z"/><path class="st0" d="M166 39c-4.9-4.3-10.3-8.1-16-11.4-9.3-5.4-20-8.1-30.8-7.8-6.6.2-8 .6-14-2.6-2.2-1.1-9.3-3.2-11.4-5.1.9.9 1.9 1.7 2.9 2.3-2.8-1.7-5.5-3.4-8.3-5-.9-.5-5.3-2.3-5.8-3.1.6 1.4 6.6 4.3 7.8 5 4.3 2.7 8.7 5.3 13 8.2-1.4-.8-10.8-5.7-16.4-9l-3.9-2.9c0-.1-.1-.1-.1-.2v.1c-3.4-2.5-5.9-4.2-6.1-3.9-.5.7 11.1 9.1 11.9 9.6-1.9-1-10.3-8.4-11.4-7.5.1.7.6 1.3 1.2 1.6 0 0-.8-.5-.7-.4.1.3.3.5.5.8C73.3 4 69 .6 69.6 0c-.7.7 3.7 4.1 9.3 8.1.9.8 1.9 1.5 3 2.1 8 5.6 17.2 11.7 18.4 13-1.5-1-18.9-13.1-19.1-12.8.7.9 1.6 1.7 2.6 2.2-1.3-.6-1.6-.4-.9.7-1.7-1-8.9-4.3-9.5-6.2 1 3 8.3 6.1 10.9 8 4.6 3.2 8.9 6.8 13.5 10-1.4.7-31.5-18.7-30.9-20.8C65.5 9 91.6 22.7 94.8 24.7c-13.1-2.1-26.9-.6-39.4 3.5-5.6 1.8-10.9 4.2-15.9 7.2-2.9 1.7-6.5 5.3-9.9 7.7 2.7-1.8 5.3-3.9 8-5.4 4.8-2.7 9.8-4.9 15-6.7 9.6-3.4 19.8-4.8 29.9-4.2-.3 0-5 .2-3.7.5-12.3.6-26 3.4-36.9 9.2-6.6 3.3-12.8 7.2-18.7 11.6-3.2 2.5-7.5 8.5-11.1 10.1 3.7-1.4 9-7.8 12.1-10.1 6-4.5 12.6-8.4 19.5-11.5-6 3-11.8 6.5-17.3 10.5-1.7 1.2-10.8 10.3-12.7 10.7 1-.2 1.9-.7 2.7-1.4-5.1 4.3-10.4 9-10.1 9.2 0 0 1.8-1.3 4.1-3.2-1 1.1-1.6 2-1.4 2.5 1-.3 1.9-.8 2.6-1.6l-.8 1c.7-.3 1.4-.6 2-1.1 1.3-1 2.6-2.1 3.7-3.3-.1.2-.1.4 0 .5h.1c2.6-2.4 4.5-4.2 5.1-4.6l1.8-1.4s.1 0 .1-.1l.1-.1c1.6-1 3.3-2.1 5.1-3.2 0 0-.1 0-.1.1-1.8 1.1-3.5 2.2-5.1 3.2l-1.8 1.5c-.6.5-2.5 2.2-5 4.6l-.1.1-4 3.7c2.4-1.9 4.9-4 7.3-6-.2.3-.3.5-.3.8.5.2 1.1 0 1.4-.3C18.4 61 12.7 69 9.6 70.1c4-1.5 9.4-8.9 13-11.8 4.9-3.9 10.2-7.2 15.9-9.9C50.1 42.2 62.6 37.5 76 37c-.6.1-.8.3-.6.5-14.5.7-28.2 5.7-40.4 13.4-5.9 3.8-11.5 8.2-16.7 13C16.6 65.4 5.9 78.2 5.1 78c2.7.4 12.4-11.8 14.7-13.9 5.3-4.8 11-9.2 17-13.1C49.5 43 63.9 38.1 79 38c-2.1 1.3-26.7 3.1-26.6 5.8 0-2.5 22.5-4.3 24.8-4.3-.4.2-.8.6-1 1 1-.2.9-1 2.1-1-.4.2-.7.5-1 .8.3.1 1.4-.8 1.9-.8-.6.5-8.1 6.2-7.9 6.5.9.9 9.4-8 12.1-7.8-1.2.7-10.4 6.2-9.8 7.6.8-.1 1.6-.4 2.1-1-.2.2-.4.4-.6.7.7-.1 1.4-.5 1.9-.9 2.2-1.7 4.3-5.1 7-4.9l-.7.5c.4-.3.9-.4 1.3-.5 0 0-2 1.1-3.4 2.1.9-.7 1.6-1.2 2.1-1.6-2 1.3-3.9 2.7-5.6 4.2.8-.6 1.6-1.2 2.3-1.7-.2.2-.3.3-.3.4 1.2-.5 2.3-1.1 3.3-1.9-1.2 1.1-1.1 1.5.3 1.1-2 1.5-7 7.6-9.3 7.9 6-1 9.3-11 16.4-10-4 2.5-7.8 5.2-11.4 8.3-1 .8-8.2 8.1-8.3 8 2 .7 15.2-11.9 17.8-13.7 6.8-4.5 17.6.7 24.7 3.6 6.9 2.8 14.2 8 20.1 12.5 2.7 2 4.1 4.3 6.3 6.9 1.3 1.4 2.6 2.8 4 4.1.8.7 4.8 4.3 1.2.7 5.3 4.7 12 10 16.5 13.8l-.5-.6c2.9 2.5 5.3 5.3 7.6 8.1.5 1.3-.2.8-1.3-.4-1.3-1.3-3.3-3.6-4.7-5.3.1.9-.3.3-1-.4-.6-.7-1.4-1.5-1.7-1.2-.7.6-1.4 1.2-1.5 2.3-.1.5 0 1.2.2 2.1.2.9.6 2 1.2 3.3.5 1.4-1.4 1.1-2.1 1.7 5.2 6.5 9.9 13.7 13.6 21.2l.7 1.4c.2.5.4 1 .6 1.4l1.3 2.9c.5.9.8 1.9 1.2 2.9.4 1 .8 1.9 1.1 2.9.6 2 1.4 3.9 1.9 5.9.3 1 .6 2 .8 2.9.2 1 .5 2 .7 3l.3 1.2c.1.4.1.8.2 1.3.1.9.2 1.7.3 2.6.1.9.1 1.8.1 2.7 0 .9.1 1.8 0 2.7-.1.9-.1 1.8-.2 2.7l-.1 1.4-.2 1.4c-.1.9-.2 1.8-.4 2.8l-.5 2.7-.3 1.4-.3 1.4c-.2.9-.4 1.8-.7 2.7-.6 1.8-1 3.6-1.6 5.3-1.1 3.5-2.4 6.8-3.5 10-.4 1-1 2-1.6 3.1-.7 1.1-1.4 2.2-2.2 3.2-.7 1-1.4 2.1-1.9 3.1s-.8 1.9-.7 2.8c.8-1.1 1.6-2.2 2.4-3.4-.2.8-.5 1.5-.9 2.2-7.9 9-17.8 16.8-27.3 20.5-7.5 2.9-17.7-2-25-4.7-3.4-1.2-12.5-3.2-15.8-5.6.5.4 1.1.8 1.7 1.2-.8-.4-1.5-.8-2.3-1.1-2.1-1.1-9.9-3.8-11.4-6 .9 1.6 6.8 4.1 8.3 4.9 4.6 2.6 9.2 5 13.9 7.3-1.5-.6-9.4-3.9-15.3-6.8l-1.5-.8c-2.6-1.4-4.5-2.6-4.9-3.4.2.5.6 1 1 1.3-1.9-1-3.6-2-4.9-2.8l1.3.9c-1.6-1-2.8-1.5-3.1-1.3.2.7.7 1.3 1.4 1.6-.3-.1-.5-.3-.8-.4.3.5.7.9 1.1 1.2l.2.2c-5.9-3.6-11-7-10.7-7.5-.9 1.5 14.2 10 24.5 15.9.1.1.3.1.4.2 4.4 2.5 7.9 4.6 8.8 5.3-1.7-.8-20.8-12-20.9-12 .8.9 1.8 1.6 2.9 2.1-1.4-.6-1.7-.4-.8.7-1.9-1.1-9-3.9-9.9-5.9 1 2.1 6.5 4.4 8.4 5.6 3.6 2.2 7.1 4.6 10.7 6.9 6.3 4.1 13.1 7.5 20.2 10.1-3.2.5-9.1-3.6-11.9-5-4.1-2-8.1-4.2-12.1-6.4-2.4-1.4-21.8-11.4-21.7-13.2-.3 3.1 17.3 11.9 20 13.4 7.7 4.3 15.6 8.1 23.7 11.4-1 .1-6.5-2-6.5-2l4.6 2.3c-8.8 1.1-17.8 1.4-26.7.9-4.3-.2-8.5-.6-12.8-1-2.5-.2-8.2 0-11.1-1 .6.3 1.3.5 2 .7-1.2-.2-2.5-.5-3.7-.8-1.6-.3-4-.6-6.4-1 1 .2 1.8.3 2.4.5 6.4 1.6 12.9 2.9 19.5 4-5.2-.6-10.4-1.6-15.5-2.7-2-.4-11.9-1.6-12.5-3.1.4.8 2 1.4 4.2 2l-2.2-.5c-2.1-.8-4.2-1.4-6.4-1.9-.2-.1-.4-.1-.6-.2-2-.7-3.4-1.3-3.3-1.6-.1.4.7.9 2.2 1.4 1.5.5 3 1 4.6 1.4.3.1.7.2 1 .3-1.9-.4-3.7-1-5.6-1.6-.2 0-.4 0-.6.2.6.6 1.3.9 2.1 1.1l-1-.2c.6.5 1.3.9 2 1.1-7.8-2.2-14.5-4.4-14.3-5.2-.5 2 17.6 6.5 31 9.7 1.4.3 2.7.7 4.1 1l-2.1-.5c5.8 1.4 10.4 2.4 11.5 2.8-2.4-.4-27.2-6.5-27.2-6.5 1.2.7 2.5 1.1 3.9 1.4-1.8-.3-2-.1-.6.7-3.1-.8-10.6-1.5-12.9-3.7 2.8 2.5 10.3 3.4 13.9 4.4 5.3 1.5 10.5 3.2 15.9 4.5 10.8 2.5 21.9 3.7 33 3.7-.5 0-.7.1-.5.3-11.9-.2-24.2-1.7-36.2-4.5-6-1.3-12-2.9-17.9-4.6-1.3-.4-14.9-3.6-15.3-4.7 1 3.1 15.9 5.8 18.8 6.7 7.1 2 14.2 3.6 21.5 4.8 3.3.6 6.6 1.1 9.9 1.5-.8 0-1.2.1-1.4.4.1-.2 11.9 1.5 12.9 1.6 1 .1 3.6.5 6.1.8-4-.5-8.9-1.6-12.8-2.2 10.3 1.1 20.7 1 31.1-.1-.7.3-5.9 1.7-8.7 2 1.8-.1 3.5-.3 5.2-.6-29.4 10.1-68.2 7.2-93.4-13.5 1 .9 1.9 1.8 2.8 2.9l-1.4-.1c.5 1.5 2.7 2.9 3.8 3.9-.2 0-.5-.1-.7-.1h-.1c-.4-.8-1-.7-.9-.5-3.4-2-12.7-8.1-12.5-6 .4 4.4 11 9.2 14.2 11.2-6.5-1.5-11.8-6.1-17.6-9.1 5.4 6.2 12.9 10 19.7 14.1 5.7 3.7 11.7 6.9 17.9 9.7 15.3 6.4 30.8 8.5 47.3 9.7 0-.3-.1-.5-.3-.7 4.4-.6 10.7-.4 14.2-.8 6.7-.8 13-1.4 19.4-3.1 2-.6 27.2-14.1 25.8-15.1-.6-.4-7.2 1-7.1.3 2.2-8.5 13.6-6.9 20.2-8.2 1.4-.4 2.8-.8 4.2-1.3 1.6-.6 3.1-1.3 4.5-2.1 1.2-.7 7.9-5.2 2.4-1.8 4.1-2.9 7.8-6.4 11.1-10.2-.1.5-.2 1.1-.4 1.8C221.9 156.7 213.1 84.5 166 39zM30.1 44.7c6.2-4.3 12.9-7.8 20-10.3-.1 0-.2.1-.2.1-7 2.5-13.7 5.9-19.8 10.2-1 .7-3.4 2.9-6 5.2l-.2.2c2.7-2.4 5.1-4.7 6.2-5.4zM21.7 55c-1 .8-1.9 1.6-2.8 2.5 0 0-.1 0-.1.1.9-.9 1.9-1.8 2.9-2.6 3.3-2.5 6.7-4.9 10.2-7.1.9-.6 1.7-1.2 2.6-1.7-.9.5-1.7 1.1-2.6 1.7 1.1-.7 2.3-1.4 3.4-2.1-1.2.7-2.3 1.4-3.4 2.1l-.1.1c-3.5 2.2-6.9 4.5-10.1 7zm-1.6 2.8s0 .1 0 0c.1-.1.2-.3.4-.4l.2-.2-.6.6zm61.3-19.6c-.4 0-.8.1-1.2.3-.6.2-1.2.5-1.2.7 0-.2.6-.5 1.2-.8.4-.1.8-.2 1.2-.2zm-1.8 1.2l.2-.2v.1l-.2.1zm.8-1.2c-1.7 0-.9-.2-2.6 1.3 1.8-1.5.9-1.4 2.6-1.3zm31.1-15.5l-.4-.3.4.3zm-20.6-6.4c-2.2-1.5-5.2-3.5-8.2-5.6 3 2.1 6 4.1 8.2 5.6zm.1-3c6.1 3.6 13.7 7.5 15.1 8.5-1.4-1-9-4.9-15.1-8.5 6.1 4.3 12.4 8.5 14.7 8.6-2.3 0-8.6-4.2-14.7-8.6zm-4.1 25.2c-.3 0-.5 0-.7.1.2-.1.4-.1.7-.1zm-1.6.7s-.1 0-.2.1c.2-.1.3-.1.2-.1zm-1.1.1c.4-.7 1.2-1 2-.9-.8 0-1.5.3-2 .9.2 0 .2-.1.3-.1.1 0-.1.1-.3.1zm1 0c-.1 0-.1.1 0 0zm3.8.3c1.1.6 2.4.5 3.3-.3-.7-.4-1.4-.4-2.1-.3.7-.2 1.5-.1 2.1.3-.9.8-2.2.9-3.3.3zm19.1 4.1c-3.2-1.3-11.8-5.3-14.9-3.6 3.1-1.8 12 2.5 15.1 3.7-.1-.1-.2-.1-.2-.1zm.5-22.5h.5c-2.6-1.7-7-3.5-10.7-5.7l-.1-.1c3.7 2.1 8.2 4.1 10.9 5.7-.2.1-.4.1-.6.1zm1.2 1.6c.6.7 1.7.9 2.6.5-.9.5-1.9.3-2.6-.5zM95.2 204.4c-.6-.3-1.2-.7-1.8-1-.9-.6-1.9-1.2-2.8-1.8-.1-.1-.2-.1-.3-.2.1.1.2.1.3.1 1.6 1 3.1 2 4.6 2.9zm-40.3 16c.6.2 1.3.3 1.9.5l2.1.6c-1.2-.4-2.6-.8-4-1.1zm7.2-.4c0 .1.1.1 0 0 8.2 1.5 16.3 2.7 19.4 3.1.3.1.7.1 1 .2-1.7-.1-11-1.5-20.4-3.3zm17.8 1.7l-2.3-.3h.9l1.4.3c9.2 1.2 18.2 1.8 26.5 1.1h.7c-8.5.9-17.7.2-27.2-1.1zm-55.5 2.5s0 .1 0 0c0 .1 0 0 0 0zm115.1 2.8h.4c0 .1-.1.1-.4 0zm-5.3 2.4c-2.2 1.4-4.5 2.5-7 3.2-.1 0-.2.1-.3.1-.2 0-.3.1-.5.1.1 0 .1-.1.2-.1.2 0 .4-.1.5-.1 2.4-1.2 4.7-2.4 7.1-3.2 1.2-.7 2.4-1.4 3.6-2h.1c-1.1.5-2.2 1.2-3.3 1.8-.1 0-.3.1-.4.2zm7.2.7s-.1 0-.1.1c0 0 0-.1.1-.1zm-.2.1c-1.5.7-2.7 1.4-3 1.7-.3.1.4-.4 1.6-1 .4-.3.9-.5 1.4-.7zm-35 8c4.2-.4 8.4-1.1 12.5-2.2.8-.4 1.1-.6 1.2-.7.1.1-.1.2-.7.5-.2.1-.3.1-.5.2s-.3.1-.5.2c-4.7 1.2-9.4 2-14.2 2.3.7-.1 1.5-.2 2.2-.3zm19.1-3.3c-.7.3-1.3.5-2 .8-3.5 1.3-7.5 2.6-11.2 2.2h.3c4.3.4 9-1.5 12.9-3zm-11.1 4.7c.1 0 .2-.1.3-.1 5.5-1 11-2.6 16.1-4.8-.6.3-1.1.5-1.7.8-4.7 1.8-9.7 3.2-14.7 4.1zm23.3-12.7c.1.2 2-.3 2.3-.4v.1s-2.5.6-2.3.3zm-24.3-18.3l-4-1.8c.4.1.8.3 1.2.4l2.8 1.4c5 2.1 15.4 8.5 20.4 6.7v.1c-5 1.8-15.5-4.6-20.4-6.8zm-39.8 32.6c-1.3-.1-3.2-.3-3.9-.6.7.4 2.6.5 3.9.6zm-8.2-2h.3-.3zm9.6 2.2c1.8.3 3.5.6 5.3.9-1.8-.2-3.5-.5-5.3-.9zm7.5 1.2c1.6.2 3.2.3 4.8.4-1.6-.1-3.2-.3-4.8-.4zm5.8.4s.1 0 0 0c.1 0 0 0 0 0zm1.8-.1c-3.3-.4-8.5-1-10.5-1.3-.5-.1-1.1-.2-1.6-.3.5.1 1.1.2 1.6.3 2 .3 7.4 1 10.7 1.3h-.2zm1.4.8c.1-.1.2-.1.3-.2.6-.1 1.1-.3 1.7-.3h.9c-1 0-2 .2-2.9.5zm8.2-1.1c.7-.1 1.5-.1 2.2-.2-.1 0-.3.1-.4.1-1 .1-2.1.2-3.1.3.5-.1.9-.2 1.3-.2zm38.7-10.7c-5.6 2.8-11.5 5.1-17.5 7-3.6 1.2-7.3 2.2-11.1 3-1.9.4-3.8.7-5.7.9-.8.1-4.4.6-4.2.3.3.2 3.5-.3 4.2-.4 1.9-.2 3.8-.5 5.7-.9 3.8-.8 7.5-1.8 11.1-3 6-1.8 11.8-4.1 17.5-6.9-.1 0-.1.1 0 0 1.2-.6 2.4-1.3 3.6-2-1.2.7-2.4 1.4-3.6 2zm-6.7 2.4l-.6.3c4-2 7.8-4.2 11.5-6.7v.1c-3.6 2.2-7.2 4.4-10.9 6.3zm7.9-7.2c1.7.1 2.9.7 4.1-.1h.1c-1.3.9-2.5.3-4.2.1zm8-184.2c-4.1-3.1-8.7-5.7-13.6-7.5.2.1.5.2.6.2 4.7 1.8 9.2 4.3 13.2 7.4 0 0-.1 0-.2-.1zm-13.9-7.6c1.7.6.9.3.3.1.2.1.4.2.6.2-.1 0-.4-.1-.9-.3l-2-.6h-.1l2.1.6zm-.6-11.5h-.2c-4.3-1.3-8.7-1.9-13.1-2 4.5 0 9 .7 13.3 2zm-13-.8h0zm10.1.6l-.1-.1.1.1zm5.7 36.7c-.3-.6-.9-1-1.5-1.1.7 0 1.2.4 1.5 1.1zm-1.9-23.6c8.9 3 16.8 8.5 22.8 15.8-6-7.2-13.9-12.7-22.8-15.8 2.8 2.6 5.9 4.8 9 7-3.1-2.1-6.2-4.4-9-7zm9.3 7.3c5.1 3.6 10.5 6.9 15.3 10.8v.1c-4.8-4-10.2-7.4-15.3-10.9zm8.4 183.4h-.2.2c-.1 0-.1 0 0 0l1.4-.2s-.1 0-.1-.1c0 0 .1 0 .1.1l-1.4.2z"/><path class="st0" d="M77.1 44.6c-.2.3-.4.6 0 0zM127.2 232.5c2.5-.7 4.8-1.7 7-3.1-2.4.9-4.7 2-7 3.1zM29.6 43.1c-1.2.8-2.5 1.5-3.8 2.1 1.4-.5 2.7-1.2 3.8-2.1zM13.1 210.6c1.7 2.3 3.7 4.3 6 5.9-2.1-1.8-4.1-3.8-6-5.9zM79 8.3c0 .1.8 1 0 0zM49.8 216.2s-.1 0-.1-.1c0 .1 0 .1.1.1-.4-.2-.8-.4-1.1-.6 0 0 .1 0 .1.1 0 0-.1 0-.1-.1.3.3.7.5 1.1.6zM146.9 240.5c1.1-.6 2.2-1.3 3.2-2.1l1.5-1.2c-2.1 1.5-4.3 2.9-6.5 4.1.7-.1 1.3-.4 1.8-.8zM145.2 241.4c-1.9 1-3.8 1.9-5.4 2.8h-.1c1.9-.8 3.7-1.7 5.5-2.8z"/></svg>