<svg xmlns="http://www.w3.org/2000/svg" id="pen" viewBox="0 0 512 512"><path id="pen-icon" d="M72.819 429.273l14.593 14.593-15.117 15.11c-4.027 4.031-10.559 4.031-14.588.003-4.031-4.03-4.031-10.562 0-14.591l15.112-15.115zM354.941 57.21c-9.784-9.785-25.392-9.526-35.178.262l-99.539 99.536c-9.785 9.788-10.044 25.392-.258 35.177L354.941 57.21zM199.832 249.627l-58.925 58.925c-30.745 30.745-46.211 60.295-60.268 101.438l26.058 26.058c41.143-14.06 70.689-29.523 101.434-60.264l58.93-58.929-67.229-67.228zM441.451 75.232c-21.154-21.154-55.454-21.154-76.608 0L216.368 223.708l76.608 76.609L441.45 151.841c21.155-21.156 21.155-55.454.001-76.609z"/></svg>