<svg xmlns="http://www.w3.org/2000/svg" id="quill" viewBox="0 0 512 512"><path id="pen-12-icon" d="M263.017 273.711c19.932-1.059 49.064-6.658 71.861-19.371 16.539-25.375 27.48-46.08 38.24-68.66-14.793 1.1-31.838-.15-47.047-4.412 18.357-3.139 41.402-9.693 58.83-20.873 21.598-30.621 37.562-79.977 43.029-110.365-49.416-.822-95.709 15.279-126.986 35.436-10.561 12.021-19.707 41.012-21.869 56.357-4.771-11.078-8.238-28.83-4.168-43.643-25.072 13.16-47.012 28.197-71.822 49.09-12.361 26.23-14.328 56.477-13.189 73.416-6.734-9.5-15.744-27.979-14.469-48.225-44.547 42.99-75.271 99.285-46.121 160.066 32.311-33.328 69.457-64.943 92.061-79.638C169.167 312.527 120.501 391.027 84.069 462l43.049-13.488c18.633-33.984 35.383-63.234 50.428-84.201 55.525 7.264 104.799-37.227 138.037-82.316-13.242 3.259-38.635-1.001-52.566-8.284z"/></svg>