<svg id="Layer_2" xmlns="http://www.w3.org/2000/svg" viewBox="0 0 242.6 459.4"><g id="XMLID_497_" fill="#191724"><path id="XMLID_970_" d="M76.6 232.5c-.2.1-.4.2-.6.4-.1.1-.2.1-.3.2-.1.1-.2.1-.4.2.1.1.2.2.2.4l.3.3c.2.2.4.4.6.5.4.3.9.6 1.4.8 1 .5 2 .8 2.9.9 1 .2 2 .3 2.9.3H85c.2 0 .5 0 .7-.1h.9l5.5-1.2-3.9-5.9c-.6-1-1.4-1.7-2.4-2.3-.1-.1-.2-.1-.4-.2l-.1-.1-.1-.1c-.1 0-.1-.1-.2-.1-.1-.1-.2-.1-.3-.2-.4-.2-.7-.4-1-.5-.6-.3-1.2-.4-1.8-.6-1.2-.3-2.3-.4-3.5-.5H75.5h-.1s0 .1-.1.2l-.1.1h-.1v-.1c0-.1.1-.1.2-.2l-.2-.2h-.2s-.1 0-.1.1c-.1 0-.1.1-.1.2-.1.1-.1.3 0 .4v.2c0 .1.1.2.1.3.1.4.3.7.4 1 .3.6.7 1.2 1 1.7.4.5.7 1 1.1 1.5.2.2.4.4.6.7l.6.6.1.1c-.3.2-.5.3-.8.5-.4.2-.8.4-1.2.7zm7.7-4.3z"/><path id="XMLID_967_" d="M150.6 223.2c-.7 0-1.4.1-2 .2-1.3.3-2.4.7-3.5 1.2s-2 1.2-2.9 1.9c-.4.4-.9.7-1.2 1.2l-.6.6-.3.3-.1.2-.1.2-3.9 4.9 5.4 2.1H141.7l.2.1c.1 0 .2.1.4.1.2.1.5.1.7.1.5.1 1 .1 1.5.1 1 0 2-.1 3.1-.4.5-.1 1.1-.4 1.6-.6.5-.3 1.1-.7 1.5-1.2.5-.5.8-1.1.9-1.7.1-.6 0-1.2-.2-1.7-.5.2-1 .4-1.4.3-.1 0-.2 0-.4-.1.2-.3.4-.6.6-1 .6-.9 1-1.9 1.5-3 .2-.5.4-1.1.6-1.7l.3-.9c.1-.3.2-.7.3-1-.4-.1-.7-.2-1.1-.3-.5.1-.8.1-1.2.1zm-6 4.8z"/><path id="XMLID_491_" d="M89.2 178.8l.3.1.3.1c-.1 0-.2-.1-.2-.1-.2-.1-.3-.1-.4-.1-.1-.1-.3-.2-.6-.2-.4-.1-.9-.3-1.3-.4.4.1.8.3 1.3.4l.6.2z"/><path id="XMLID_490_" d="M4.5 122.8c-.6-2.2-.9-4.2-1.1-6.1-.2-.3-.9-.8-1.1-1.5-.3-1.5-.7-2.9-1.1-4.2 1 5.2 2.5 10.2 4.3 14.9v-1.5c-.5-.6-.8-1.3-1-1.6z"/><path id="XMLID_489_" d="M28.6 23.3l.2-.2-.2.2z"/><path id="XMLID_488_" d="M18.8 147.5c-1.7-.9-3.5-3.2-5.1-5.8-.8-1.3-1.6-2.8-2.4-4.2-.8-1.4-1.5-2.8-2.2-4 3.2 6.3 6.9 12 11.1 17.4-.7-1.1-1.2-2.2-1.4-3.4z"/><path id="XMLID_487_" d="M22.6 77s-.1.2-.1.4c-1.2 7.9-1.9 15.9-1.8 23.9 0 .3 0 .5.1.5 0 0 .1-.2.1-.4-.1-8 .5-16.1 1.8-24-.1-.1-.1-.3-.1-.4z"/><path id="XMLID_486_" d="M34.4 43.6c-.1.2-.2.5-.2.6 0 .2 0 .2.1 0 .1-.1.2-.4.1-.6.1-.1.1-.1 0 0z"/><path id="XMLID_485_" d="M53.4 80.7c-.1.1-.3.3-.3.5-.1.1 0 .2.1.1.1-.2.3-.4.2-.6.2-.1.1-.1 0 0z"/><path id="XMLID_484_" d="M77 158.3s.1 0 .1-.1c0-2-.1-4.1-.2-6.1 0-.1 0-.1-.1-.1v.1c.1 2 .2 4.1.2 6.1-.1.1-.1.1 0 .1z"/><path id="XMLID_483_" d="M78.5 142.7v.2h.1c0-.1 0-.1-.1-.2z"/><path id="XMLID_482_" d="M78.5 140.7z"/><path id="XMLID_481_" d="M80.1 141.6s.1 0 .1.1l-.1-.1z"/><path id="XMLID_479_" d="M78.6 140.6h-.1.1z"/><path id="XMLID_477_" d="M78.6 140.6z"/><path id="XMLID_476_" d="M78.8 140.8s0 .1 0 0c0 .1 0 .1 0 0 0 .1 0 .1 0 0 0 .1 0 .1 0 0 0 .1 0 .1 0 0z"/><path id="XMLID_475_" d="M78.9 140.9c0 .1 0 .1 0 0l.1.1s-.1 0-.1-.1c.1.1.1.1 0 0 .1.1.1.1 0 0 .1.1.1.1 0 0 .1.1.1.1 0 0 .1.1.1.1 0 0 .1.1.1.1 0 0 .1.1 0 .1 0 0z"/><path id="XMLID_474_" d="M79 141z"/><path id="XMLID_473_" d="M79.1 141.1s.1 0 0 0c.1 0 .1 0 0 0 .1 0 .1 0 0 0l.1.1c0-.1 0-.1-.1-.1z"/><path id="XMLID_472_" d="M79.1 141.1z"/><path id="XMLID_471_" d="M78.8 140.8z"/><path id="XMLID_470_" d="M78.2 141z"/><path id="XMLID_469_" d="M78.9 140.9z"/><path id="XMLID_468_" d="M78.8 140.9s.1 0 0 0c.1 0 .1 0 0 0 .1 0 .1 0 0 0 .1 0 .1 0 0 0z"/><path id="XMLID_467_" d="M78.5 140.7z"/><path id="XMLID_466_" d="M78.4 140.8z"/><path id="XMLID_465_" d="M78.4 140.8z"/><path id="XMLID_464_" d="M78.1 141z"/><path id="XMLID_463_" d="M78.1 141z"/><path id="XMLID_462_" d="M75.9 142s.1 0 0 0c.1 0 0 0 0 0z"/><path id="XMLID_461_" d="M78.3 140.9z"/><path id="XMLID_460_" d="M78.1 141z"/><path id="XMLID_459_" d="M78.3 140.9s.1 0 0 0c.1 0 0 0 0 0z"/><path id="XMLID_458_" d="M76 142s.1 0 .1-.1c0 .1-.1.1-.1.1z"/><path id="XMLID_457_" d="M78.4 140.8z"/><path id="XMLID_456_" d="M78.4 140.8z"/><path id="XMLID_455_" d="M80.2 141.6z"/><path id="XMLID_454_" d="M77.2 141.5s.1 0 .1-.1c0 .1-.1.1-.1.1z"/><path id="XMLID_453_" d="M81 141.9c-.1 0-.2-.1-.3-.1.1 0 .1.1.2.1h.1z"/><path id="XMLID_452_" d="M79.4 141.3s0-.1 0 0c0-.1 0-.1 0 0z"/><path id="XMLID_451_" d="M75.8 142.1z"/><path id="XMLID_450_" d="M81.3 142c-.1 0-.2-.1-.3-.1h.1c0 .1.1.1.2.1z"/><path id="XMLID_449_" d="M81.5 142.1s0 .1 0 0l.2.2h.2l-.2-.1c-.1 0-.3-.1-.4-.1h.2z"/><path id="XMLID_448_" d="M81.3 142z"/><path id="XMLID_447_" d="M79.1 141.1z"/><path id="XMLID_446_" d="M78.6 140.7z"/><path id="XMLID_445_" d="M79.1 141.1s0-.1 0 0c0-.1 0-.1 0 0z"/><path id="XMLID_444_" d="M78.7 140.8v-.1z"/><path id="XMLID_443_" d="M78.7 140.7z"/><path id="XMLID_442_" d="M80.2 141.6c.1 0 .2.1.4.1-.1 0-.2 0-.4-.1z"/><path id="XMLID_441_" d="M78.7 140.7z"/><path id="XMLID_440_" d="M78.5 140.6z"/><path id="XMLID_439_" d="M78.5 140.7v-.1z"/><path id="XMLID_437_" d="M78.5 140.7z"/><path id="XMLID_436_" d="M78.6 140.6z"/><path id="XMLID_435_" d="M78.6 140.7z"/><path id="XMLID_434_" d="M80.6 141.8z"/><path id="XMLID_433_" d="M78.5 140.6z"/><path id="XMLID_432_" d="M79.1 141.1z"/><path id="XMLID_431_" d="M78.2 141s0-.1 0 0c.1-.1.1-.1 0 0 .1-.1.1-.1 0 0 .1-.1 0-.1 0 0 0-.1 0-.1 0 0 0-.1 0-.1 0 0 0-.1 0 0 0 0z"/><path id="XMLID_430_" d="M78 141.1c.1 0 .1 0 0 0 .1-.1.1 0 0 0 .1 0 .1 0 0 0z"/><path id="XMLID_429_" d="M78.1 141c.1 0 .1 0 0 0 .1 0 .1 0 0 0 .1 0 .1 0 0 0 .1 0 .1 0 0 0 .1 0 0 0 0 0z"/><path id="XMLID_428_" d="M78.2 140.9c0 .1 0 .1 0 0 0 .1 0 .1 0 0 0 .1 0 .1 0 0z"/><path id="XMLID_427_" d="M78.1 141z"/><path id="XMLID_426_" d="M77.9 141.1s0 .1 0 0c0 .1 0 .1 0 0 0 .1 0 .1 0 0z"/><path id="XMLID_425_" d="M77.1 141.5s-.1 0-.1.1l.1-.1c0 .1 0 .1 0 0z"/><path id="XMLID_424_" d="M77.8 141.2z"/><path id="XMLID_423_" d="M78.4 140.8c.1 0 .1 0 0 0 .1-.1.1-.1 0 0 .1 0 .1 0 0 0 .1 0 .1 0 0 0 .1 0 .1 0 0 0z"/><path id="XMLID_422_" d="M78.4 140.8z"/><path id="XMLID_421_" d="M78.3 140.9z"/><path id="XMLID_420_" d="M76.5 141.8c-.1 0-.1 0-.2.1 0 0 .1 0 .2-.1-.1 0-.1 0 0 0z"/><path id="XMLID_419_" d="M78.5 140.7z"/><path id="XMLID_418_" d="M78.5 140.7v.1-.1z"/><path id="XMLID_417_" d="M78.3 140.9z"/><path id="XMLID_416_" d="M78.4 140.8z"/><path id="XMLID_415_" d="M78.4 140.8z"/><path id="XMLID_414_" d="M79.2 141.2s.1 0 .1.1c0-.1 0-.1-.1-.1z"/><path id="XMLID_413_" d="M77.6 141.3z"/><path id="XMLID_412_" d="M77.8 141.2s.1 0 0 0c.1 0 0 0 0 0z"/><path id="XMLID_411_" d="M79.4 141.2z"/><path id="XMLID_410_" d="M78.5 140.7z"/><path id="XMLID_409_" d="M77.7 141.3z"/><path id="XMLID_408_" d="M77.3 141.5s.1 0 .1-.1l-.1.1z"/><path id="XMLID_407_" d="M77.5 141.4s.1 0 .1-.1l-.1.1z"/><path id="XMLID_406_" d="M77.5 141.4z"/><path id="XMLID_405_" d="M77.1 141.5s.1 0 0 0c.1 0 0 0 0 0z"/><path id="XMLID_404_" d="M76.3 141.9s-.1 0 0 0c-.1 0-.1 0 0 0z"/><path id="XMLID_403_" d="M76.6 141.8h.1c0-.1 0-.1-.1 0z"/><path id="XMLID_402_" d="M75.9 142s-.1 0-.1.1c0 0 .1 0 .1-.1z"/><path id="XMLID_401_" d="M76.7 141.7c.1 0 .1 0 0 0 .1 0 .1 0 0 0z"/><path id="XMLID_400_" d="M76.8 141.7s.1 0 .1-.1c0 0 0 .1-.1.1z"/><path id="XMLID_399_" d="M77 141.6z"/><path id="XMLID_398_" d="M79.7 141.4s.1 0 .1.1c0-.1-.1-.1-.1-.1z"/><path id="XMLID_397_" d="M78.6 140.7c.1 0 .1 0 0 0 .1 0 0 0 0 0s.1 0 0 0z"/><path id="XMLID_396_" d="M78.6 140.6z"/><path id="XMLID_395_" d="M78.6 140.6z"/><path id="XMLID_394_" d="M78.6 140.6z"/><path id="XMLID_393_" d="M79.8 141.4c0 .1.1.1 0 0 .1.1 0 .1 0 0z"/><path id="XMLID_392_" d="M78.6 140.6z"/><path id="XMLID_391_" d="M78.6 140.6z"/><path id="XMLID_390_" d="M78.6 140.6s0 .1 0 0c0 .1 0 .1 0 0 0 .1 0 .1 0 0 0 .1 0 .1 0 0 0 .1 0 0 0 0z"/><path id="XMLID_389_" d="M78.6 140.6z"/><path id="XMLID_388_" d="M78.7 140.8s.1 0 0 0z"/><path id="XMLID_387_" d="M78.7 140.7z"/><path id="XMLID_386_" d="M78.7 140.8c0-.1 0-.1 0 0z"/><path id="XMLID_385_" d="M79.9 141.5s.1 0 .1.1c0-.1-.1-.1-.1-.1z"/><path id="XMLID_384_" d="M77.3 141.5z"/><path id="XMLID_383_" d="M78.6 140.7z"/><path id="XMLID_382_" d="M78.6 140.6z"/><path id="XMLID_381_" d="M80 141.5z"/><path id="XMLID_380_" d="M76.5 141.8z"/><path id="XMLID_379_" d="M78.5 140.6z"/><path id="XMLID_378_" d="M76.1 142c.1-.1.1-.1 0 0 .1-.1.1-.1 0 0z"/><path id="XMLID_377_" d="M76.5 141.8c.1 0 .1 0 .2-.1-.1.1-.2.1-.2.1z"/><path id="XMLID_376_" d="M78.6 140.6c-.1 0-.1 0 0 0-.1 0-.1 0 0 0-.1 0 0 0 0 0z"/><path id="XMLID_375_" d="M78.5 140.6c0 .1 0 .1 0 0 0 .1 0 .1 0 0z"/><path id="XMLID_374_" d="M78.6 140.6z"/><path id="XMLID_373_" d="M78.6 140.6z"/><path id="XMLID_372_" d="M183 12.8c.1.2.2.1 0 0 0-.3-.3-.5-.4-.7-.2-.1-.2-.1-.1.1s.3.5.5.6z"/><path id="XMLID_371_" d="M200 74c.2.1.2 0 0 0 0-.2-.1-.4-.3-.6-.1-.1-.2-.1-.1.1.2.1.3.4.4.5z"/><path id="XMLID_370_" d="M132.4 157.2c.1 0 .1 0 0 0 .2-1.9.3-3.7.4-5.5v-.1s-.1 0-.1.1c-.1 1.8-.2 3.6-.4 5.4.1 0 .1.1.1.1z"/><path id="XMLID_369_" d="M136.3 143.7v.1s0 .1.1 0c0 .1 0 0-.1-.1.1 0 0 0 0 0z"/><path id="XMLID_368_" d="M234.7 75.5c-.1.1-.3.3-.3.4-.1.1 0 .2.1.1s.3-.3.3-.4c0-.2 0-.2-.1-.1z"/><path id="XMLID_587_" d="M242.5 66.5l-.4.2c-2.2 1.9-4.2 4.1-5.9 6.3-1.8 2.2-3.4 4.5-5 6.8-3.1 4.6-6 9.3-8.8 13.9l-1 1.5c-.3 0-.6.3-1.1.6l6.3-9.6c1.8-2.6 3.7-5.3 5.6-7.8.3-.4.4-.7.4-.8-.1-.1-.4.2-.7.6-.5.6-.9 1.3-1.4 1.9.3-.6.4-1.1.2-1.2-.1-.2-.5 0-.9.4 1.9-3 3.8-5.9 5.9-8.8.1-.2.2-.3.1-.3s-.2.2-.4.3c-1.6 2-3.1 4-4.5 6s-2.8 4.1-4.1 6.1c-2.4 3-4.7 5.9-7.1 9.2-.4.5-.8 1.1-1.1 1.6 0-.1-.1-.1-.1-.2V93c1.5-2.4 3.1-4.8 4.6-7.1 2.1-3.4 4.3-6.8 6.6-10.2 1.2-1.7 2.3-3.4 3.6-5.1 1.3-1.7 2.6-3.4 4.2-5 .8-.8 1.3-1.6 1-1.6-.3-.1-1.2.5-2 1.4-1.5 1.5-2.9 3.1-4.1 4.7-1.2 1.6-2.4 3.1-3.5 4.7-2.2 3.2-4.2 6.4-6.2 9.7-1.3 2.2-2.6 4.2-3.8 6.2.1-.8.3-1.7.4-2.5.7-6.8.6-13.5-.3-20.1-.9-6.6-2.5-12.9-4.8-19-1-2.6-2-4.9-3.1-7.1-1.1-2.2-2.3-4.2-3.5-6.2-2.5-3.9-5.1-7.4-8-11.1-.2-.2-.2-.2-.2-.1.1.2.3.5.4.7 4.3 6 8.1 12.4 11.1 19.5 1.5 3.5 2.8 7.2 3.8 11s1.8 7.8 2.2 11.8c.2 1.9.3 3.7.4 5.5v.7c0 1.7-.1 3.3-.2 5v-1.7c0-1.1-.1-2.1-.3-2.2-.1 0-.1.2-.2.4-.2-4.2-.8-8.3-1.6-12.3-.2-1.2-.5-2.3-.7-3.2-.8-4.6-1.9-9.2-3.5-13.7-.1-.4-.2-.7-.4-1.1-.5-1.5-1.2-2.8-1.7-3.4-.1-.2-.3-.3-.4-.3-2.3-4.8-4.9-9.5-7.9-13.8-2.9-4.3-6.1-8.4-9.5-12-.3-.4-.6-.5-.6-.4-.1-.2-.3-.3-.4-.5-.8-.8-1.8-1.8-2.7-2.8-.2-.2-.4-.3-.3-.2.1.1.3.4.5.6 1 1 1.9 2 2.8 2.9l.2.2c.1.3.4.6.7.9 3.2 3.9 6.3 7.9 9.1 12.1 2.8 4.2 5.3 8.7 7.4 13.4-2.3-4.6-4.9-9.1-7.9-13.6-1.8-2.7-3.7-5.2-5.7-7.6-2-2.4-4-4.8-6.2-7.2-.2-.3-.4-.4-.4-.3 0 .1.1.3.4.6 2.2 2.5 4.3 5 6.3 7.5s3.9 5 5.7 7.7c1.8 2.6 3.5 5.4 5.1 8.3 1.6 2.9 3 6 4.2 9.3.2.5.4 1 .5 1.6-1.8-4-3.9-7.7-6.2-11.3-3-5.7-6.5-11-10.3-16-3.8-5-8.1-9.7-12.5-14-.4-.4-.8-.7-.9-.7-.1.1.2.5.7.9 4.8 5.2 9.2 10.7 13.2 16.5l-1-1.1-.9-1.2c-2.7-3.6-5.6-7.1-8.7-10.5-1.1-1.3-2.3-2.1-2.5-2-.2.2.5 1.2 1.6 2.4l-.6-.6c-.2-.2-.4-.3-.3-.2 0 .1.2.4.4.6.7.7 1.4 1.3 2 2 5.6 6.5 10.7 13.4 15 20.9-4.8-7.9-10.6-15.2-17-22.1.2.1.2.1.1-.1s-.4-.5-.5-.6c-.2-.1-.2-.1-.1.1-3.4-3.7-7-7.3-10.8-10.7-.1-.2-.3-.3-.4-.3 0 0 .1.3.4.5 6.2 5.7 12 11.8 17.3 18.2 5.3 6.4 10 13.2 13.9 20.4l1.2 2.4c-.1.3 0 1 .2 1.7-2.4-5.2-5.2-10.2-8.5-14.9-2.6-4-5.4-7.9-8.5-11.6-.4-.5-.9-.9-1-.9-.1.1.2.5.7 1.1.7.9 1.5 1.8 2.2 2.7-.7-.7-1.3-1-1.5-.9-.2.1-.1.6.3 1.3-3.3-3.9-6.9-7.5-10.6-10.9-.2-.2-.4-.3-.3-.2 0 .1.2.3.4.5 5.1 5.1 9.9 10.4 14.1 16.1 1.5 2.4 2.9 4.7 4.3 7.2 1.3 2.5 2.6 5 3.9 7.7 1.8 3.9 3.5 7.8 4.8 11.7 1.3 3.9 2.4 7.8 3.2 11.8.4 2.9.6 5.8.7 8.6-.1-.4-.3-.6-.4-.6 0 0-.1 0-.1.1-.1-2.5-.4-5-.7-7.6-.9-5.9-2.5-11.6-4.7-17s-5-10.5-8.2-15.4c-3.2-4.8-6.8-9.4-10.6-13.7-3.9-4.3-8-8.4-12.4-12.3-1.1-1-2.1-1.6-2.1-1.3 0 .3.8 1.4 1.9 2.4 4 3.9 7.8 7.7 11.3 11.6 3.6 4 6.9 8.1 10.1 12.7 2.3 3.2 4.2 6.4 5.9 9.7 1.7 3.3 3.3 6.6 4.6 10.3 1.6 4.3 2.7 8.6 3.4 13 .6 3.6.9 7.3.9 11-.1-.1-.1-.2-.2-.2-.3-.4-.7-.8-1-1.2 0-3.5-.3-6.9-.8-10.4-.7-4.4-1.8-8.8-3.2-13.1-.1-.3-.2-.5-.3-.5 0 0 0 .2.1.5 1.5 4.3 2.6 8.6 3.2 13 .5 3.4.8 6.8.8 10.2-.2-.3-.5-.5-.7-.8-.2-.2-.3-.2-.2-.1 0 .1.2.3.3.5.2.3.4.5.6.8v.8c-.2-.2-.3-.4-.5-.6-.1-.2-.3-.3-.3-.3 0 .1.1.2.2.5.2.3.4.5.6.8v.6c-1.8-2.4-3.6-4.7-5.6-7-.3-.4-.6-.6-.6-.5-.1.1.1.4.4.8 2 2.7 4 5.5 5.8 8.3v.1c.4.7.8 1.3 1.2 2v.4c-1.7-2.7-3.5-5.2-5.4-7.7-.8-1-1.6-1.7-1.8-1.6-.2.1.2 1 1 2l-.4-.4c-.1-.2-.3-.2-.3-.2 0 .1.1.3.3.5.5.5 1 1.1 1.4 1.6 1.4 1.9 2.7 3.9 3.9 5.8v.6c-1.7-2.6-3.5-5.1-5.4-7.5.1.1.2.1.1-.1-.1-.1-.3-.4-.4-.5-.1-.1-.2-.1-.1.1-2.4-3-4.9-5.9-7.4-8.8-.1-.2-.3-.3-.3-.2l.2.4c4.3 4.7 8.3 9.7 11.9 14.8.5.7 1 1.4 1.4 2.1v.3c-.8-1.3-1.7-2.7-2.6-4-.3-.4-.6-.7-.7-.7-.1 0 .1.4.4.9.5.7 1 1.5 1.5 2.2-.5-.5-.9-.8-1.1-.7-.2.1-.2.5.1 1.1-2.3-3.1-4.7-6.1-7.3-8.8-.2-.2-.3-.2-.2-.1 0 .1.1.3.3.4 3.5 4.1 6.8 8.4 9.6 12.9-.1.7-.2 1.5-.3 2.2-1.6-2.8-3.5-5.4-5.4-8-2.6-3.5-5.5-6.8-8.6-9.9-.8-.8-1.5-1.3-1.6-1-.1.3.5 1.1 1.2 2 2.8 3.2 5.3 6.2 7.8 9.4 2.3 3 4.4 6 6.3 9.3-.4 2.7-.9 5.3-1.6 8-1.4 5.5-3.4 10.8-5.7 16-1 1.2-2.4 3.3-3.9 5.6s-3.2 4.9-4.8 7.4c-1 1.6-2 3.1-2.9 4.6-1 .5-2.3 1.4-3.6 2.5-1.6 1.3-3.2 2.8-4.7 4.3-1.1 1.1-2 2.3-2.9 3.5l1.4-1.4c-1.3 1.5-2.3 2.9-3.3 4.4l-.3.3c-1.5 1.4-2.9 2.9-4.3 4.6-1.4 1.7-2.8 3.4-4.2 5h.4c-.5.6-1 .8-1.5 1.5l.6-.4c-.7.6-1.4 1.5-2.1 2.4-.7.6-1.3 1.3-2 2.1-1 .8-1.9 1.6-2.9 2.4-.1.1-.2.2-.4.3-.5.3-1.3.9-2.1 1.5-.4.3-.8.6-1.1.8-2.6 1.5-5.6 3.5-8.9 5.8.7-.4 1.4-.8 2-1.2-.9.6-1.9 1.3-2.9 2.1.1 0 .3-.1.5-.1-.2.1-.3.2-.5.3-.1-1.6-.2-3.1-.4-4.8-.2-2.3-.5-4.5-.5-6.7-.3-2.2-.5-4.3-.8-6.4-.2-1.8-.8-3.2-1.1-4.7 0 0 0-.1-.1 0v.1c.2 2.5.5 5 .5 7.7v1c0 .3-.1.5-.1.8v-.3c0-.2-.1-.4-.2-.4 0 0-.1 0-.1.1l-.3-2.1c0-.2 0-.4-.1-.6l.3-2.4v-.2c0-.3 0-.5-.1-.6l-.1-.1c-.1-1.8-.1-3.6-.2-5.3 0-.1 0-.1-.1-.1v-.1c0-.2-.1-.4 0-.7 0-.1 0-.1-.1-.1l-.1.1c0 .2 0 .5.1.7 0 0-.1.1-.1.2-.1 1.7 0 3.4 0 5.2-.1-.9-.2-1.8-.2-2.7-.1-1.1-.2-2.2 0-3.3v-.1s-.1 0-.1.1c-.1 1.1-.1 2.3 0 3.4s.2 2.2.1 3.5v.3c-.2-.8-.4-1.5-.6-2.3 0-1.1.1-2.2.1-3.3l.3-3.3v-.2c-.1 0-.1.1-.1.2-.4 1.2-.7 2.4-.9 3.7v-.6c.1-.8.2-1.6.4-2.4.1-.3 0-.6-.1-.6s-.3.2-.4.4v-.2-.1l-.1.1v.5c-.4 1.6-.5 3.1-.6 4.7v-2.6c.1-.9.2-1.7.3-2.6 0 0 0 .1.1 0v-.1h-.1c.1-.5.2-1 .4-1.4.1-.2.2-.5.3-.7.1-.2.3-.5.4-.7 0 0 .1-.1 0-.1 0 0-.1 0-.1.1-.3.4-.5.8-.7 1.2-.2.4-.3.8-.4 1.2-.2.8-.3 1.6-.4 2.4-.2 1.6-.2 3.1-.1 4.6v.5c-.1 0-.2.1-.3.3 0-1.1 0-2.1.1-3.2.1-.9.2-1.8.4-2.7 0-.1 0-.2-.1-.3-.1 0-.1.1-.2.2 0 .2-.1.4-.1.7-.1-.2-.1-.3-.3-.4-.1 0-.2 0-.4.2 0-.5 0-1 .1-1.5 0-.5.1-1 .2-1.6v-.1l-.1.1c-.2.8-.3 1.5-.4 2.2-.1.7-.1 1.4-.2 2.1-.3 1.1-.5 2.1-.7 3.3-.2 1.7-.1 3.3 0 4.8-.1.6-.1 1.1-.1 1.7-.1-.1-.1-.1-.2-.1h-.1l.1-1.5c.1-2.3.1-4.6.1-6.9 0-1.2.1-2.3.2-3.5.1-.6.1-1.2.2-1.9.1-.3.1-.7.2-1 .1-.2.1-.4.2-.6.1-.2.1-.4.2-.6.2-.4.3-.7.1-.8-.1 0-.5.3-.7.7-.4.8-.6 1.5-.7 2.1l-.3 1.8c-.1 1.2-.1 2.3-.1 3.4 0 1.6.1 3 .1 4.6.1 1.8 0 3.5 0 5.3v1c0 1.4-.1 2.7-.2 4.1-.1-1.6-.2-3.2-.4-4.8 0-.1-.1-.2-.1-.2-.1 0-.1.1-.1.2l.3 6.7c-.5.6-.7 1.9-.7 3 0 .4.1.8.2 1.2v-.5c0 .5.2 1 .3 1.5v.1c-.2 1.1-.1 2.3-.2 3.5l.2-.1c0 .2-.1.3-.2.6l.1-.2c-.1.3-.1.6-.1.9-.2.7-.4 1.6-.4 2.5-.1.1-.1.3-.1.5 0 .1 0 .2-.1.3-.3.6-.4 1.3-.5 2l.1-.5c0 .2-.1.4-.1.7l.1-.1c0 .2-.1.4-.1.6h-1.2c-1 0-2 .1-3.1.1-.1 0-.1 0-.1.1s.1.1.1.1c1.4.2 2.9.5 4.3 1 .1.2.2.4.3.5.3.4.7.3.9-.1.1 0 .3.1.4.2.1.1.1.2.2.2.1.1.1 0 .2 0l-.2.2-.2.2s0 .1-.2.3c-.4-.3-.8-.6-1.3-.9l-.2-.2c-.3-.2-.6-.2-.8-.1-.1 0-.1.1-.2.1-2.1-.6-4.2-1.3-6.3-1.3-.1 0-.2 0-.2.1 0 0-.1-.1-.1 0h-.8c-.1 0-.1 0-.1.1s.1.1.1.1h1c0 .1.1.1.2.1 2 .5 4 .9 6 1.7-1.1-.2-2.1-.4-3.2-.7-1.3-.3-2.6-.4-3.9-.6-.1 0-.1 0-.1.1 0 0 0 .1.1.1 1.3.3 2.6.5 3.9.7 1.3.2 2.6.5 3.9 1.2.1.1.2.1.3.2-1-.1-1.9-.1-2.8-.1-2.4-.9-4.8-1.6-7.3-2-.1 0-.2 0-.3.1 0 .1.1.2.2.2 1.3.5 2.6 1.1 3.8 1.7h-.3l-.3-.1c-.8-.3-1.7-.6-2.6-.8-.3-.1-.6 0-.7.2-.1.2.1.5.4.6h-.2c-.1 0-.1 0-.1.1l.1.1h.6c1.6.6 3.1 1.2 4.7 1.9-1.8-.5-3.5-.9-5.3-1.4 0 0 .1-.1 0-.1 0 0-.1-.1-.1 0-.1 0-.1.1 0 .1-.9-.3-1.9-.5-2.8-.8-.1 0-.1 0-.1.1 0 0 0 .1.1.1 3.1 1 6.2 1.8 9.4 2.6l.5.2c0 .2 0 .4.1.6-1-.4-2.1-.8-3.2-1.1-.8-.4-1.7-.7-2.6-1-.1 0-.3 0-.3.1s0 .2.2.3l.6.2c-.2.1-.4.2-.5.4-.1.2-.1.4 0 .6-1-.2-2-.3-2.9-.3-.1 0-.1 0-.1.1l.1.1c1.3.3 2.7.6 4 .9.9.6 1.7 1.3 2.7 1.9 1.4.8 2.9 1.3 4.4 1.9.4.3.9.7 1.3 1-.1 0-.2.1-.3.2v.1c-.4-.3-.8-.5-1.2-.8-1.9-1.2-4-2.1-6.2-2.6-2.1-.6-4.3-.9-6.4-1.2-.3 0-.5.1-.6.3 0 .2.2.5.4.5 1.9.6 3.8.8 5.9 1.2 1.5.3 2.7.7 4.2 1.2 1.7.6 3 1.5 4.5 2.5.1.1.2.2.4.3l.4.3c.4.3.7.5 1 .8v.4c0 .1 0 .1-.1.2-.7-.4-1.3-.7-2-1-.1-.1-.2 0-.2.1s0 .2.1.2c.7.4 1.4.8 2 1.2-.2 1.1-.5 2.1-.6 3.1-.5 2.5-.9 4.8-1.3 7 0 .1 0 .2.1.2s.1-.2.2-.3c.5-1.9 1.1-3.8 1.7-5.8l.5-1.5.2-.8.1-.4.1-.2v-.1c.1-.1.1-.2.2-.2.3.2.6.4.9.7h-.1c-.1 0-.2 0-.3.1-.2.1-.3.2-.4.3 0 0 0 .1-.1.1v1.2l-2.2 6.6c-.3 1.1-.7 2.1-1 3.1-.3 1-.6 2-.9 2.9-.1.2 0 .3.1.4 0 0-.1.1-.1.2 0 .2-.1.3-.1.5v-.6c.1-2.1-.4-3.7-.7-5.5 0-.1 0-.1-.1 0v.2c.1 1.4.1 2.8 0 4.3 0 .5-.1 1-.1 1.5-.1.9-.2 1.7-.3 2.5-.1.8-.3 1.6-.6 2.4v-1.6c0-1.6.2-3.1.7-4.6l.1-.2c.1-.3.1-.6 0-.7l-.1-.1c.1-2 .2-4.1-.1-6 0-.1-.1-.1-.1-.1v-.1c-.1-.2-.1-.5-.1-.7 0-.1 0-.1-.1-.1v.1c0 .3.1.5.1.8v.1c0 .1-.1.1 0 .2 0 1.9.1 3.9-.2 5.8v-3c0-1.3-.2-2.4-.2-3.7v-.1s-.1.1 0 .1c0 1.3.1 2.5.1 3.7v1.9c0 .6-.1 1.3-.2 1.9 0 .1 0 .2-.1.3-.1-.9-.2-1.7-.3-2.5.2-2.4.3-4.8.1-7.2 0-.1 0-.2-.1-.2s-.1.1-.1.2c-.1 1.3-.2 2.7-.4 4v-.6c.1-.9.1-1.7.1-2.6 0-.3-.1-.6-.3-.6-.2 0-.3.2-.3.5v-.1c0-.1 0-.1-.1-.1v.1l.1.5c-.1 1.6-.2 3.2-.4 4.9 0-1.8.1-3.5.1-5.3h.1v-.1h-.1V200c0-.1 0-.1-.1-.1 0 0-.1.1 0 .1v9.5c.1.4 0 .6-.4.8-.1-.6.2-1.1.1-1.7 0-.5.1-1.1.1-1.6.1-.9.2-1.8.2-2.7 0-.1 0-.2-.1-.2s-.1.1-.1.2v.7c-.1-.2-.2-.3-.3-.3-.1 0-.2.1-.3.2-.1-1-.1-1.9-.3-2.8 0-.1 0-.1-.1-.1v.1c.1 1.3.1 2.7.1 4-.1.5-.3 1-.4 1.5-.4 1.4-.4 2.7-.4 4.1 0 .7.1 1.4.1 2.1 0 .7.1 1.4.1 2.1-.1-.6-.2-1.1-.2-1.7-.1-.6-.1-1.2-.1-1.7 0-1.2-.1-2.3 0-3.4 0-.6.1-1.1.1-1.7.1-2.2-.1-4.4-.3-6.5 0-.3-.2-.5-.3-.4-.1 0-.2.3-.2.6 0 1.5.1 3 .2 4.5v1.5c-.1 1.3 0 2.7.1 4 0 .7.1 1.4.2 2 .1 2 .6 4.1.4 6.1-.5-.8-.1-1.6-.5-2.4 0 .7-.1 1.2.1 1.9l-.3-.3v.2c.2.2.5.5.5.8l-.3-.3c0 .1 0 .2.1.2.1.2.1.3.1.5 0 0 0-.1-.1-.1 0 .1 0 .3-.1.4-.1.3-.1.5-.2.8.1.2.1.4.1.6-.1-.1-.1-.2-.2-.4v.1c.1.4.2.8.1 1.3 0-.3-.2-.7-.1-1-.1.5-.3.9-.4 1.4-.1.6-.2 1.1-.3 1.6-.2.6-.3 1.3-.5 1.9-.5 1.4-.8 2.9-1.1 4.4-.1.7-.2 1.5-.3 2.2-.1.6-.2 1.1-.2 1.7-.2.9-.4 1.8-.7 2.7-.2 1-.8 1.7-1.4 2.5-.6 1.3-1.2 2.7-1.9 4 .2-.1.3-.2.5-.3-.1.4-.3.7-.4 1-.1-.1-.2-.2-.1-.4 0 0 0-.1-.1-.1v-.1-.2c.1-.4.1-.9.2-1.4l.6-3c.2-.9.2-1.7.3-2.6v-2.6c0-.1 0-.1-.1 0l-.1.1c-.2 1.4-.5 2.7-.8 3.9-.3 1.3-.7 2.5-1.1 3.7-.1.3-.2.5-.3.8v.1c-.1.2-.2.4-.3.7l.1-.2c.1-.2 0-.3-.1-.4h-.1l.3-1.9c.1-.2.1-.4.1-.5l1-2.1.1-.2c.1-.2.2-.5.1-.7 0-.1 0-.1-.1-.1.2-.9.5-1.8.7-2.8.2-.9.3-1.9.3-2.9 0-.1 0-.2-.1-.1v-.1-.8c0-.1 0-.1-.1-.1 0 0-.1.1 0 .1v.9s-.1.1-.1.2c-.1 1-.3 1.9-.5 2.8-.2.9-.4 1.8-.7 2.6.2-.9.4-1.8.5-2.8.2-1.2.3-2.3.4-3.5v-.1l-.1.1c-.1 1.2-.3 2.4-.5 3.5s-.4 2.3-.9 3.4c0 .1-.1.2-.1.3.1-.8.1-1.6.1-2.3.3-1.1.7-2.2.9-3.3.2-1.1.3-2.3.2-3.5 0-.1-.1-.2-.1-.2-.1 0-.1.1-.1.2 0 .6-.1 1.3-.3 1.9-.1.6-.3 1.2-.5 1.8v-.6c.2-.8.3-1.6.4-2.4 0-.3-.1-.6-.2-.6-.2 0-.3.2-.3.5v-.1s0-.1-.1-.1v.1c0 .2 0 .3.1.5-.2 1.4-.6 2.9-1.1 4.3.2-.8.4-1.6.5-2.4.1-.8.3-1.6.3-2.3h.1v-.1h-.1c0-.4 0-.8-.1-1.2 0-.4-.1-.7-.3-1.1l-.1-.1v.1c.2.6.3 1.2.3 1.8 0 .6-.1 1.3-.2 2-.2 1.4-.5 2.8-.9 4.2l-.2.4c-.1 0-.3.1-.4.2.3-1 .6-1.9.8-2.9.3-.8.5-1.6.6-2.4 0-.1 0-.2-.1-.2s-.1.1-.1.2c0 .2-.1.4-.1.6 0-.2-.1-.3-.3-.3-.1 0-.2 0-.4.1.1-.8 0-1.6-.2-2.2 0 0 0-.1-.1 0v.1c.1.4.1.9 0 1.5 0 .5-.1 1.1-.2 1.7-.4.9-.9 1.7-1.3 2.7-.6 1.4-1.1 2.9-1.4 4.4-.2.5-.5 1-.7 1.6 0-.1-.1-.2-.2-.2h-.1c.2-.5.3-.9.5-1.4.4-1.1.8-2.1 1.2-3.1l.9-3c.2-1 .4-1.9.4-2.7 0-.4 0-.8-.1-1.1 0-.2-.1-.3-.1-.4 0-.1-.1-.2-.1-.3 0-.1-.2-.1-.3-.1l-.2.2v1.4c0 .7-.1 1.5-.3 2.4-.1.7-.3 1.3-.4 1.9-.2.6-.4 1.3-.6 2-.3.8-.5 1.6-.8 2.5-.3.8-.6 1.7-.9 2.6 0 .1-.1.2-.1.3 0 .1-.1.2-.1.4-.1.3-.1.5-.2.8-.2.9-.4 1.9-.4 2.8l-.2-.2v-.1c0-1.2.1-2.4.4-3.6v-.1-.1s0-.1-.1-.1c0 0-.1 0-.1.1s-.1.1-.1.2c-.3 1.1-.5 2.3-.5 3.4-.2-.2-.3-.3-.3-.5-.1-.1-.2-.3-.3-.5-.1-.2-.2-.4-.3-.7-.2-.5-.3-1.2-.4-1.8-.1-.6-.3-1.1-.5-1.6s-.4-1-.7-1.5v.1c.3.8.5 1.7.7 2.6.2.9.2 1.7.4 2.4 0 .2.1.3.1.5v.1c0 .1 0 .3.1.4v-.1c0-.1-.1-.2-.1-.1-.1-.3-.2-.7-.4-1.1 0-.1 0-.2-.1-.3v-1.6c0-.2 0-.3-.1-.4h-.1c-.1-.6-.3-1.2-.4-1.8-.2-.6-.4-1.2-.7-1.7 0-.1-.1-.1-.1-.1v-.1c-.1-.1-.2-.2-.3-.4v.1c.1.1.2.3.3.4v.1c.2.5.5 1.1.6 1.7.2.6.3 1.2.4 1.7-.1-.6-.3-1.2-.5-1.8-.2-.7-.6-1.4-.9-2 0 0 0-.1 0 0v.1c.3.7.7 1.4.9 2.1.3.7.4 1.5.5 2.2v.2c-.2-.5-.3-.9-.5-1.4-.1-.7-.3-1.4-.6-2.1-.3-.7-.6-1.3-1-1.9 0-.1-.1-.1-.1-.1v.1c.4.7.6 1.5.8 2.3l-.1-.1-.1-.2c-.2-.5-.4-1-.6-1.4-.1-.2-.2-.3-.3-.3-.1 0-.1.2 0 .3l-.1-.1v.1l.2.3c.4.9.7 1.8.9 2.7-.3-1-.7-2-1.1-2.9v-.1c-.3-.5-.6-1-.9-1.4h-.1v.1c.5.8 1 1.6 1.3 2.4.4.8.7 1.7.9 2.6v.3c-.1 0-.1.1-.1.2-.1-.6-.2-1.3-.4-1.9-.1-.5-.3-1-.5-1.5 0-.1-.1-.1-.1-.1v.2c0 .1.1.2.1.4-.1-.1-.2-.1-.2-.1-.1 0-.1.1-.1.2-.2-.5-.5-.9-.9-1.4v.1c.4.6.7 1.3 1 2 .1.6.1 1.2.2 1.8.1.9.2 1.9.4 2.9 0 .4 0 .7.1 1.1l-.1-.1c-.1-.3-.1-.7-.1-1-.1-.8-.1-1.5-.2-2.1-.1-.7-.2-1.3-.4-1.8-.4-1.2-.9-2.2-1.7-3.1-.1-.1-.2-.2-.3-.1 0 .1 0 .2.1.3.6.9 1.1 1.8 1.5 2.9.3.8.4 1.5.5 2.4.1.5.1 1.1.2 1.6.1.6.1 1.2.3 1.9 0 .1.1.3.1.4.1.1.1.3.2.4.1.3.2.5.4.8.1.1.1.2.2.4 0 .1.1.1.1.2l.1.1c.1.2.3.4.5.6.2.2.3.4.5.5l-.6-.6-.3-.3-.1-.2-.1-.1-.1-.1c-.4-.5-.8-1.1-1-1.7 0-.1-.1-.1-.1-.1v.2c.2.4.4.9.6 1.3.1.2.3.4.4.6.1.2.3.3.4.5.1.2.3.3.4.5l.4.4.3.3.3.3v.4c.1.2.1.3.2.5.2.3.4.7.7 1l.6.6-.2-.3c.3.3.5.5.8.6l.1.1c.4.6 1.1 1.2 1.7 1.7v-.1c.1.1.1.2.3.3l-.1-.1.4.4.1.1.1.1c.1.1.2.1.4.2.1 0 .2.1.4.2.1 0 .2 0 .4.1h.7c.1 0 .2 0 .4-.1.1 0 .2-.1.4-.2.1-.1.2-.1.3-.2 3.7-.3 7.3 1.3 10.6 2.6l1.8.9c.6.3 1.2.6 1.8.8l1.2 1.2c.4.4.7.8 1 1.2.1.2.3.4.4.5 1.1 3.9 2.7 7.5 3.1 11.6.1.6.1 1.3.1 1.9 0 .7 0 1.3-.1 2v2.1c0 .5 0 .9.1 1.4l-.3 1.5c-.1.8-.3 1.5-.5 2.3-.2.8-.3 1.5-.5 2.3-.1.4-.2.7-.3 1.1 0 .1-.1.2-.1.3-.1-.1-.3-.1-.4-.2-.3-.2-.7-.3-1.1-.5-.4-.2-.8-.3-1.2-.5-.4-.1-.8-.3-1.2-.4l-.3-.1-.3-.1-.5-.2c-.7-.2-1.5-.4-2.2-.7-.3-.1-.7-.2-1-.3.4-.3.7-.6.9-.9.3-.5.6-1 .6-1.5v-.4-.4c0-.2-.1-.5-.2-.7-.2.1-.5.1-.7.1h-.6c-.4 0-.7-.1-.9-.3-.2-.1-.4-.3-.5-.5-.1-.2-.2-.3-.4-.5-.2-.3-.5-.7-.7-1l-.4-.5c-.1-.1-.1-.2-.2-.2.1 0 .1 0 .2-.1.8-.3 1.6-.7 2.3-1.2.4-.2.8-.5 1.2-.7.2-.1.4-.3.6-.4.1-.1.2-.2.4-.3.3.4.6.8.8 1.3.2.3.3.6.4 1 .1.4.2.7.1 1.2.4-.1.8-.5 1.1-.9.3-.4.5-.8.7-1.3.2-.5.3-.9.4-1.4.1-.5.1-1 .1-1.5s-.1-1-.3-1.6c-.2-.6-.4-1.1-.9-1.8-.2-.3-.6-.6-1-1-.2-.2-.5-.3-.8-.4-.3-.1-.6-.2-1-.2-.7-.1-1.4 0-2 .2-.3.1-.6.2-.8.4l-.2.1h-.1-.2c-.1 0-.3 0-.4.1l-.9.2-2 .4c-1.4.2-2.7.5-4 .7-.7.1-1.3.2-1.9.3-.3 0-.6.1-.8.1l-.6.1h-.2s.1 0 0 0l-.2-.1c-.1 0-.2-.1-.3-.1-.2-.1-.5-.1-.7-.2l-1.5-.3c-.5-.1-1.1-.1-1.7-.1-.6 0-1.3.1-2 .3-.7.2-1.5.6-2.1 1.1l-.9.9c-.2.3-.4.7-.6 1-.3.7-.4 1.3-.4 1.9 0 1.2.2 2.1.6 3 .4.9.9 1.6 1.5 2.3.4-.8.7-1.6 1.1-2.3.2-.3.4-.7.6-.9.2-.3.4-.5.6-.7.2-.2.4-.2.5-.2.1 0 .1 0 .2.1 0 0 0 .1.1.2v.3c0 .1.1.2.3.3.3.2.7.4 1.2.7l.4.2.2.1.1.1h.2l.2.1.2.1c.1 0 .2.1.3.1.2.1.4.1.5.2.3.1.7.2 1 .2.1 0 .3 0 .4.1l-.1.1c-.6.4-1.3.8-2.1 1.2-.4.2-.9.4-1.4.7-.3.1-.5.2-.8.3-.3.1-.6.2-.9.4.1.3.2.6.4.9.2.3.3.6.5.8.4.5.8.9 1.3 1.3.3.2.5.4.8.6-.3.1-.6.2-.8.4-.4.2-.7.3-1.1.5l-.6.3-.5.2c-.7.3-1.3.6-2 .8-.7.2-1.3.3-1.9.4-.6 0-1.2 0-1.6-.3-.2-.1-.4-.2-.6-.4-.2-.2-.4-.4-.5-.6-.1-.1-.1-.2-.2-.4 0-.1 0-.1-.1-.2v-.1-.1c0-.1-.1-.2-.1-.4l-.1-.3c-.1-.2-.1-.4-.2-.6-.2-.8-.5-1.5-.8-2.3-.3-.8-.5-1.5-.8-2.2-.3-.7-.5-1.5-.8-2.2-.3-.7-.6-1.5-.9-2.2-.6-1.5-1.2-2.9-1.8-4.4.3 1.6.6 3.1.9 4.7.2.8.3 1.6.5 2.3.2.8.3 1.5.5 2.3l.5 2.3.2 1.2c.1.4.2.8.2 1.1 0 .2.1.4.1.6V288.7c0 .1.1.3.1.4.1.3.2.5.3.7.2.5.5.9.8 1.3.3.4.8.8 1.2 1 .3.2.7.4 1 .5 0 .2.1.4.1.6l-.1.1-.1.1c0 .1 0 0 0 0h.2c0 .3.1.5.1.8.1.9.3 1.8.5 2.6.1.4.2.9.3 1.3l.1.6.1.3c.1.1.1.1.1.2v.1s0 .1.1.1c0 .1.1.2.1.2.3.6.8 1 1.2 1.3.4.4.9.6 1.4.9 1 .5 1.9.8 2.9 1 .5.1 1 .2 1.5.2.2 0 .5 0 .7.1h.7c1.8.1 3.6.1 5.4 0h.1c1.9-.3 3.9-.2 5.8-.3 1 0 1.9-.1 2.9-.1.5 0 1.1-.1 1.6-.1.2 0 .3-.1.5-.1h1.3c1.6-.2 3.1-.3 3.5 0 .5.4 1.1.8 1.6 1.1-.1.6-.2 1.2-.4 1.8-.2 1.6-.2 3.2-.3 4.9 0 1.4.4 2.5.6 3.8h.1v-.1c0-1.9.1-3.9.6-5.8 0-.2.1-.4.2-.7v-.1c.1-.2.2-.4.2-.6v.2c0 .1 0 .3.1.3h.1v2c-.2.6-.4 1.1-.6 1.7l-.1.1c-.1.2-.1.4 0 .5l.1.1c-.1 1.4-.3 2.7-.2 4.1 0 .1 0 .1.1.1v.6s0 .1.1.1l.1-.1v-.6l.1-.1c.2-1.3.2-2.6.5-3.9 0 .7 0 1.4-.1 2.1 0 .9 0 1.7-.1 2.5v.1s.1 0 .1-.1c.3-1.7 0-3.4.4-5.1 0-.1 0-.1.1-.2l.3 1.8c-.3 1.6-.6 3.3-.7 4.9 0 .1 0 .2.1.2s.1 0 .1-.1l.9-2.7v.4c-.1.6-.3 1.2-.4 1.8-.1.2 0 .4.2.5.1 0 .3-.1.4-.3v.2s.1 0 .1-.1v-.4c.3-1.1.6-2.2.8-3.3-.1 1.2-.3 2.5-.5 3.7h-.1v.1h.1c-.1.7-.3 1.3-.5 2v.1s.1 0 .1-.1c.6-2.2.9-4.4 1.1-6.5l.1-.3c.1 0 .2-.1.3-.1-.1.8-.3 1.5-.4 2.3l-.5 1.9c0 .1 0 .2.1.2s.1 0 .2-.1l.1-.5c0 .1.1.3.3.3.1 0 .2 0 .4-.1 0 .7-.1 1.4-.1 2.1 0 0 0 .1.1.1 0 0 .1 0 .1-.1.1-1 .3-1.9.4-2.9.3-.7.7-1.4.9-2.2.1-.3.2-.5.2-.8l.2-.2c-.5 2.4-.7 4.7-.9 7.1 0 .2.1.4.2.4s.3-.2.3-.3c.3-1.5.4-2.9.6-4.4.1-1.1.2-2.1.4-3.2 0-.1 0-.2.1-.3.3-.3.5-.7.8-1-.2.5-.3 1.1-.5 1.6v.1s.1 0 .1-.1c.2-.6.4-1.3.6-1.9.3-.5.7-1 1-1.5.7-1.1 1.2-2.3 1.7-3.6.3 0 .5-.1.8-.1-.2.5-.5 1-.8 1.6-.6.9-1.3 1.8-2 2.7-.1.1-.1.3 0 .4.1.1.3.1.4-.1.2-.2.3-.4.5-.7 0 .3.2.6.4.8.2.2.5.3.8.2l-1.5 3.6c0 .1 0 .1.1.2.1 0 .1 0 .2-.1 1-1.5 1.9-3.1 2.7-4.7.3-.3.6-.5.9-.8-3.3 5.9-3.7 12.6-4.3 19.1v3c0 .8-.1 1.6-.1 2.5 0 1.2.1 2.3.2 3.5.1-.8.2-1.5.3-2.3.2-1.1.5-2.2.8-3.3.3-.9.6-1.7.8-2.6l.6-2.1c.5-2.2 1-4.2 2-6.2.5 2.5.2 5.1-.8 7.5-.3.8-.6 1.6-1 2.4-.2.6-.5 1.3-.7 1.9-.2.6-.4 1.3-.5 2-.2.8-.3 1.6-.4 2.3-.1.8-.1 1.6-.1 2.4 0 1.6.2 3.1.4 4.7 0 .1 0 .3.1.2.3-1.3.3-2.6.2-3.9-.1-1.3-.1-2.6.2-3.8.1-.6.2-1.2.4-1.8.2-.6.5-1.1.9-1.7-.2.6-.4 1.2-.5 1.8-.1.6-.2 1.2-.2 1.8v2.3c.1-1.1.2-2.2.4-3.3.1-.7.3-1.3.6-1.9.3-.6.6-1.2 1-1.8-.2.7-.3 1.5-.4 2.2-.1.7-.3 1.5-.4 2.2-.4 2.3-.6 4.6-.9 7-.1.8-.2 1.6-.2 2.4-.1.8-.1 1.6-.2 2.3-.1.8-.1 1.5-.2 2.3.3-.7.5-1.4.6-2.2 0 .6.3 1.1.9 1.2.1 0 .2-.1.3-.1 0 .1 0 .2.1.4.1-.8.2-1.6.4-2.4s.3-1.6.5-2.4c.2-.8.3-1.6.5-2.4.2-.8.4-1.6.7-2.3.2-.6.4-1.2.7-1.8-.2.9-.4 1.7-.6 2.6-.1.6-.2 1.2-.4 1.8 0 .1 0 .2-.1.3.2-.8.4-1.6.6-2.3l.9-2.4c.3-.7 1.2-1 1.9-1.6-.5.7-1 1.4-1.5 2.2-.5.8-.9 1.6-1.2 2.4-.3.8-.6 1.7-.8 2.6-.2.9-.3 1.8-.3 2.7.2-.7.7-1.4.3-2.2.2.5.3 1 .8 1.4 0-.1 0-.3.1-.4-.1 1.1-.2 2.2-.4 3.3.4-1.6 1-3.1 1.7-4.5.3-.7.7-1.5 1.1-2.2.4-.7.8-1.3 1.3-1.9.5-.6 1-1.2 1.6-1.7 1.8-1.6 3.7-3.1 5.5-4.7-.1.2-.1.3-.2.5-1.5 1.5-3 3.1-4.6 4.5-.7.8-1.3 1.6-1.9 2.4-.6.8-1.1 1.7-1.5 2.6-3.1 5.4-2.8 11.4-2.7 17.3 0-3.4.4-6.8 1.2-10 1.3-1.4 2.4-2.8 3.5-4.3.4-.5.7-1.1 1-1.6.6-1.1 1.3-2.3 1.8-3.4l-.2.2c-.5 1.2-1.3 2.2-1.9 3.3-.4.5-.7 1-1.1 1.5-.3.5-.7 1-1.1 1.5l-1.2 1.5-.9 1.2c.8-3 2-6 3.7-8.6.5-.8 1-1.7 1.6-2.5.5-.7.9-1.4 1.5-2 .8-.9 1.6-1.7 2.4-2.5-1 3-2.2 5.9-3.6 8.8-.3.6-.6 1.3-.9 1.9-.4.6-.7 1.2-1 1.8-.4.7-.7 1.4-1 2.1-.3.7-.5 1.4-.8 2.2-.3.7-.5 1.5-.7 2.2-.2.5-.3 1-.5 1.5s-.3 1-.4 1.5c-.4 1.9-.7 3.7-1 5.6-.1.9-.3 1.9-.4 2.8-1.3 7.4-3.6 14.6-3.7 22.2 0 .8 0 1.7.1 2.5 0 .4-.1.7-.2 1.1.1-.4.1-.7.2-1.1.1-.9.1-1.7.2-2.6.9-8.6 3.8-16.9 8.2-24.4.4-.7.9-1.5 1.3-2.2.4-.6.8-1.2 1.2-1.9.7-1.2 1.4-2.5 2-3.8.3-.4.5-.9.8-1.3l-.3 1.2c-.2 1-.4 1.9-.7 2.9-3.5 8.5-5.8 17.4-7.4 26.5l-.6 3c-.2 1.1-.5 2.2-.7 3.3-.3 1.1-.5 2.2-.8 3.4-.3 1.1-.6 2.3-.8 3.4-.6 2.4-1.1 4.7-2 7 .1-.1.3-.4.3-.5.4-.9.7-1.8 1.1-2.7 1-3.1 1.8-6.2 2.6-9.3.3-1 .5-2.1.8-3.1.1-1.1.3-2.2.6-3.3.8-4.2 2.4-8.2 4.3-12 2.6-5 6-9 8.7-13.7l-.3.9c-3 9.6-6.9 18.8-10.2 28.3-.4.9-.7 1.9-1 2.8-.4.9-.8 1.9-1.1 2.8-1.2 2.8-2.4 5.6-3.8 8.3.1.1.3.1.3 0 .5-.8 1.2-1.4 1.6-2.3 1.5-3 2.6-5.9 4.2-8.7.3-.5.7-1.1 1-1.6 4.8-9.2 10.2-17.9 15.3-26.8l.9-1.8c.1-.3.3-.5.4-.8-.4 1.1-.8 2.3-1.1 3.5-.3 1-.6 2.1-.9 3.1-2.8 8-5.9 15.9-8.9 23.9-.4.8-.8 1.6-1.1 2.4-5.3 10.6.6.7-6.6 11.4.2.1.4.1.5 0 2-2.3 3.8-4.4 5.4-7 1.1-1.8 2.3-3.6 3.4-5.4.4-.6.7-1.2 1.1-1.8.5-.8.9-1.6 1.4-2.4 2.8-4.8 5.8-9.4 8.6-14.2.5-.8.9-1.6 1.4-2.4 1.2-2.1 2.2-4.2 3.3-6.3-3.8 9.7-6.4 19.9-10.6 29.5-1 2.2-1.9 5.8-3 9.1l-.3.6c-2.3 4.2-4.7 8.4-7.2 12.5-.7 1.2-1.3 2.2-1.4 2.3 0 .1.5-.8 1.1-1.8 2.5-4.1 4.9-8.3 7.2-12.5.1-.2.3-.5.4-.7-.3.7-.5 1.5-.8 2.2-.2.4-.4.8-.7 1.2-.5.9-1 1.7-1.5 2.6l-.1.1c-.7 1.3-1.4 2.5-2.2 3.8l-1.9 3.2c-.6 1.1-1.3 2.1-1.9 3.2-1 1.7-2.1 3.4-3.2 5.1V426v-.3c.7-1.2 1.1-1.9 1-1.7-.1.2-.5.8-1 1.6.1-1 .1-1.9.1-2.8 0-.5 0-1-.1-1.5 0-.5-.1-.9-.1-1.4-.1-.9-.2-1.9-.3-2.9H149.6l-.1.1c-.2.1-.5.3-.7.4-.4.3-.8.5-1.2.8-.4.3-.8.5-1.2.8-.4.3-.8.6-1.1.9-.8.7-1.5 1.5-2.2 2.5-.4.5-.7 1-1.1 1.6-.2.3-.3.6-.5.8-.1.1-.2.3-.2.4l-.2.4c-.4.7-.8 1.5-1.1 2.2l-.5 1.1-.6 1.1c-.4.7-.7 1.4-1.1 2-.2.3-.4.6-.6 1l-.2.2-.2.3-.1.1-.1.1-.1.2-.1.3c-.1.2-.2.4-.3.5 0-.4.1-.7.1-1 0-.3.2-.6.4-.8.2-1.3.5-3 .6-4.5v.1c.1-.8.4-1.4.4-2.1-.1 0-.1-.1-.1-.2.2-.1.1-1.2.1-2.4-.1-1.2-.2-2.3-.1-2.5v-.2c.1-.8.3-1.6.5-2.4.2-.8.3-1.6.2-2.3-.1-.3-.3-.6-.4-.9.1-.3-.1-.3-.1-.6.5-.8.3-1.2.1-.8-.1-.6-.1-1.3-.2-1.8-.1-.3-.1-.5-.2-.8-.1-.2 0-.3.1-.5-.1-.6 0-.4 0-1 .1-.1 0-.4-.2-.8s-.3-.7-.3-.8v.1c-.1-.7.2-1.2.1-1.9-.1-.9-.3-1.9-.6-2.8-.3-.9-.5-1.9-.8-2.7-.2 0 .2.4-.1.5-.3-1-.4-2.1-.7-3.1v-.6c0-.3-.2-.1-.2-.4l.2-.1c-.3-.3 0-.6-.2-.9-.1 0-.1-.1-.2-.2.2-.1-.2-.3 0-.4 0-.1-.1-.1-.1-.2l-.6-.6c-.3-.3-.6-.5-.7-.6v-.1c-.1-.2-.3-.2-.2-.1l-.1-.2-.1-.2s.1-.1.2-.1l-.3-.3c.1.4.1.9.1 1.3-.1-.1-.2-.4-.3-.6 0-.2-.1-.7-.1-1 0-.1-.3 0-.3-.2.1-.1-.1-.2-.1-.3.1.1.2.3.3.4.2-.1-.1-.4-.1-.5-.1 0-.2-.3-.3-.5.1 0 .1-.1.1-.2v-.2c0-.1-.1-.2-.2-.1 0 0-.1 0-.1.1 0 0-.1 0-.1-.1-.3-.2-.5-.3-.5-.3v.1h-.1s-.1 0-.1.1h.1c.1.2-.2.3-.4.3-.3 0-.6.1-.5.4.1-.4.3 0 .4.2-.1.1-.1.2 0 .4s.1.1.2.1c0 .1.1.3-.1.3.2.1 0 .2.1.4.1.1.1 0 .2 0 .1.2.2.5.3.7-.1.1-.2.4-.4.3-.1-.3.3 0 .1-.3-.2.3-.2-.2-.4-.2-.1.2 0 .4.2.5.1.1.3.4.3.6-.1 0-.1.1-.2 0l.1.2h.1c.1.1.1.2.1.3 0 0 .2.3.4.5l.4.4v.2c-.1-.1-.2-.3-.3-.5-.2-.3-.5-.6-.4-.5 0 .1.3.5.6.8.3.4.6.8.5.8.1.1.1.2.2.2 0 .2-.2 0-.2.2h.1l-.1.2c.3.2.2.7.6 1-.1-.1-.3-.1-.5-.3v-.1s-.1-.2-.2-.1c0 .2.1.4.3.5v.1c0 .1 0 .1-.1.1-.2.2.4.7.4 1.1l.1.1c0 .4 0 .7.1 1.1.2.1.2.1.3-.1l.1.3c-.4-.2-.1.6-.5.4 0 .1 0 .3.1.4.1 0 .2 0 .3.2v.5c-.1.1-.2 0-.2 0 .2.3-.1.4 0 .7.1.2.2.6.4.6.1.3-.1.3-.2.3v.2c-.2-.7-.3-1.5-.5-2.3-.1.9-.1 1.9 0 2.8.2.9.5 1.6 1.3 2.2-.3.1-.5.6-.6 1.1-.1.5-.1.9 0 .9.2.3.3.7.5 1 .4 1.1.6 2.3.7 3.5 0 1.2 0 2.5-.2 3.7-.1.7-.2 2-.3 3.3-.2 1.3-.4 2.6-.5 3.3 0 .2-.1.4-.1.6l.2-.7c.1.9.2 1.7.2 2.5.1-.1.2-.1.4-.4l-.1.4c.3.4.1 1.2.2 1.6-.1-.1-.2.2-.3.5l.1-.1c-.2 1-.3 2.2-.5 3.1 0 .1-.1.2-.2.3l-.1.9c-.2-.1-.3.6-.4.3.1.7-.2 1.3-.1 2-.5 2.2-1 4.6-1.4 7h.1c-.1.8.1 1.7-.4 2.6v.6c-.1.4-.3.8-.4 1.2v-.1l-.1-.2-.1-.4-.2-.7-.2-.7-.3-.9c-.9-2.7-1.9-5.5-2.9-8.2l-.7-2-.4-1-.4-1-.8-2-.4-1c-.1-.2-.2-.3-.2-.5l-.2-.5-.4-1-.2-.5-.2-.5-.8-2-.9-2c-.3-.7-.6-1.3-.8-2-1.1-2.7-2.3-5.3-3.5-8-.6-1.3-1.2-2.6-1.9-3.9-.3-.7-.7-1.3-1-2l-1-1.9-.5-1c-.1-.2-.2-.3-.3-.5l-.3-.5-.6-.9-.4-.7-.5-.7c-1.2-2-2.6-3.8-3.8-5.4-.6-.8-1.3-1.5-1.9-2.2-.6-.7-1.2-1.3-1.8-1.9-.6-.6-1.2-1.3-1.9-1.9l-1-1c-.4-.5-.5-.4-.8-.5.4 2.4.7 4.8 1.1 7.1l.6 3.3c-1.7-2.4-3.6-5.3-5.7-8.7-2.2-3.5-4.5-7.5-6.8-11.9s-4.5-9.2-6.3-14.3c-.9-2.5-1.7-5.2-2.4-7.8-.5-1.8-.8-3.7-1.1-5.6.1-.7.2-1.3.3-2h-.5v-.5l-1.7-20.7-2.5 20.7c0 .2 0 .3-.1.5h-.5c.1.7.1 1.4.2 2 0 .2-.1.4-.1.6l-.1.8-.3 1.5c-.1.3-.1.5-.2.8 0 .1 0 .1-.1.2v.1l-.1-.4c-.2-.8-.4-1.7-.5-2.5l-.1-.3-.2-1.2c-.2-.8-.3-1.7-.4-2.5-.3-1.7-.5-3.4-.7-5.1.2 2.1.5 4.1.9 6.2l.3 1.5.2 1.3.2.9-.1-.6-.1-.3-.2-1c-.3-1.5-.5-2.9-.7-4.4l-.6-4.2c-.1-.7-.1-1.4-.2-2 0-.7-.1-1.3 0-1.9l.9-16.2.2-2.8.1-2.1.1-.1h-.1l.1-1.8.3-5-3.7 3.5c-.4.4-.8.9-1.2 1.3l-.2-.1v.4c-.3.4-.6.8-.8 1.2-.2.2-.3.5-.4.8l-.2.3-.1.1c-.1.1-.1.3-.2.4-.3.6-.5 1.2-.6 1.8-.2.7-.4 1.4-.5 2.1-.1.4-.1.7-.2 1.1 0 .2 0 .4-.1.5v.2-.3c-.1-.8-.1-1.5-.1-2.3 0-.8 0-1.5.1-2.2 0-.4 0-.7.1-1.1v-.5l.1-1.4c.2-2.6.5-5.3.8-7.9.6-5.2 1.4-10.4 2.3-15.5l-.4 1.8c.4-2.4.8-4.3 1.2-6.3.2-1 .4-2.1.7-3.2.2-.7.5-1.4.7-2 .3-.8.6-1.5.9-2.3.3-.7-.3-1.4 0-2.1 0-.1 0-.2-.1-.4l.3-1.2c0-.2.1-.3.1-.5.3-1.4.7-2.9 1-4.4.1.9.4 1.8.4 2.7.2-1-.3-1.9-.3-2.9 0-.1.1-.3.1-.4.1-.6.2-1.2.4-1.8 0-.1.1-.2.1-.3l-.1.1c.2-1.1.4-2.2.5-3.4.1-1 .3-2.1.3-3.1v-.5c.2-.4.3-.8.5-1.2.1-.2.2-.4.4-.6v.6c0 .8.1 1.7.1 2.5 0-.8 0-1.6.1-2.4.1-.6.7-1.2.8-1.8v-.2-.1c.1-.2.1-.4.2-.6 0 .4-.1.7-.1 1.1-.1.6-.7 1.2-.8 1.9-.1.8-.1 1.7-.1 2.5v2.7c0-1 0-2.1.1-3.1 0-.2 0-.4.1-.6 0-.3 0-.6.1-1 .1-.9.8-1.8.9-2.7 0 .9-.6 1.8-.7 2.8v.1c.2-.6.5-1.2.5-1.7-.1.6-.3 1.3-.6 1.9-.1.9-.2 1.7-.2 2.6-.1.9-.1 1.9-.1 2.8-.1.2-.1.4-.1.6h-.1.1V266.8c.1 0 .2-.1.2-.1v-.4c0-.1.1-.1.1-.2 0 .2 0 .3.1.3 0 0 .1-.2.1-.5v.1-.1s0-.1.1-.1v0c.2-.3.4-.5.4-.8 0-.6.1-1.2.2-1.8 0-.7.1-1.4.1-2.1 0-.1-.1-.2-.1-.3-.2.5-.3.9-.4 1.4 0 .7-.1 1.5-.1 2.2 0 .1.1.2.2 0 0 .3-.1.7-.3 1 0-1 0-1.9.1-2.9 0-.4.1-.9.1-1.3v.9c.1-.4.2-.8.4-1.2 0-.2-.1-.4-.1-.6 0-.4.4-.9.7-1.3.2-.4.3-.9.4-1.3.1-.3.1-.6.2-.8.1-.3.1-.6.2-1 .3-1.1 0-1.4.3-2.4.1-.2.1-.3.2-.5 0 .2-.1.4-.1.7.1-.4.2-.7.4-1.1.5-1 1.1-2 1.8-2.9-.3.3-.7.6-1 .9 0-.1.1-.1.1-.2l-.1.1c.2-.3.7-.6 1-.9 1.3-1.6 2.8-3.2 3.6-5.1-.5.1-.5.7-.8.9.8-1.4 1.1-2.9 2.2-4.2-1.4.3-2.7.7-4.1.6l.1.1h-.6c-.6.1-1.2.2-1.8.2 0-.1.1-.1.1-.2-3.1-.6-1.8-2-4.4-3.7-.5-.3-1-.7-1.5-1.1-.6-.5-1.1-1.1-1.6-1.7-.4-.6-.8-1.3-1.1-1.9-.7-1.8-.6-3.8.9-5.6-1.6 1.8-3 4.6-1.2 6.7l-.5-.5v.1c-.3-.4-.5-.9-.7-1.3v-.6c0-.7.1-1.5.2-2.3.1-.3.1-.6.1-.9v-.2c0-.4.1-.8.1-1.2.3.6.5 1.2.2 1.8.5-.8.2-1.5-.2-2.1v-.4-.4c.3.1.5.3.5.4 0-.2-.1-.3-.5-.5v-1.3h.4c.1 0 .2-.1.2-.1.1 0 .2-.1.3-.1l-.6-3c.1 0 .2-.1.2-.1.1 0 .1-.1.2-.1.1-.1.3-.2.4-.3.2-.1.3-.3.5-.4.1 0 .2 0 .4-.1.1 0 .2-.1.4-.1 0 0 .1 0 .1-.1 0 0 .1 0 .1-.1l.1.1c.3.1.5 0 .8-.1h.1l.2.2c.7 0 1.5-.3 2.2-.3h.2c.6.1 1.1.2 1.7.3.5.1 1.1.1 1.6.2.2 0 .4 0 .6.1h1c.2 0 .4.1.6.1h-.1l-.9-.3H79l-.4-.1c-.4-.1-.7-.2-1.1-.2.2 0 .4-.1.6-.2.2.1.4.1.5.2h.1c.1.1.2.1.3 0h.1c.1 0 .2.1.3.1h.2c.2.1.4.2.6.2.4.2.8.3 1.3.5h.1c.1 0 .2.1.3.1h-.1c-.1 0-.2-.1-.4-.1 0 0 0-.1-.1-.1-.4-.2-.8-.4-1.2-.5-.2-.1-.4-.2-.6-.2l-.1-.1h-.1l-.3-.1c.1 0 .2 0 .3.1H79.6c.2.1.4.1.6.2.5.2 1.1.4 1.6.6h.1c-.5-.3-1.1-.5-1.6-.7-.3-.1-.5-.2-.8-.3-.2-.1-.5-.1-.7-.2h1c.5.2.9.4 1.4.7.5.3 1 .5 1.5.8h.1s0-.1-.1-.1c-.5-.4-1.1-.7-1.6-1.1h.1l.1.1c.4.2.7.4 1.1.6.1.1.3.1.3 0s0-.2-.2-.3h.1l-.3-.1c-.3-.2-.7-.4-1-.6.1 0 .2 0 .3.1.3.2.6.3.9.5h.1c.4.2.8.5 1.2.7h.1v-.1c-.7-.4-1.3-.8-2-1.2h-.1c.1.1.2.1.3.2h.1s0-.1-.1-.1h.2s.1 0 0 0h-.1c-.1 0-.2 0-.3-.1l-.2-.1c.1 0 .2 0 .2-.1H82v-.1c.1 0 .1 0 .2.1.4.2.8.3 1.1.5-.1-.1-.3-.1-.4-.2.1 0 .2.1.3.1 1.6.7 2.3 2 3.9 2.7h.4l2.5 1.7c.8.6 1.7 1.1 2.5 1.7.3.2.6.4.8.6l.6.6c.1.1.2.2.2.3.1.1.2.3.3.4.2.3.4.7.6 1 .2.3.4.6.7.9.1.2.2.3.4.4l.3.4c.2.3.5.6.7.8l.2.2.1.2.2.2c.2.2.4.4.7.6.4.3.8.4 1.2.3.2 0 .4-.1.6-.2.2-.1.3-.2.4-.4.3-.3.5-.6.6-1v-.2l.1-.2.2-.4s0 .1-.1.1l-.3.6c-.2.3-.3.5-.5.8-.2.2-.4.4-.7.6-.1.1-.3.1-.4.1H99c-.3-.1-.5-.2-.8-.4-.2-.2-.5-.4-.7-.7l-.1-.1-.1-.1-.2-.3c-.1-.2-.3-.4-.4-.5-.1-.2-.2-.3-.4-.5v-.1l-.3-.5.1.2.2.2v-.1c.3.4.6.7.9 1.1l.3.3c.1.1.2.2.2.3.1.1.2.3.4.4.3.3.5.5.9.7.1 0 .1 0 .2.1.2.1.5 0 .6 0h.1c.4-.1.7-.4.9-.7.1-.2.2-.3.4-.5l.1-.1.1-.1.1-.2c.3-.5.6-1 .8-1.5v-.1-.1c.1-.1.1-.3.2-.4 0 0 0-.1 0 0l-.1.1c-.1.1-.2.3-.2.4l-.1.1-.9 1.5c-.1.2-.3.6-.6.9-.1.2-.2.3-.4.4-.1.1-.3.2-.5.3.2-.1.3-.2.5-.3l.4-.4c.1-.2.2-.3.3-.5l.1-.1.1-.1.1-.2c.4-.7.7-1.3 1.1-1.9v-.1l-.1.1c-.4.7-.7 1.3-1.1 2l-.1.2c-.1.1-.1.2-.2.3-.1.2-.3.4-.4.6-.2.2-.3.3-.6.4-.1 0-.2.1-.4.1-.1 0-.2 0-.4-.1-.1 0-.1-.1-.2-.1.1.1.3.1.4.1.1 0 .3 0 .4-.1.3-.1.5-.3.6-.6.1-.2.3-.3.4-.5l.1-.1.1-.1.1-.2.6-1c.4-.6.8-1.3 1.2-1.9 0-.1.1-.1.1-.1s-.1 0-.1.1c-.5.7-1 1.3-1.4 2.1l.1-.2.1-.2c.3-.5.6-.9.9-1.4.1-.2.2-.3.2-.4 0 0-.1.1-.3.2v-.1s0-.1 0 0l-.1.1-.2.3c-.3.4-.6.9-.8 1.3l-.4.7-.2.3-.2.3.2-.3.2-.4.4-.7c.3-.5.6-1 .9-1.4 0 0 0-.1.1-.1.3-.5.7-1 1.1-1.5v-.1h-.1c-.6.8-1.2 1.6-1.7 2.5-.3.4-.5.9-.8 1.3l-.2.3-.2.3c-.1.2-.2.4-.4.6l-.2.2h-.2l.3-.3c.1-.1.2-.2.3-.4.1-.2.3-.5.5-.8l.9-1.5c0-.1.1-.1.1-.1s-.1 0-.1.1l-.2.4c0-.1.1-.2 0-.2 0 0-.1 0-.2.1.3-.5.6-1.1 1-1.6 0 0 0-.1 0 0l-.1.1c-.5.7-1 1.5-1.4 2.2l-.6.8-.1.1v.1l-.1.1c-.1.1-.1.2-.2.2-.1.1-.2.2-.4.2-.1 0-.3-.1-.4-.2l-.3-.3-.1-.1-.1-.1-.2-.3-.6-.9h.1c.2.3.4.5.6.8.1.1.2.3.3.4l.2.2.1.1.2.2c.1.1.2.1.3.1.1 0 .2 0 .3-.1l.2-.2c.1-.1.1-.2.2-.2l.2-.4c.4-.6.7-1.2 1.1-1.9l1.2-1.8c.1-.2.2-.3.1-.3 0 0-.2.1-.3.3-.4.6-.8 1.1-1.2 1.7-.4.6-.7 1.2-1 1.8l-.2.3-.1.1v.1c0 .1-.1.2-.2.3-.1.1-.1.2-.2.2s-.2 0-.3-.1l-.3-.3-.1-.1-.1-.2-.3-.3c-.3-.4-.7-.9-1-1.3-.1-.1-.1-.2-.2-.3l-.2-.3c-.2-.4-.4-.7-.6-1.1l-.3-.6c-.1-.2-.2-.4-.4-.6.2.2.3.5.5.7.1.2.3.5.4.7.3.4.5.8.8 1.2 0 .1.1.1.1.1s0-.1-.1-.1c-.2-.3-.4-.6-.6-.8-.2-.3-.3-.6-.5-.9-.2-.3-.4-.7-.7-1l-.9-.9c-.1-.2-.3-.4-.6-.7-.3-.3-.6-.5-.9-.7-.2-.2-.4-.3-.7-.4l.3.2c-.3-.2-.5-.3-.8-.5-.5-1.4-.5-3-.7-4.5-.2-1.3-.2-2.5.3-3.9.1-.6.6-1.9 1.2-3.2.1-.7.3-1.4.5-2.1.2-1.4.5-2.8.9-4.1v-.5H94c-.1 0-.1.1-.1.1-.7 1.6-3.4 6.3-4.2 8l-.3.6-.1.1c-.1.2-.3.3-.4.5l.1-.2c.1-.1 0-.2-.2-.2-.1 0-.1 0-.2.1 0-.4 0-.8.1-1.3.1-.1.1-.2 0-.3.4-.5 3-4.2 3.5-4.7l.1-.1c.2-.2.2-.3 0-.4h-.1c.5-1.1 1.3-2.3 1.7-3.4 0-.1 0-.1-.1-.1 0 0 .1 0 .1-.1s.1-.3.2-.4c0 0 0-.1-.1 0-.1 0-.1.1-.1.1-.1.2-.2.3-.2.5-.1 0-.1.1-.2.1-.9 1.1-3.5 5.4-4.3 6.6.1-.5 2.5-4.3 2.8-4.9.4-.7.6-1.4 1.2-2.1v-.1s-.1 0-.1.1c-.6.8-3.1 4.7-3.4 5.4-.3.7-.6 1.4-1.2 2.2 0 .1-.1.1-.1.2-.1-.5-.1-.9-.1-1.4 1-1.4 4.2-6.1 5.4-7.5.1-.1.1-.1 0-.1s-.2.1-.3.1c-1 .8-4.1 4.8-4.9 5.7v-.2l.1-.2c.5-.5 3.1-4.2 3.6-4.8.2-.2.2-.4-.1-.4-.2 0-2.8 3.3-3 3.5l.1-.1s0-.1-.1 0c-.1 0-.1.1-.1.1l-.2.3c-1.1 1-2 2.1-2.8 3.1.6-1.1 1.4-2.2 2.5-3.3h.1c.1 0 .1-.1.1-.1h-.1c.6-.6 3.4-4.4 4.1-5v-.1s-.1 0-.2.1c-1.5 1.2-3.4 3.6-4.9 5.8h-.1c-.1 0-.3.1-.3.2l-.4.4c0-.1-.1-.2-.3-.2-.2 0-.4.1-.7.2.4-.6.8-1.3 1.2-1.9 0 0 0-.1-.1 0-.1 0-.1.1-.1.1-.8.9-1.5 1.8-2.2 2.7-.6.5-1.2.9-1.7 1.4.2-.3.4-.6.6-.8.4-.8.8-1.7 1.2-2.5.4-.5.8-1 1.3-1.5.2-.2.1-.3-.1-.3h-.2c.1-.1.1-.2.2-.3 0-.1.1-.1.1-.2 0 0 0-.1.1-.2.1-.3.2-.5.4-.7.2-.6 1.6-.6 1.9-1.2.4-1.3-.9-.7-.5-1.9.3-.8 2.6-2 2.6-2s-.7 1.4-.9 2.2c-.2.6-.4 1.3-.5 1.9 0 .2 0 .3-.1.5l-.3.9c-.1.4-.3.8-.4 1.3.5-.7 1.1-1.4 1.6-2 .3-.3.5-.6.8-.9.8-1 1.5-2.1 2.3-3.2.9-1.3 1.8-2.5 2.7-3.7.4-.6.7-1.2 1.1-1.8.6-.9 1.1-1.9 1.7-2.8.7-1.2 3.2-4.3 3.9-5.5-.3.3-.6.5-.8.8-.1 0-.1.1-.2.1l-.4.1.3-.2h-.1c.3-.3.6-.7.9-1 .2-.2.5-.4.8-.6v-.1c.4-.6.8-1.3 1.3-1.9l.1-.1c.1-.1.1-.2.2-.2v-.1c.2-.2.4-.5.6-.7l.2-.2.2-.2.2-.2.4-.4v-.1H104.4v.1h.1v.1h-.1v.2c-.4.4-.8.7-1.3 1 0 0-.1-.1-.2-.1h-.1c.1-.1.2-.1.2-.2l.1-.7v-.2c-1.4 0 0 .1-1.4 0-2.4.1-2.5.3-4.9.5-.1 0-3.4.7-3.5.7-.3.1-.8.2-1.3.4-1.4.3-2.7.8-4.2 1.5-1.4.6-2.6 1.1-3.9 1.8-.1 0-.1.1-.2.1-.2-.1-.3-.2-.6-.3.1-.1.2-.2.2-.3.2-.1.4-.1.5-.2.1 0 .1-.1.1-.1s-.1-.1-.1 0c-.1 0-.2.1-.4.1l.1-.2c.2-.3.4-.7.4-1.2l.1-.5v-.3c.2.6.6.9.9.8.6-.2 1-1.5.9-2.9 0-3.8-.2-7.4-.6-11.1-.3-2.8-.6-5.3-.8-8.1-.4-2.6-.9-5.1-1.4-7.7-.5-2.1-1.3-3.7-2-5.6 0-.1-.1-.1-.1 0v.2c.7 3 1.3 6 1.6 9.3 0 .4.1.7.1 1.1v1.1-.3c0-.2-.1-.4-.2-.4 0 0-.1 0-.1.1-.2-.8-.3-1.7-.5-2.5 0-.2-.1-.5-.1-.7v-3.1c0-.3-.1-.6-.2-.8l-.1-.1c-.4-2.2-.7-4.4-1.4-6.4 0-.1-.1-.2-.1-.1v-.1c-.1-.2-.2-.5-.3-.8 0-.1-.1-.1-.1-.1v.2c.1.3.2.6.3.8v.3c.4 2.1.9 4.1 1.1 6.3-.3-1-.5-2.1-.7-3.2-.3-1.3-.7-2.6-.9-3.9 0-.1 0-.1-.1-.1v.1c.3 1.4.6 2.7.9 4 .3 1.3.6 2.6.7 4.1v.3c-.3-.9-.6-1.7-.9-2.6-.2-1.3-.3-2.6-.6-4-.1-.7-.2-1.3-.4-2-.1-.6-.3-1.3-.5-1.9 0-.1-.1-.2-.2-.2v.2c.1.8.2 1.5.3 2.2.1.7.1 1.5.2 2.2l-.1-.3-.1-.3c-.1-1-.3-1.9-.5-2.8 0-.3-.2-.5-.3-.6v-.1c.1-.2.1-.4.2-.5v-.1c0 .1-.1.2-.1.3 0 .1-.1.2-.1.3v.1c-.1 0-.2.3-.2.6l-.1-.2c0-.1-.1-.1-.1-.1v.1l.2.6.6 5.4-.5-2.9c-.2-1-.3-2-.5-2.9h.1v-.2h-.1c-.1-.3-.1-.5-.2-.7 0-.1-.1-.2-.1-.3 0-.1-.1-.2-.1-.2h-.1s0 .1.1.2c.1.2.1.4.2.6l.3 1.2c.1.4.2.9.2 1.3.3 1.7.6 3.5.9 5.2l.1.6c-.1.1-.2.2-.3.4-.1-1.2-.3-2.4-.5-3.6l-.3-3c0-.1-.1-.3-.2-.2-.1 0-.1.1-.1.3l.1.7c-.1-.2-.2-.3-.4-.3-.1 0-.2.1-.3.3-.1-.5-.3-1-.4-1.5-.1-.2-.2-.5-.2-.7l-.3-.6h-.1v.1c.1.2.2.6.3.9.1.3.2.7.2 1.1.2.7.3 1.5.4 2.2 0 1.2-.1 2.4 0 3.7.1 1.9.4 3.7.6 5.5v1.9c-.1-.1-.1-.1-.2-.1h-.1l-.1-1.7c-.1-2.7-.4-5.2-.8-7.7-.2-1.2-.4-2.5-.7-3.6-.1-.3-.1-.6-.2-.8-.1-.3-.2-.5-.2-.7 0-.1-.1-.2-.1-.3v-.1c-.1 0-.1 0-.2.1l-.4.1v.1c0 .1.1.1.1.2.1.2.1.4.2.7.1.2.1.5.2.8.2 1.1.5 2.2.7 3.4.3 1.7.6 3.2.8 5 .3 2 .4 4 .5 6v.6l.1.6c.1 1.6 0 3.1 0 4.7-.2-1.8-.4-3.7-.6-5.5 0-.1-.1-.2-.1-.2-.1 0-.1.1-.1.3.3 2.5.4 5.1.6 7.6-.5.7-.7 2.2-.7 3.5 0 .5.1.9.2 1.4v-.6c0 .6.2 1.1.3 1.7v.1c-.3-.1-.5-.2-.8-.3.3.1.5.2.8.3 0 .1 0 .2-.1.3-.6-.3-1.1-.6-1.7-.9-1.1-.6-2.2-1.1-3.3-1.7 1.4.7 2.8 1.3 4.3 2-1.4-.6-2.8-1.3-4.3-2-.2-.5-1.1-1.3-2.4-2.4-1.4-1.1-3.3-2.4-5.3-3.8-5.2-3.7-9.9-7.9-14-12.7-4.1-4.7-7.6-10-10.6-15.8-.6-1.3-1.2-2.6-1.8-3.8.4-3 1.1-5.9 1.8-8.8 1-3.7 2.2-7.4 3.6-11.1l3.2-8.6c1-2.7 2-5.4 3.3-8.1.1-.2 0-.2 0-.1-.1.1-.2.3-.3.5-2.2 4.3-4.2 8.6-6.1 13-1.9 4.4-3.6 9-5.2 13.7-.3 1.1-.7 2.1-1 3.2 0 .1-.1.2-.1.4-.2.7-.5 1.5-.7 2.2v-.1l.1-.3c.2-.7.2-1.3.1-1.4-.1 0-.1.1-.2.2.5-2.5 1.1-5 1.8-7.5.2-.7.5-1.4.6-2 1.2-2.7 2.5-5.4 3.8-8.1l.4-.6c.5-.9.8-1.8.9-2.3v-.3c2.8-6.2 6.3-12.4 9.4-18.1.2-.3.2-.5.1-.5.1-.1.2-.2.2-.4.3-.7.8-1.5 1.2-2.3.1-.2.1-.3 0-.2-.1.1-.2.2-.3.4-.5.8-.9 1.6-1.3 2.4 0 .1-.1.1 0 .2-.1.1-.3.4-.5.6-1.8 2.9-3.4 5.8-5 8.7-1.6 2.9-3.1 5.9-4.6 8.9 1.3-3.1 2.8-6.1 4.4-9.3 2-3.8 3.9-7.4 6.2-11.1.1-.2.2-.3.1-.3 0 0-.2.1-.3.3-2.4 3.8-4.4 7.5-6.3 11.3-1.9 3.8-3.7 7.6-5.7 11.8l-.5 1c.9-2.7 1.9-5.4 2.9-8 4-7.6 8.4-14.8 13-21.9.2-.3.4-.6.3-.7-.1 0-.3.2-.6.5-2.9 3.8-5.7 7.8-8.3 11.8l.4-.9.5-.9 5.1-7.8c.7-1 1.1-1.8.9-2-.2-.1-.8.5-1.5 1.4l.3-.5c.1-.2.1-.3.1-.3-.1 0-.2.2-.3.4-.3.6-.7 1.1-1 1.7-3.4 4.9-6.6 9.9-9.5 15.1 2.9-5.7 6.3-11.3 10-16.7-.1.1 0 .2.1 0 .1-.1.3-.3.3-.5.1-.1 0-.2-.1-.1 2-2.9 4.1-5.8 6.2-8.6.1-.2.2-.3.2-.3s-.2.1-.3.3c-3.6 4.6-6.9 9.4-10 14.4-3.1 4.9-5.9 10-8.3 15.1l-.9 1.7c-.2.1-.6.4-.9.8 1.8-3.6 3.7-7.2 5.7-10.7 1.7-2.9 3.6-5.7 5.4-8.5.3-.4.4-.8.4-.8-.1-.1-.4.2-.6.6-.5.7-.9 1.4-1.4 2.1.3-.6.4-1.1.2-1.2-.1-.1-.5.1-.9.5 1.9-3.1 3.7-6.2 5.6-9.3.1-.2.1-.3.1-.3-.1 0-.2.2-.3.4-2.9 4.2-5.6 8.5-8.2 12.9-2.3 3.3-4.5 6.6-6.7 10.4-2.6 4.6-4.6 9.2-6.3 13.9 0-.2-.1-.5-.1-.7 1.2-2.9 2.4-5.7 3.7-8.4 1.9-3.9 3.8-7.7 5.9-11.5 4.1-7.4 8.5-14.6 13.3-21.6.6-.9.9-1.6.7-1.6-.2 0-1 .7-1.6 1.6-2.4 3.3-4.6 6.5-6.7 9.8C46 84 44 87.4 42 91c-1.4 2.6-2.7 5.1-3.9 7.5-1.2 2.5-2.4 5-3.6 7.8-.7 1.6-1.3 3.1-2 4.7-.1-.5-.1-1-.2-1.5.6-1.4 1.3-2.9 2-4.3.1-.2.2-.4.1-.4 0 0-.1.1-.2.3-.7 1.4-1.3 2.7-1.9 4.1 0-.2-.1-.5-.1-.7-.6-4.6-1-9.2-1-13.8-.1-4.6.1-9.2.4-13.8.3-3.9.6-7.4.9-10.7.3-3.4.7-6.6 1.3-10.1 0-.2 0-.2-.1-.1-.1.2-.1.4-.2.6-1.1 5.5-2 11-2.7 16.6-.7 5.6-1.1 11.3-1.2 17.2v8.1l-.1-1.2c0-.8-.1-1.5-.3-1.6-.1 0-.1.1-.1.3-.2-3.1-.3-6.1-.3-9.1 0-.9.1-1.7 0-2.4.4-3.5.8-6.9 1.4-10.4l.2-.9c.2-1.1.3-2.2.3-2.8 0-.2 0-.3-.1-.4.6-4 1.3-7.9 2.1-11.9.8-3.9 1.7-7.8 2.6-11.5.1-.4.1-.6 0-.5.1-.1.1-.3.2-.5.2-.9.4-1.9.7-2.9.1-.2.1-.4 0-.3-.1.1-.2.3-.2.5-.3 1.1-.6 2.1-.8 3.1v.2c-.1.2-.2.5-.3.9-1.1 3.8-2 7.6-2.8 11.4-.8 3.8-1.5 7.6-2.2 11.5.5-3.9 1.1-7.8 2-11.9 1-5 2-9.5 3.5-14.4.1-.3.1-.4.1-.4s-.1.2-.2.5c-1.5 5-2.6 9.8-3.6 14.7-.9 4.9-1.8 9.8-2.6 15.1l-.2 1.2c.2-3.3.5-6.6.8-9.8 1.9-9.8 4.5-19.4 7.6-28.7.2-.5.2-.8.2-.8-.1 0-.3.4-.4.8-2 5.2-3.8 10.5-5.4 15.9l.2-1.2.3-1.1c1-3.5 2.1-6.9 3.2-10.4.4-1.3.7-2.4.5-2.5-.2-.1-.7.8-1.1 2.1l.2-.6c.1-.2.1-.4 0-.3-.1.1-.2.3-.2.5-.2.7-.4 1.5-.6 2.2-2.3 6.5-4.2 13.2-5.7 20 1.4-7.3 3.4-14.7 5.8-21.9 0 .2 0 .2.1 0 .1-.1.2-.5.2-.6 0-.2 0-.2-.1 0 1.3-3.9 2.7-7.7 4.3-11.5.1-.2.1-.4.1-.4l-.2.4C36.4 37 34.1 43.5 32.2 50c-1.9 6.5-3.4 13-4.5 19.5-.1.7-.3 1.4-.4 2.1-.2.2-.4.6-.6 1.3.8-4.6 1.7-9.2 2.8-13.8 1-3.8 2.1-7.5 3.3-11.2.2-.5.3-1 .2-1-.1 0-.3.4-.5.9l-.9 2.7c.1-.8.1-1.3 0-1.4-.1-.1-.3.3-.6.9 1.1-4.1 2.3-8.1 3.5-12.1.1-.2.1-.4 0-.3-.1.1-.2.3-.2.5-1.9 5.6-3.6 11.3-5.1 17-1.4 4.4-2.7 8.9-3.8 13.8-1.6 7.2-2.3 14.2-2.5 21.1-.2 2.5-.3 5-.3 7.5-.1-.3-.2-.6-.3-.6l-.1.1c0-2.2.1-4.4.2-6.6.3-5.2.9-10.2 1.6-15.2.7-5 1.7-9.9 2.8-14.7 2.2-9.6 4.9-19 8.2-28.3.4-1.2.6-2.1.4-2-.2.1-.8 1.1-1.2 2.3-1.7 4.4-3.1 8.7-4.4 13.1-1.3 4.4-2.4 8.8-3.5 13.5-.7 3.3-1.4 6.5-1.9 9.7-.5 3.2-1 6.4-1.4 9.8-.5 4-.8 7.9-1 11.7-.2 3.9-.3 7.7-.1 11.7 0 .8 0 1.6.1 2.4.1.8.1 1.6.2 2.4.1 2 .3 3.9.6 5.9-.2-.6-.5-1.2-.7-1.8-.3-2.4-.6-4.9-.8-7.3 0-.5-.1-.9-.2-.8-.1.1-.1.6-.1 1.1.1 1.8.3 3.7.5 5.5-.1-.4-.3-.8-.4-1.2-.3-1.5-.6-3.3-.9-4.9-.3-1.6-.5-3.1-.8-3.9-1.7-4.5-3-9.4-3.7-14.6-.7-5.2-.7-10.8 0-16.6.9-5.1 2-10.4 3.5-15.6 1.5-5.2 3.3-10.4 5.4-15.4 4.3-9.9 10-18.7 16.7-24.7-1.6 1.1-3.4 3-5 5-1.7 2-3.4 4-4.9 5.1l.1-1.3c-1 .3-2.7 2.5-3.7 3.6 0-.6.5-1.1.9-1.5l-.9.8c.6-1.2 1.4-2.6 2.4-4 .9-1.4 1.9-2.9 2.8-4.2 1.7-2.6 2.9-4.6 1.6-4.8-1.2-.1-3.1 1.8-5.1 4.5-2 2.7-4.2 6.2-6.1 9.1.7-3 2.2-5.8 3.8-8.6 1.7-2.8 3.5-5.5 4.9-8.2-1.1 1-2.2 1.3-3.4 3-1.6 2.1-3.1 4.3-4.6 6.5-1.3 2.3-2 4.6-4.1 6.2l-.4.6c-.1.5-.1 1-.3 1.4-.5.9-1 1.4-1.4 1.9-.4.6-.7 1.2-1 2.3-.1 0-.2-.2-.2-.3-.1.7-.8 1.6-.9 2.5-.2-.1-.5-.1-.7-.1-2.5 4.6-4.8 9.3-6.7 14.3-.6 1.5-1.1 3-1.6 4.5-.4 1.3-.7 2.6-1.2 4-.2.7.2 1.4.2 1.8-.8 1.7-1.6 3.4-2.2 5.5.1.4-.1 1.1 0 1.8-.3.4-.5.7-.8 1.2-.6 2.7-1 5.4-1.4 8h.1c-.1 1.3-.3 2.8-.5 4.3S.6 80.5.6 82c-.1 1.3-.1 2.6 0 3.8-.4 1.2-.5 2.3-.6 3.4.2-.1.5-.2.7-.2-.1-.4-.2-.8-.2-1.2.1.7.3 1.4.6 1.9-.5 1-.8 2.2-.9 3.5.1 3.1.3 6.3.7 9.5.2.2.4 0 .6-.1 0 1.4-.1 2.8 0 4.3.4 2.5.8 5.1 1.4 7.6.3.6.6 1.1.9 1.7-.2.4-.2.9-.2 1.4.2 1 .5 1.9.7 2.9.4 1.3.9 3.1 1.8 5.1.8 2 1.9 4.3 3 6.5.3.3.6.5.6.6l1.9 3.7c1.2 2 2.5 3.8 3.6 5.4 1.2 1.6 2.2 2.9 3 3.8 1.1 1 .8-.7.5-2.6-.2-1-.3-2-.4-2.7-.1-.8 0-1.3.2-1.3 2 .5 3.5 2 5.2 4 .2.3.5.6.7.8.1 3.4.6 6.9 1.4 10.2 0 1.1.1 2.6.5 4.3h-.2c.1.1.1.2.2.2.1.4.2.8.3 1.1.3 1.1.7 2.3 1.2 3.5.5 1.2 1.1 2.3 1.7 3.4.9 1.6 1.9 3 3.1 4.3-.5-.7-.9-1.3-1.3-2 1.3 1.9 2.7 3.4 4.2 4.7.1.1.2.3.3.4 1.4 1.8 3.1 3.6 5 5.2l.3.3c-.3-.1-.6-.1-1-.2-3.1-.5-6.2-1.1-9.1-1.8-.7-.2-1.5-.3-2.2-.5l-1.1-.3c-.4-.1-.7-.2-1.1-.3-1.4-.3-2.8-.6-4.1-.7-.7-.1-1.3-.1-2-.1s-1.4 0-2.1.1c-.4.1-.8.2-1.1.3-.2.1-.4.1-.6.2-.1 0-.2.1-.3.2-.1.1-.2.1-.3.2-.4.3-.8.6-1.1 1-.3.4-.5.8-.7 1.3-.1.3-.1.5-.2.8v.8c0 .5 0 1 .1 1.4.2.9.5 1.8.8 2.7.7 1.7 1.6 3.5 2.7 5.3l1.8 3c.1.4.4.9.8 1.3.3.4.5.9.8 1.3.6 1 1.2 2 1.7 3 .1.1.1.2.2.3l.2.2c.1.1.2.3.3.4.2.3.4.5.6.8.4.5.8 1 1.3 1.5 2.5 2.8 5.2 5.3 8.2 7.5 1.9 1.4 3.8 2.6 5.9 3.8-2.6-1.4-4.8-2.8-6.6-4.2-1.8-1.3-3.2-2.5-4.3-3.4-1.1-.9-1.8-1.6-2.1-1.9-.4-.3-.4-.3-.1.1.3.4.9 1 1.7 1.8.8.8 1.9 1.8 3.2 2.9 1.3 1.1 2.9 2.3 4.8 3.6 1.9 1.2 4.1 2.5 6.5 3.6 2.4 1.1 5.1 2.2 8.1 3 1.5.4 3 .8 4.6 1.1.8.2 1.6.3 2.4.4l.6.1h.6c.3.1.7.1 1 .2.6.1 1.2.3 1.7.5.2.1.4.2.5.3.1.1.2.2.2.3.1.1.1.2.1.3v.2c-.2.6-.2 1.4.1 2.3v.2c-.1.8-.2 1.6-.3 2.5-.1.9-.2 1.8-.2 2.8 0 1 0 1.9.1 2.9v.7c0 .2.1.5.1.7.1.5.2.9.2 1.4.5 2.6 1.2 5.1 1.9 7.5.4 1.2.7 2.4 1.1 3.6.4 1.2.7 2.3 1 3.4.3 1.1.5 2.2.6 3.2v3.4c0 1.2-.1 2.3-.2 3.5-.1 1.1-.3 2.3-.5 3.5-.4 2.3-.9 4.7-1.4 7.1-.3 1.2-.6 2.4-.8 3.5-.3 1.2-.6 2.4-.8 3.7-1.1 4.9-1.9 9.8-2.7 14.6-.8 4.9-1.4 9.8-1.9 14.7-.1 1.2-.3 2.5-.4 3.7l-.2 1.8-.1 1.5-.1 1.8c-.4 4.8-.5 9.5-.5 13.5 0 2 .1 3.8.2 5.3.1.8.1 1.5.2 2.2l.2 2 1 8.8v.4-.2-.1s0 .2.1.7l.1 1 .2 1.9.4 3.6.9 7.7 1.6-16.8.5-5.5.2-2.3.1-1 .1-.9v-.8l.1-.7c.1-.4.1-.8.2-1.2.1-.8.2-1.4.3-2 .2-1.2.4-2.2.6-3.2.1-.5.2-.9.3-1.3 0-.1.1-.3.1-.4l-.2 2.8-.2 3.1-.1 1.5v1.8c0 1.1.1 2.2.2 3.3.1 1.1.3 2.1.4 3.2.3 2.1.7 4.1 1 6.2l.2 1.1.9 1.5c.2 1 .4 2 .6 2.9.4 1.9.8 3.9 1.2 5.7.2.9.4 1.9.6 2.8l.6 2.7 1.3 5.4.5-1.1.2-.5.1-.1s0-.1.1-.1l.2-.4 1.1-2.5 1-2.4c.2-.4.4-.8.5-1.3.2-.5.3-1.1.5-1.7.1-.3.2-.7.3-1 .7 2.3 1.6 4.5 2.5 6.7 1.9 4.6 4.1 9 6.4 13.3 2.3 4.3 4.9 8.4 7.5 12.4 1.3 2 2.7 4 4.1 5.9.7 1 1.4 1.9 2.2 2.9.4.5.7 1 1.1 1.4.4.5.8.9 1.2 1.4.2.2.4.5.7.8l.2.2c.1.1.2.2.4.3.1 0 .1.1.2.1H102.6s.1 0 .1.1c0 0 .1 0 .2.1.1 0 .1 0 .2.1.1 0 .2.1.3.1.1 0 .4.1.6.1.3 0 .7-.1 1.1-.3.5-.2.8-.6 1-.9.3-.4.3-.6.4-.9.1-.3 0-.3.1-.5v-.3-.2c0-.1 0-.2-.1-.3v-.1c0-.1 0-.1-.1-.2 0-.1-.1-.2-.1-.3-.1-.2-.1-.5-.1-.7 0-.1 0 0 .1 0 0 0 .1.1.1.2l.3.3c.1.1.2.2.3.4l.1.1.5.9.3.5c.1.1.2.3.3.4l.5.9 1 1.9c.3.6.7 1.2 1 1.9.6 1.3 1.2 2.5 1.8 3.8 1.2 2.6 2.3 5.2 3.4 7.8.3.7.6 1.3.9 2l.9 2 .8 2 .2.5.2.5.4 1c.2.3.3.6.4 1l.4 1 .8 2 .4 1c0 .1.1.1.1.2l.1.2.2.5.7 2c1 2.7 1.9 5.4 2.8 8.1l.5 1.6.6 1.9 1.2 3.9 1.2 4.1.6 2 .3 1 .2.5.1.3V459.3l2.8-8.3c.5-1.4.9-2.7 1.4-4 .2-.6.5-1.3.7-1.9l.3-.9.2-.5c1.1-2.6 2.3-5.2 3.6-7.7l.5-.9.3-.5.2-.4v-.1l.2-.3c.1-.2.2-.3.3-.5.2-.3.4-.7.6-1 .4-.7.8-1.4 1.1-2l.5-1 .5-1c.3-.7.7-1.3 1-1.9l.2-.4.1-.1c.1-.2.2-.3.4-.5l.2-.2s.1 0 .1-.1V426.5l-.1.2c-.2.6-.4 1.3-.6 1.9l-.3.9-.1.2-.1.3c-.1.2-.1.3-.1.4l-.1.3c-.5 1.4-.9 2.7-1.4 4l-5.9 16.9 10.2-14.7c.8-1.2 1.6-2.3 2.4-3.5l.6-.9.6-.9 1.1-1.8c1.5-2.4 3-4.8 4.4-7.2.7-1.2 1.4-2.4 2.2-3.6l2.1-3.6c1.4-2.4 2.8-4.9 4.1-7.3 1.4-2.4 2.7-4.9 4-7.4 1.3-2.5 2.6-4.9 3.9-7.4 2.5-4.9 5-9.9 7.4-14.9 4.8-10 9.3-20.1 13.6-30.3 2.1-5.1 4.2-10.2 6.3-15.4 2-5.2 4-10.3 6-15.5l.9-2.4.6-1.7.3-.9.2-.4.1-.2v-.1-.1l-1.9-.9c-.6-.3-1.3-.6-1.8-.9l-.6-.3-.5-.3-1.1-.5c-1.4-.7-2.8-1.5-4.1-2.2-2.7-1.5-5.2-3.2-7.6-5-4.8-3.5-9.2-7.5-12.9-11.8-3.7-4.3-6.9-9-9.3-13.9-1.2-2.5-2.3-5-3.2-7.6l-1.2-3.9c-.2-.7-.3-1.3-.5-2-.1-.3-.1-.7-.2-1 0-.2-.1-.3-.1-.5v-.5l-.2-1-.2-.9c-.1-.6-.3-1.2-.4-1.8-.3-1.2-.5-2.3-.7-3.5-.5-2.1-1.1-4.2-1.2-6.4 0-.5-.1-1.1 0-1.6-.1-.6.2-1 .1-1.6.7-3.9.9-7.7 1.1-11.7 0-1.5.3-2.8.7-4.3-.6 0-.8-.6-.6-.9.1-.2.7.2.7.1.3-1.7.7-3.3.6-5 0-.4-.1-.8-.2-1.3-.1-.2-.1-.5-.3-.7 0 0 0-.1-.1-.1h1.5c.8-.1 1.5-.3 2.2-.5h-1c.2 0 .4-.1.6-.1 1.1 0 2.3 0 3.4-.1 1.9-.2 3.7-.5 5.6-1 1.8-.5 3.6-1 5.3-1.7 1.2-.4 2.3-.9 3.4-1.5.1 0 .1 0 .2-.1.7-.1 1.5-.3 2.4-.7.8-.4 1.7-.9 2.7-1.5l-1.2.6c.5-.3 1.1-.7 1.6-1.2h-.3c.5-.3 1-.7 1.5-1.2.4-.4.8-.9 1.1-1.4.1-.2.3-.3.4-.5.6-.7 1.2-1.4 1.7-2.1l3.3-4.2c1.3-1.6 2-2.4 1.8-2.2.5-.6 1.2-1.3 1.8-2 1.6-1.8 3.4-3.6 5.4-5.4.5-.4 1-.9 1.5-1.3l.8-.7c.3-.2.5-.5.8-.7 1.1-.9 2.1-1.9 3.1-3.1.4-.5.7-.9.9-1.2.1-.2.2-.3 0 0s-.5.7-.9 1.1c-.4.5-.8.9-1.2 1.3-.5.5-1.1 1-1.6 1.5-.3.2-.6.5-.8.7l-.8.7c-1.1.9-2.2 1.9-3.2 2.8-2 1.9-3.9 3.9-5.6 5.9-.4.4-.6.7-.7.8-.8.9-1.9 2.3-3.1 3.8-1 1.3-2.1 2.6-3.2 3.9l.3-.6.1-.1c.8-1 1.5-1.9 2.3-2.9.8-1 1.5-1.9 2.3-2.9 1.6-1.9 3.2-3.8 4.9-5.5 1.7-1.8 3.5-3.5 5.5-5.1l.7-.6c.2-.2.4-.3.6-.5.3-.3.5-.4.4-.4-.1.1-.3.3-.7.6-.4.3-.9.7-1.4 1.2-1.9 1.6-3.7 3.3-5.4 5.1-1.7 1.8-3.3 3.6-4.9 5.5-.8 1-1.5 1.9-2.3 2.9-.7.8-1.3 1.7-2 2.5 0-.1.1-.2.1-.3.2-.2.3-.4.5-.6 1.3-1.6 2.6-3.3 3.9-4.9 1.3-1.6 2.7-3.2 4.1-4.7 1.4-1.5 2.9-3 4.4-4.3.8-.7 1.6-1.4 2.3-2 .8-.7 1.6-1.3 2.4-2.1.8-.7 1.5-1.5 2.2-2.3.3-.4.6-.9.9-1.3.3-.5.5-1.1.6-1.6v-.9c-.1-.3-.2-.6-.3-.8-.3-.5-.8-.8-1.3-1.1-.1-.1-.3-.1-.4-.2-.1-.1-.3-.1-.4-.1-.3-.1-.5-.2-.8-.2-.5-.1-1-.2-1.6-.3-.6-.1-1.3-.1-1.9-.2v-.3c-.1-.3-.6-.3-1-.2-.5.1-1 .3-1.5.4-.6 0-1.2 0-1.9.1-2.1.1-4.1.3-6.2.5-2.1.2-4.1.5-6.2.8-2 .3-4.1.6-6.1 1-2.5.5-4.5.9-4.5 1 .1 0 2.2-.4 4.7-.9 1.8-.3 3.7-.6 5.5-.9 1.8-.3 3.7-.5 5.5-.8 1.8-.2 3.7-.4 5.6-.5 1-.1 2-.1 3-.1-.2.1-.4.1-.5.2-1.8.1-3.5.2-5.1.4-1.6.2-3 .3-4.2.5-2.4.3-4 .6-4.2.7-.1 0 1.2-.1 3.4-.4 2.2-.3 5.2-.6 8.7-.8l-3.3.3c-1.1.1-1.9.2-1.6.2.4 0 1.9-.2 3-.3.7-.1 1.5-.1 2.2-.2-.1 0-.2.1-.3.1-.9 0-2.4.2-3.1.2-.9.1-.8.1.1 0h.1c-2.7.2-5.4.6-8 1-2.7.4-5.3.8-8 1.3-2.6.5-5.3 1.1-7.9 1.9-1 .3-2 .6-3 1-.4.1-.9.2-1.3.2 5.9-3.3 11.5-6.8 17-10.8 2.8-2.1 5.6-4.2 8.2-6.5 2.7-2.3 5.3-4.8 7.8-7.5 3.7-4 7-8.1 10-12.5 2.9-4.4 5.5-9.1 7.6-14.4 1.8-5.1 2.9-10.4 3.2-15.6.3-4.3 0-8.5-.8-12.7.2-.3.4-.7.6-1 3.5-5.8 5.4-10.7 8.1-16 .1-.2 0-.2 0-.1-.1.1-.2.3-.3.4-2.3 4-4.7 8.1-7.3 12.2l-1.5 2.4c-.1-.2-.1-.5-.2-.7 0-.1 0-.2-.1-.3.3-.4.5-.7.8-1.1l.5-.6c.6-.8 1-1.6 1.2-2.1v-.3c3.6-5.8 7.1-11.6 10.3-17 .2-.3.2-.5.1-.5.1-.1.2-.2.2-.3.3-.7.8-1.4 1.2-2.1.1-.2.1-.3 0-.2-.1 0-.2.2-.3.4-.5.8-.9 1.5-1.3 2.3 0 .1-.1.1 0 .2-.1.1-.3.3-.5.6-1.8 2.7-3.5 5.4-5.2 8.2-1.7 2.8-3.4 5.5-5.3 8.3 1.6-2.8 3.3-5.7 5.1-8.7 2.2-3.6 4-7 6.4-10.5.1-.2.2-.3.1-.3s-.2.1-.3.3c-2.5 3.5-4.5 7.1-6.6 10.6-2.1 3.6-4.2 7.2-6.8 10.9-.1.1-.2.2-.2.3v-.1c1.2-2.3 2.3-4.5 3.4-6.8l6.7-10.3c2.3-3.4 4.5-6.8 7-10 .3-.3.4-.6.3-.6-.1-.1-.3.2-.6.5-1.5 1.7-3 3.5-4.4 5.3-1.4 1.8-2.8 3.7-4.2 5.6l.5-.9.5-.8c1.7-2.4 3.4-4.9 5.3-7.3.7-.9 1.1-1.7 1-1.9-.2-.2-.9.3-1.6 1.2l.3-.4c.1-.1.1-.3.1-.3-.1 0-.2.2-.3.3-.4.5-.7 1.1-1 1.6-1.8 2.2-3.5 4.6-5.1 6.9-1.6 2.3-3.2 4.7-4.8 7.1 1.6-2.6 3.3-5.2 5-7.8 1.7-2.6 3.5-5.2 5.4-7.7-.1.1 0 .2.1.1s.3-.3.3-.4c.1-.1 0-.2-.1-.1 1-1.3 2.1-2.7 3.3-4 1.2-1.3 2.4-2.5 3.7-3.7-.1.1 0-.1-.1-.1zM124.4 274.4s.1-.1.2 0c.1 0 .2.1.3.1.2.1.4.3.6.5h-.3c-.2 0-.3-.1-.4-.1-.1-.1-.2-.1-.3-.2-.1-.2-.1-.3-.1-.3zm4.7 16.9c-.2.5.2 1 0 1.4l-.1.3v.4c0 .3-.5.6-.4 1l-.3.6c-.1.2-.2.4-.3.5-.1.2-.2.3-.3.4l-.1.1s-.1.1-.1 0l-.1.1c-.1 0-.2.1-.3.1-.7.3-1.5.5-2.2.7-1.6.4-3.2.6-4.9.7l-5.1.3c-1.7.1-3.5.1-5.2.2h-2.4c-.8 0-1.5-.2-2.2-.4-.3-.1-.7-.2-.9-.4-.3-.1-.5-.3-.7-.5h-.1v.1l-.2-.3-.3-.6-.6-1.2c-.4-.8-.9-1.6-1.3-2.3-.1-.1-.1-.2-.2-.3.3 0 .6.1 1 .1.7 0 1.5.1 2.2.1 1.4 0 2.8 0 4.2-.1 1.4-.1 2.7-.2 4.1-.3 1.3-.1 2.6-.3 4-.4 2.6-.3 5.2-.6 7.7-.9l3.9-.3h1.7c-.2.3-.3.6-.5.9zm15 50.9c-.1.2-.2.3-.3.5.1-.5.2-1.1.3-1.6.2-.8.3-1.7.5-2.6.1.3.2.7.2 1 .1 1-.3 1.8-.7 2.7zm-13.5 48.2c0-.1 0-.1.1-.1-.1.1-.1.2-.1.1zm.6.2s.1 0 0 0c.1-.1 0-.3-.1-.4-.1 0-.1.1-.1.1l-.1-.1-.1-.1v-.1l.1.1c0-.1.2.1.5.2 0 .1.1.3 0 .4v.1l-.2-.2zM73.3 264.2l-.1.1c0-.1.1-.2.1-.4v.3zm.3-3.8v.6c-.1.8-.1 1.5-.1 2.3 0 .1-.1.1-.1.2v-1.2c0-.6.2-1.2.2-1.9zm.2.5c0 .6-.1 1.2-.1 1.8 0 .1-.1.1-.1.2 0-.7.1-1.5.1-2.2v-.1c.1.1.1.2.1.3zm26.8-77.9c.3-.4.6-.7.9-1.1.1-.1.2-.3.2-.5.3 0 .6-.1.9-.1-.4.3-.7.6-1 1l-1.1 1.1.1-.2c.1-.1.1-.2 0-.2zm-20.9-41.6s-.1 0-.1-.1l.1.1zm-3.9.7zm-50.3-8.9c.2.3.3.5.5.7-.2 1.1-.3 2.2-.4 3.3-.1-.2-.2-.4-.4-.5v-.4c.1-1.1.2-2.1.3-3.1zm50 49h.1l.4.1v.1c-.3-.2-.7-.3-.9-.3-.2 0-.1.1.3.3.2.1.4.2.5.3 0 .1-.1.2-.1.3-1.4-.7-2.7-1.4-4-2.1-.1-.1.1-.1-.1-.2l-.3-.2c.4.2.8.4 1.2.7 1.8.7 2.4.9 2.9 1zm-1.7-3.1l.5.4-.5-.4zm7 40.4zm-13.5 16zm-30.5-54.3l.9.1c.5.1 1 .1 1.4.2 0 0 .1 0 .1.1-1-.2-2-.3-3.1-.5-.6-.1-1.3-.2-2-.3H34c1 .2 1.8.3 2.8.4 0 .1 0 .1 0 0zm41.7 2.3l.1.2c-.1-.1-.2-.1-.4-.2v-.2c.2.1.3.2.3.2zm5.6 1.9l.2.2h-.1l-.3-.2.3.2-.1-.2zM63.8 216c-.1-.1-.2-.2-.2-.3 0 .1.1.2.2.3zm-8.7-44.6zm12.7 8.9l-1.3-.6h.4c.2.2.6.4.9.6zm-46 2.5l2.1.3c-.1.1-.1.2-.2.3-.5 0-1.1-.1-1.6-.1 0-.1-.2-.3-.3-.5zm61 2.3zm-56.9-.9l.1-.2-.1.2zm3 .4c-.1-.2-.3-.3-.4-.4v-.2c.2 0 .3.1.5.1 0 .2.1.4.3.5-.1.1-.2.1-.4 0zm53.8.5c-.1.1-.1.1 0 0-.1.1-.1.1 0 0-.1.1-.1.1 0 0-.1.1-.1.1 0 0-.1.1-.1.1 0 0-.1.1-.1.1 0 0-.1.1 0 .1 0 0zm0 .2c-.1 0-.1 0 0 0-.1 0-.1-.1-.2-.1.1 0 .1.1.2.1zm-16.1 11.8l-.1-.2.1.2zm.9-2.4c.2.1.5.2.7.3h-.4c-.1 0-.3.1-.4.1-.2-.2-.4-.4-.6-.5.3 0 .5.1.7.1zM61 207.4h.4c.1 0 .2.1.3.1h.3l.1.1c.5.2.5.2 1.1.3v-.1h.4c.2 0 .2 0 .7.1l-.2-.2.2.1v-.2l.1.2.1-.1c-.1.1-.3.2-.4.3 0 0 .1 0 .1-.1-.1 0-.1.1-.1.1h-.7c-.7-.2-1.5-.5-2.2-.8-.1-.1-.3-.1-.4 0-.1.1 0 .1.1.2.5.3 1 .5 1.4.8h.1l-.1.1s.1 0 .1.1h-.2c-.1 0-.2 0-.2.1-.9-.3-1.8-.6-2.6-1.1 0 0 .1-.1 0-.2l-.1-.1c.1.1.3.2.4.2.9.1 1.1.1 1.3.1zm-.2-2.8l.1.2-.1-.2zm2.5 2.2l.1.1s-.1 0-.1-.1zm1.1 1.3zm-7.8.2c-.4-.2-.7-.5-1.1-.8.1 0 .2-.1.3-.2.6.4 1.2.7 1.8 1h-1zm-1.8-1.3l-.3-.3c.1 0 .3-.1.4-.1l.3.3H55c-.1 0-.1 0-.2.1zm-1.9-1.8l.2.2h-.3l-.1-.1-.1-.2h.2l.2.2-.1-.1zm-3.8-.1c0-.2 0-.4-.1-.6.6.2 1.2.3 1.9.4l.1.1v-.1h.1c.1.2.3.3.4.4-.6 0-1.2-.1-1.8-.2-.3.1-.5.1-.6 0zm2.5.5l.1.1v.1c-.4 0-.7-.1-1.1-.2h1zm1.3 1.4h-.1.1zm.8-1.2h-.4c-.1-.1-.2-.2-.4-.3h.4c.1.1.3.2.4.3zm-2.6 2.8c-.5-.2-1-.5-1.5-.8.5.1 1 .2 1.5.2.7.1 1.5.1 2.2 0 .3 0 .5-.1.8-.1.1.1.2.2.4.3-.4.1-.9.2-1.3.3-.6.1-1.2.2-1.7.2-.2 0-.3 0-.4-.1zm5.6-3.1c-.3-.2-.7-.5-1-.7v-.1l.1-.1c.4.3.9.5 1.3.8.2.1.5.2.8.3.2.3.4.6.7 1-.6-.5-1.3-.9-1.9-1.2zm-1.2-.9c-.2-.2-.4-.3-.6-.5l.2.1c.1 0 .2.1.2 0 .1.1.2.2.4.2-.1.1-.2.1-.2.2zm-2.7-18.5c-.3-.2-.6-.5-.8-.7l.1.1c.4.3.8.5 1.2.7l-.2-.2c1.6.9 3.2 1.7 4.8 2.4 1.8.9 3.8 1.8 5.8 2.6 0 .1-.1.2-.1.3-.2 0-.3-.1-.5-.1-1.5-.6-2.9-1.3-4.3-2-1.8-.9-3.6-1.8-5.4-2.8-.2 0-.4-.2-.6-.3zm17.9 2.5l.4.3-.4-.3zm11.8-3.4zm.3-.1zm-.5.2zm.2-.1zm-12.4 6.2l-.1-.1h.4c-.2.1-.2.1-.3.1zm.1 16.4c0 .1-.1.2-.1.3H70l.2-.3zm-.2.2c-.1 0-.2 0-.3-.1-.4-.1-.9-.1-1.3-.2.3 0 .5 0 .8-.1h.9c-.1.2-.1.3-.1.4zm12-21.2c-.1 0-.1 0-.2-.1.1 0 .1 0 .2.1 0-.1 0-.1 0 0zm.5-1.6s.1 0 0 0c.1 0 .1 0 0 0 .1 0 .1 0 0 0zm0 0zm0 0zm0 0zm-6 1.5l-.6.3c.3-.1.4-.2.6-.3zm-23.9 22.6c-.3-.1-.6-.2-.8-.3.5 0 1-.1 1.4-.2.5-.1 1-.2 1.4-.4.1 0 .1.1.2.1l.1.1c0 .1.1.1.2.2-.1 0-.2.1-.2.1l-.1.1h-.3c-.6.1-1.2.2-1.9.3zm12.6-1.8c-.1 0-.1 0-.3-.1 0 0 .1 0 .1-.1.1-.3.1-.3-.2-.9 0 0-.2-.2-.5-.3l-.8-.2s-.1 0-.2-.1-.1-.2-.2-.3h.2c.2-.1.3-.2.1-.3.3-.4.2-.8 0-1.1.1-.1.2-.3.2-.4.3-.3.6-.6.7-1l.1-.3c0-.3-.2-.6-.5-.9l-.1-.1.1-.3c-.1-.4-.3-.8-.5-1.2-.2-.4-.4-.8-.5-1.2-.1-.2-.1-.3-.2-.5-.1-.4-.4-.7-.7-.9l-.3-.3-.2-.1c.6-.1 1-.5 1.1-1.1.1-.4 0-.9-.1-1.3-.2-.4-.5-.7-1-.9-1.1-.7-2.4-1.6-3.8-2.8-.9-.8-2-1.6-3.1-2.5 1.6.9 3.3 1.8 5.1 2.6.1 0 .2.1.3.1.4.3 1.1.6 1.8.9.3.2.7.3.9.4.4.2.8.4 1.2.7-.1.1-.2.2-.2.4-.1.2 0 .4.1.6 0 .3.3.5.6.5.1 0 .2 0 .2-.1.4.1.7.1 1.1.2.1 0 .1 0 .2-.1 0-.1 0-.1-.1-.2-.3-.1-.5-.2-.8-.3l-.1.1v-.1h-.1.1l.1-.1c.4 0 .7.1 1.1.2.1 0 .1.1.2.1v.2l.1.1h-.2c-.3.2-.4.3-.4.4l-.1.1h-.1c-.1 0-.1 0-.1.1 0 0 0-.1-.1-.1-.3 0-.3 0-.5-.1v.1H64.3l.1.1-.1-.1v.1l-.1-.2v.1l-.2-.3-.1.1v.1l-.1.2V195.4s0 .1.1.1c0 0 .1 0 .2.1v.1c0 .3 0 .3.2.8 0 0 .1.2.3.3.2 0 .2 0 .5.1h.1l.2.2s-.1 0-.1.1c-.1.1-.1.2 0 .3-.1.4 0 .8.2 1.1v.4c-.1.4-.2.7-.2 1.1v.3c.1.3.3.5.5.7l.1.1v.3c.4.7 1.1 1.2 1.6 1.8l.4.3c.3.3.7.4 1.1.5h.8c-.4.4-.6 1-.4 1.5.2.4.5.7 1 .9.2.1.5.1.7.1-.2.2-.3.4-.5.6-.1.1-.2.3-.2.4H69.5c-.8 0-1.5 0-2.3.2-.2-.2-.6-.3-1-.2-.5-.2-.8-.2-1-.1zm-2.1-5.2c.2-.3.3-.5.5-.8-.1.3-.3.6-.5.8zm2.8-2.3l-.1.9.1-.9zm-1.1-4.2zm17.8-10.6zm-.2 0c0 .1 0 .1 0 0-.1.1-.1.1 0 0 0 .1 0 .1 0 0zm-.1.1zM27.9 181c.1.1.2.3.2.4-.2 0-.3-.1-.5-.1 0-.1-.1-.3-.1-.4l.4.1zm26.9 28.2c.1-.1.2-.1.1-.2h.2c.1 0 .1-.1.2-.1.1.1.3.2.4.3.1.1.3.2.4.3.8.8 1.9 1.6 3.3 2.3-.2-.2-.5-.3-.7-.5.4.2.8.4 1.2.5 0-.1-.1-.1-.1-.2.1.1.2.1.3.2 0 0-.1 0-.1.1-.2 0-.5.1-.7.2-.4-.1-.8-.3-1.1-.4-1.2-.4-2.4-.9-3.5-1.3-.4-.2-.7-.3-1.1-.5.3-.3.7-.5 1.2-.7zm5.7 3.1v-.2c.1-.1.2-.1.2-.2.1 0 .1 0 .2.1-.1.1-.2.2-.4.3zm1.4.4c.2-.2.4-.3.5-.5v.2c-.1.1-.2.2-.3.4-.1 0-.2-.1-.2-.1zm22.2-27c-.1 0-.1 0 0 0-.1.1-.2.1-.2.1-.2-.1-.3-.1-.5-.2.1-.1.3-.1.4-.2.1 0 .3.1.4.1-.1.1-.1.1-.1.2zm-1.7-.5zm-3.7-1v.2h-.1v-.2h.1zm-.3.1c-.1 0-.2-.1-.2-.1v-.2c.1 0 .2.1.3.1-.1.1-.1.1-.1.2zM39.8 182c-1.6-.2-3.1-.5-4.7-.8-.2-.1-.3-.2-.5-.2 1.6.3 3.3.6 4.9.8l.3.2zm-13.2-1.2c-.1.1-.1 0-.2-.1.1 0 .2.1.4.1h.2c.1.2.2.3.3.5H27c-.2-.2-.2-.3-.4-.5zm-2.4 1.3h-.4c-.9-.1-1.9-.2-2.8-.3l-.1-.1c-.1-.1-.2-.3-.3-.4 1.3.2 2.7.5 4 .8h-.4zm-.6 1.5c-.1 0-.2.1-.2.1-.3-.1-.7-.1-1-.2 0 0 0-.1-.1-.1.5.1.9.2 1.3.2zM66.3 225l.1.1c-.1 0-.1 0-.1-.1 0 .1 0 0 0 0zm.2-1.8c0 .1 0 .1 0 0 0 .1 0 .1 0 0 0 .1 0 .1 0 0zm15.9-38.1c-.1 0-.2-.1-.3-.2.1.1.2.1.3.2zm-.1.2zm-6.4-2.1c0-.1 0-.1 0 0 0-.1 0-.1 0 0zm-7.3-4.4l-.2-.2c.2.2.5.4.8.6-.2-.2-.4-.3-.6-.4zm-2.2-1.6c-.7-.4-1.4-.8-2.2-1.2-.1-.1-.2-.1-.3-.2-1.9-1.3-3.7-2.5-5.4-3.9l.6.4c.2.1.6.4.4.2 1.6 1.2 3.4 2.4 5.2 3.5.7.4 1.4.8 2 1.2.2.2.5.4.7.6-.2-.1-.6-.4-1-.6zm-12.5-6.8l.1.1c.3.2.5.5.8.7-.2-.1-.3-.2-.5-.3 0-.1-.2-.3-.4-.5zM22 180.5c1 .1 2 .1 3 .1-.1.1-.1.2-.3.4-1.5-.1-3-.2-4.5-.2-.2-.2-.4-.5-.6-.7h.3c.8-.1 1.7 0 2.7.1.6.1 1.2.1 1.8.2h-2.3c-.1 0-.1 0-.1.1-.1-.1-.1 0 0 0zm39.8 34.7c.2 0 .4-.1.6-.1.1 0 .2.1.2.1 0 .1.1.1.1.1l-.3.3-1.2-.3c.2 0 .4 0 .6-.1zm1.2.6l.1.1.1.1c-.1 0-.2-.1-.2-.2-.1.1-.2 0-.2 0h.2zm.8.3h.1v.1c-.1 0-.2-.1-.3-.1 0 .1.1.1.2 0zm2.3 11.4v-.2c0-.4.1-.9.1-1.3 0-.2.1-.5.1-.7l.1.1c0 .2 0 .3-.1.5-.1.5-.2 1.1-.2 1.6zm.3-3.7c0-.1 0-.1-.1-.2v-.1-.1.3c.1 0 .1.1.1.1zm20.1-39.3l-.9.3-.1-.1c.4-.2.7-.3 1.1-.5 0 .1-.1.2-.1.3zM26 131.8c.1.1.1.2.2.3l-.3 1.5c-.1-.4-.3-.8-.4-1.2.1-.4.1-.8.2-1.2l.3.6zm-2.9 48.3c.5.1.9.1 1.4.2h-.2c-.3 0-.7-.1-1.2-.2-.7-.1-1.5-.1-2.2-.1h-1.3 1.8c.6 0 1.2 0 1.7.1zm-5.1 3.2c0-.1 0-.1 0 0 0-.1 0-.1 0 0 0-.1 0-.1 0 0zm42.3 32.3c.7.1 1.5.3 2.3.6.4.1.8.3 1.1.5v.1s-.1 0-.1-.1c-.7-.4-1.4-.6-2.1-.8l-1.5-.3h.3zm6.1 18.9c0 .1.1.3.1.4-.1-.2-.1-.3-.1-.4zm.1.6c.1.3.1.6.2.9-.1-.3-.1-.6-.2-.9zm1.1 46.6c0-.1 0-.2.1-.3v-.1c0 .2-.1.4-.1.6v-.2zm6.7-28zm2.7-5.5s0 .1 0 0zm-10.4-19.1v-.2c0-.9.1-1.8.2-2.7l.1.1c0 .4-.1.7-.1 1.1-.1.6-.1 1.3-.1 1.9 0-.1-.1-.2-.1-.2zm.5-3.9c0-.1-.1-.1-.1-.2 0-.3.1-.6.1-.9l.1.1c-.1.4-.1.7-.1 1zm.1-1.2c0-.1-.1-.1-.1-.2v-.2h.1v.4zm-.1-.5v-.5-.6h.1v.5c0 .2 0 .5-.1.6.1.1 0 .1 0 0zm5.2-3l-.3-.3.3.3zm4.7-.3c-.2 0-.3-.1-.5-.1h-.1l-.4-.2H76.3v-.1h.3l.4.4zm4.5-.4c-.1-.1-.3-.1-.4-.2h.1l.6.3c-.1 0-.2 0-.3-.1zm.7.2c-.1 0-.1 0-.2-.1l-.6-.3c.1 0 .2 0 .4.1.1.2.3.3.4.3zm-.7-.4c-.1 0-.2 0-.4-.1-.3-.1-.5-.2-.8-.3-.1 0-.2-.1-.2-.1v-.1c.3.1.5.1.8.2.1.2.4.3.6.4zm5.4-11.4c.4-.5.9-1 1.4-1.5-.8 1.2-1.5 2.3-1.8 3l-.2.3c-.2 0-.5.1-.7.2.4-.6.8-1.3 1.3-2zm-10.7-34.7c.3-.1.6-.1 1 .1 0 .5 0 1-.1 1.6-.2-.1-.3-.3-.5-.4-.4-.3-.7-.6-1.1-.9-.8-.6-2-1.5-3.5-2.4 1.5.7 2.8 1.4 4.2 2zm-53-56.1c0-.2-.1-.3-.1-.5l.1.1v.4zm2.2 13.3c-.1.4-.1.7-.2 1.1-.6-1.3-1.4-2.6-2.2-4-.7-1.1-1.3-2.3-1.8-3.5-.5-1.2-.9-2.4-1.1-3.5 1.6 3.3 3.4 6.6 5.3 9.9zm-2.6 4.8c-3.5-5.9-6.2-12.3-8.1-18.9-1.3-3.4-2.3-7-3.1-10.6-.8-3.6-1.3-7.2-1.5-10.9.3.6.5 1.3.7 2-.4-2.5-.6-5.1-.7-7.6l-.5-2.3c.1.3.3 1 .5 1.4-.1-4 .2-7.9.7-11.8.5-3.9 1.2-7.7 2.1-11.4-.1.6 0 .9.2 1.2.1-.4.1-.8.2-1.2.1-1.1.3-2.2.5-3.3-.1 1.1-.3 2.2-.5 3.3-.1.4-.1.9-.2 1.3.1.3.1.6-.1 1.1-.2 2.1-.4 4-.8 5.3-.8 2.6-1.1 5.3-1.1 7.8-.1 2.5-.1 5-.4 7.3-.1 1.1-.3.8-.6.3v.9c.4 1.8.7 3.6.9 5.4.1 2 .3 4 .5 6.1l.2 1.2-.1-.6c.6 5.1 1.6 10.1 3 15 1.1 2.8 2.3 5.6 3.6 8.3-1-2.6-2-5.2-2.8-7.8-.8-2.7-1.5-5.3-1.9-8 1.4 3.4 2.9 7 4.4 10.7-.9-2.4-1.7-4.9-2.4-7.3-.3-1.9-.6-3.9-.4-5.3.4 2.5 1 4.5 1.8 6.3-1.1-4.1-1.8-8.4-2.2-12.8 0-.4-.1-.9-.1-1.3 0 .4.1.9.1 1.3.2 2.4.8 4.8 1.4 7.2.6 2.4 1.2 4.7 1.6 7.1-.3-.5-.6-1-.8-1.5 1.8 6.8 4.6 13.3 8.2 19.2-.2 1.1-.3 2.3-.4 3.4-2.4-3.5-4.5-7.2-6.4-11 1.5 3.6 3.1 7.1 4.5 10.5zm2.3 9c.1 0 .1.1 0 0 .1.6.1 1.1.1 1.6 0-.5 0-1.1-.1-1.6zm-4.2 34.1c.9 0 1.8.1 2.6.2 1.1.1 2.1.3 3 .5 0 0-.1.1-.1.2-1-.2-2-.4-3-.5-1.1-.1-2.1-.2-3.1-.2-.5 0-1 .1-1.4.2h-.1s0-.1-.1-.1c.3-.1.5-.1.8-.2.5-.1.9-.1 1.4-.1zm-2.4-.7c.2-.1.5-.1.7-.1-.2 0-.5.1-.7.1zm-1.1 2.3v-.2c0-.1.1-.3.2-.4l.3-.3c.1 0 .1-.1.2-.1 0 0 .1 0 .1-.1 0 0 .1 0 .1-.1h.1v.1c-.1 0-.2.1-.2.1-.1 0-.1.1-.2.1-.2.2-.4.4-.4.6v.2c-.1 0-.1.1-.2.1 0 0 0 .1 0 0 .1.3.1.5.1.7v.1c0 .1 0 .2.1.5.1.5.3 1 .4 1.5-.1-.4-.3-.8-.4-1.2-.1-.5-.2-.9-.2-1.3v-.3zm44.3 36.6c-.7-.2-1.4-.4-2.1-.5-.3-.1-.7-.1-1-.2-.3 0-.7-.1-1-.1h-.3H57.6c.3.1.7.1 1 .1l.5.1c.2 0 .4.1.6.1.4.1.7.1 1.1.2.7.2 1.5.4 2.3.8.4.2.7.4 1.1.6v.1c-.1-.1-.3-.2-.4-.3-.7-.4-1.4-.7-2.1-.9zm.6 6.9c0 .1.1.2.1.4v.1c0-.2-.1-.3-.1-.5zm81.2 210.9l-.2-.1.2.1zm-13.4 11.9V446.2l-.1-.3-.2-.6-.4-1.3-.4-1.4-.9-2.7c-.6-1.8-1.2-3.6-1.9-5.4-.3-.9-.6-1.8-1-2.7l-.1-.3c0-.1-.1-.3-.1-.4l-.3-.7-.5-1.3-.5-1.3-.3-.7c-.1-.2-.2-.4-.3-.7l-.6-1.3c-.2-.4-.4-.8-.5-1.3-.4-.9-.7-1.7-1.1-2.6l-.6-1.3-.5-1.3c-1.5-3.5-2.9-7-4.6-10.4 1.7 3.5 3.2 7 4.6 10.4l.5 1.3.6 1.3c.4.9.8 1.7 1.1 2.6l.3.6.3.6.6 1.3c.2.4.4.9.6 1.3l.5 1.3.5 1.3.3.7c0 .1.1.2.1.4l.1.3c.3.9.7 1.8 1 2.7.6 1.8 1.3 3.6 1.9 5.4l.9 2.7.4 1.2.4 1.1.2.6.1.3v.2c.1-.4.3-.8.4-1.2v.4c-.2.6-.4 1-.5 1.5zm16.3-10.4l-.2-.1.2.1zm3.4-11.5c0 .2 0 .4-.1.6l-.3.5c0-.2.1-.5.1-.7.1-.2.2-.3.3-.5v.1zm-.2.1c.1-.6.1-1.1.2-1.6.1-1.3.1-2.5 0-3.6s-.2-2.3-.3-3.5h-.4c-.2.1-.4.3-.6.4-.4.3-.8.5-1.2.8-.4.3-.8.5-1.1.8-.4.3-.7.6-1.1.9-.7.7-1.4 1.5-2.1 2.4-.3.5-.7 1-1 1.5-.2.3-.3.5-.5.8l-.2.4-.2.3c-.4.7-.8 1.5-1.1 2.2l-.5 1.1-.6 1.1c-.4.7-.7 1.4-1.1 2-.2.3-.4.7-.6 1l-.2.2-.2.3s0 .1-.1.1l-.1.1-.1.1-.1.3c-.2.4-.4.8-.7 1.2 0-.2 0-.3.1-.5.2-.3.3-.6.5-.9l.1-.3.1-.2c0-.1.1-.1.1-.2l.2-.2.2-.2c.2-.3.4-.6.6-1 .4-.7.8-1.3 1.1-2l.5-1.1.5-1.1c.4-.7.7-1.4 1.1-2.2l.2-.4.2-.4c.2-.3.3-.5.5-.8.3-.5.7-1.1 1-1.5.7-1 1.4-1.8 2.2-2.5.4-.3.7-.6 1.1-.9.4-.3.7-.5 1.1-.8.4-.3.8-.5 1.2-.8.2-.1.4-.3.7-.4h.4c.1 1 .2 1.9.3 2.9 0 .5.1.9.1 1.4 0 .5 0 1 .1 1.5 0 .9 0 1.9-.1 2.9 0 .1-.1.3-.2.4zm18-99.5v-.2l.1-.1s-.1.1-.1.3zm3.4-42c-.3-.4-.6-.7-1-1.1-2-3.2-3.8-6.5-5.2-9.9-.1-.3-.2-.6-.4-.9-.1-.6-.2-1.1-.3-1.7.5 1.4 1 2.7 1.6 4.1 1.5 3.3 3.3 6.6 5.3 9.7.1-.1 0-.1 0-.2zm-2.7-4.7c-1.6-2.8-2.9-5.8-4-8.8-.1-.2-.1-.3-.2-.5 0-.1-.1-.3-.1-.4.1.2.2.5.2.7 1.1 3 2.4 5.9 4 8.7 3.1 5.6 7 10.9 11.5 15.5-4.4-4.5-8.3-9.6-11.4-15.2zm4.1 7.1l-.6-1.2c.4.6.8 1.1 1.2 1.6 2 2.7 4.2 5.4 6.7 7.8l-.2-.2c-.5-.4-1-.8-1.4-1.3-2.1-2.1-4-4.4-5.7-6.7zm1.2 3.2c.7 1 1.7 2.2 2.8 3.5-.9-1.1-1.9-2.1-2.8-3.3v-.2zm1.5 4c-.1-.1-.1-.3-.2-.4.1.1.2.3.3.4h-.1zm.6 0l-.3-.3c-.2-.3-.5-.5-.7-.8 0-.1-.1-.1-.1-.2.4.5.8 1 1.2 1.4l-.1-.1zm0 85.8c-.2.3-.3.7-.5 1 .2-.3.3-.6.5-1zm-5.3 9.6c.3-.4.5-.8.8-1.2-1 2-2.1 4-3.1 6 .6-1.7 1.3-3.4 2.3-4.8zm-2.6 5.9c.1-.1.2-.3.2-.4l2-3.8c.6-1.2 1.3-2.5 1.9-3.7 0-.1.1-.1.1-.2.1-.1.2-.3.3-.4-1 1.9-1.9 3.8-2.9 5.7-.6 1.2-1.2 2.3-1.8 3.5 0-.3.1-.5.2-.7zm16.3-26.8c-1.4 3-2.8 6-4.2 9.1-1.4 3-2.9 6-4.4 9.1-1.7 3.3-3.3 6.6-5 9.8-1.7 3.2-3.4 6.4-5.2 9.6l-1.3 2.3c-1.6 2.9-3.3 5.7-4.9 8.5l-1.3 2.1c-.4.7-.8 1.4-1.3 2.1-.9 1.4-1.7 2.8-2.6 4.2 1.2-2 2.4-3.9 3.6-5.9 2.3-3.9 4.2-7.3 4.3-7.6 0 0-.3.5-.9 1.4 2.1-3.6 4.1-7.3 6.1-11 1-1.8 2-3.7 2.9-5.5 1-1.8 1.9-3.7 2.8-5.5 1.9-3.7 3.7-7.4 5.5-11.1 1.8-3.7 3.5-7.4 5.2-11.2 1.8-3.9 3.4-7.6 4.8-10.9 1.1-2.1 2.2-4.3 3.2-6.5-2.2 5.8-4.7 11.4-7.3 17zm-.5-66.1c-.1-.2-.1-.4-.2-.6l.2.2v.4zm-.2-.9s0-.1 0 0c.1 0 .2.1.2.1v.1c-.1-.1-.2-.1-.2-.2zm6.3 36.3l.6-2.1c.3-.7.5-1.3.7-2-.3.9-.6 1.8-.9 2.8-.1.4-.3.8-.4 1.3zm-.5-34.4c-2.7-2-5.3-4.1-7.8-6.4-.1-.1-.1-.3-.2-.4.5.5 1 .9 1.5 1.4 3.6 3.3 7.6 6.3 11.9 9 1.9 1.2 3.9 2.3 5.8 3.4-3.9-2.1-7.7-4.4-11.2-7zm-24.9-33.7c.9 2.7 2.1 5.3 3.4 7.9 2.6 5.1 5.9 9.9 9.8 14.2 3.8 4.3 8.2 8.2 13 11.6 2.4 1.7 4.8 3.3 7.4 4.7l3.9 2.1 1 .5.5.2.6.3c1 .5 2.1 1 3.1 1.5v.2l-.1.2-.2.4-.3.9-.6 1.7-.9 2.4c-.6 1.5-1.1 3-1.7 4.5-1.2 3-2.3 6.1-3.5 9.1-1.8 4.6-3.7 9.3-5.7 13.9.8-2 1.5-4 2.2-6.1l1.8-4.5c1.5-3.6 2.9-7.2 4.3-10.8l2.1-5.4 1-2.7.7-1.9.4-1 .2-.5.1-.2v-.2l-1.8-.8-.9-.4-.8-.4c-.8-.4-1.6-.8-2.3-1.2-1.5-.8-3.1-1.7-4.6-2.6-1.3-.8-2.6-1.6-3.9-2.5-2.5-1.7-5-3.5-7-5.2-2-1.7-3.6-3.2-4.7-4.2-.7-.7-1.1-1.1-1.3-1.2-4.4-4.5-8.2-9.6-11.2-15.2-1.5-2.8-2.8-5.7-3.9-8.6l-.6-1.8c-.1-.5-.2-1.1-.3-1.6.3 1 .5 1.8.8 2.7zm38.4 45.1l.1-.2v-.1c-.1 0-.2-.1-.2-.1v-.2c.2.1.3.2.5.2v.2l-.1.2-.1.2c0-.1-.1-.2-.2-.2zm0 0s-.1 0-.1-.1.1-.2.1-.3c.1 0 .1.1.2.1v.1l-.2.2zm.5-.1l.1-.2v-.2c-.3-.1-.6-.3-1-.4 0 0 0-.1-.1-.1l.3.1c.3.1.6.3.8.4v.2l-.1.2-.1.5v-.1l.1-.4zm-21.1-128.7c.9 0 1.8-.1 2.7-.2l1.1-.1H186.5c.7-.1 1.4-.2 2.2-.3.1 0 .2-.1.2-.1s-.1-.1-.2-.1c-.7.1-1.5.2-2.2.3h-.7l-1.1.1c-.4 0-.8.1-1.2.1.5-.1 1-.2 1.6-.3 2.7-.5 5.3-.9 8-1.2.8-.1 1.6-.2 2.5-.3l-.2.1c-2.4.8-4.5 1.5-7 2.2-.4.1-.7.2-1.1.3l-.5.1-.3.1h-.8c-.3.1-.7.1-1 .1-1.4.2-2.8.3-4.3.5h-.9l-.9.1c-1.5.1-3.1.2-4.6.3l3.3-.9c1.6-.1 3.2-.5 4.8-.8zm-21.8 34.6l.2.4c.2.4.3.9.4 1.3v1.2c0 .4-.1.7-.2 1 0-.3.1-.6.1-1v-1.1c-.1-.4-.2-.9-.4-1.3v-.2c-.1-.1-.2-.2-.1-.3h-.1c0-.1 0-.1.1 0zm.8 5.8c0 .2-.1.4-.1.5V225.4v-.2s0-.1-.1-.3c.1-.2.1-.4.2-.6 0 .1.1.2.1.2 0 .1 0 .1.1.2-.2.3-.2.4-.2.5zm-1-.7v-.1.1c.1 0 .1.1.1.1-.1 0-.1 0-.1-.1zm-.1 10.7c.1.8-.1 1.4-.1 2.2.1-1 .3-2.1.3-3.1-.1 2-.2 4-.5 6-.1.7-.2 1.3-.3 1.9.1-1.1.2-2.1.3-3.2-.4-1.3.1-2.5.3-3.8zm.4-11.6v.2c0 .1 0 .2-.1.3 0 0 0-.1-.1-.1 0-.1 0-.2-.1-.4v-.1c.2 0 .2 0 .3.1zm-.2-.3v-.3-.1.5c.1 0 .1 0 0-.1zm-.6 16.1c0 .3 0 .5-.1.8 0 .3-.1.5-.1.7-.3-.4 0-.9.2-1.5zm-.4 2.6v.2c-.1-.1-.1-.1 0-.2zm-.5 9.2c.1.5.2 1.1.3 1.6-.1-.5-.2-1.1-.3-1.6zm-11.7-32c-.2 0-.4.1-.4.1h-.5c.1 0 .3-.1.5-.1h-.3.3l-.1-.1.2.1.1-.1h.1c.1 0 .2 0 .5.1 0 0 .1 0 .4-.1 0 0 .1 0 .1-.1l.2-.1v-.1c-.1 0-.1 0-.1-.1h-.7s.1 0 .1-.1v-.1c1.8 0 3.6 0 5.4.3.6.1 1.2.3 1.7.4l.4.1.2.1.2.1h.2l.3.1c.2.1.3.1.5.2s.3.2.4.4c0 0 0 .1.1.1v.1c.1.2.1.4.2.6l.1.2v-.1l-.1-.2-.1-.1-.1-.2c-.1-.2-.3-.5-.5-.6-.2-.1-.5-.2-.8-.2l-.5-.1c-.2-.1-.5-.1-.7-.1-.5-.1-1-.2-1.5-.2-1.9-.3-3.9-.3-5.8-.2.1 0 .3 0 .4-.1l.1-.1c-.2.2-.4.2-.5.2zm-4.2 1.9c.6-.3 1.3-.5 1.9-.7l.1-.1-.1.1c.1 0 .1 0 .2-.1l-.1.1h-.1l-.2.2c-.3.1-.6.3-.9.4-.8.4-1.5.8-2.3 1.1-.1 0 0-.1-.1 0-.1 0-.1 0-.2.1l.6-.3c.7-.6 1-.8 1.1-.9h.1l.3-.2.1-.1.4-.2c.1-.1.3-.1.3-.2h.2c.3-.1.5-.2.6-.3h.5c-.7.2-1.4.5-2 .8-.2.1-.4.2-.4.3-.3.1-.2.1 0 0zm-18-2.2c0 .1.1.1.1.2v.4c-.2-.2-.1-.4-.1-.6zm9.6-3c-.1.1-.2.2-.3.2h-.1c-.1 0-.1.1-.1.2-.1.1-.2.1-.2.2h-.1c.1-.2.1-.5.2-.7l.2-.4.2-.4c.1-.2.3-.5.4-.7.3-.5.5-1 .8-1.5.5-1 1-2.1 1.4-3.1-.4 1.3-.8 2.5-1.3 3.7-.2.6-.4 1.1-.7 1.7-.1.2-.3.5-.4.8zm-1.2.7h-.1l.2-.2c-.1.1-.1.1-.1.2zm1.9-1.9c.8-1.9 1.5-4 2.2-6.5l.3-.7c.1.2.3.4.5.4l-1.5 4.3c-.5 1-1 2.1-1.6 3.1 0 .1-.1.1-.1.2-.1 0-.1.1-.2.1.2-.3.3-.6.4-.9zm19.2-51.2s0 .1 0 0c-.4.3-.8.8-1.2 1.5-.8.7-1.7 1.3-2.5 2 .8-.8 1.5-1.5 2.1-2.2.5-.4 1-.8 1.6-1.3zm43.9 30.8h-.2c-2.1.9-4.1 1.7-6.2 2.4-.5.2-1.1.4-1.6.5-.3.1-.5.2-.8.3l-.4.1H188.7l-.3.1c-.2.1-.4.1-.6.1H187.2c-.3.1-.6.1-.9.2-.6.1-1.2.2-1.7.3-.5.1-1.1.1-1.6.2H181.4l.5-.1c.3 0 .6-.2.6-.4 0-.1-.1-.2-.1-.2 1.2-.3 2.3-.7 3.5-1.2.4-.1.7-.2.9-.3H188.8l.5-.1 2.1-.2h.3c.4 0 .8-.2 1-.5.1-.1.1-.2.1-.2l4.5-1.5c.4-.1.7-.3 1.1-.4l.5-.2.3-.1h.1l.2-.1c.1 0 .2-.1.4-.1.1-.1.2-.1.3-.1.2-.1.3-.2.5-.3.3-.2.7-.4 1-.5.1-.1.2-.2.1-.3h.2c.3-.2.6-.4.9-.5-1.8 1.6-3.6 3.4-5.2 5.2-1.9 2-3.6 4.2-5.3 6.3-.5.6-1 1.3-1.5 1.9-.4.1-1 .5-1.6 1.3l-.2.2c.2-.4.3-.8.4-1.2.1-.5.1-1 0-1.4-.1-.3-.5-.2-.7-.3-.2-.1-.4 0-.6.2-.2.2-.5.6-.7 1-.1.2-.2.5-.3.7-.7.9-1.5 1.7-2.3 2.4-.2.1-.3.3-.3.5 0 .1.1.1.3 0 .7-.4 1.3-.9 1.9-1.4 0-.1 0-.1.1-.2v.1c.1 0 .1-.1.2-.1 0 .1 0 .1-.1.2l-.1.1c0 .1-.1.2-.1.4l-.8.8c-.8.7-1.5 1.2-2.3 1.6-.1 0-.1-.2-.2-.1-.1 0-.1 0-.2.1.2-.1.4-.2.6-.4.5-.8.7-1.1.8-1.3v-.1l.2-.3v-.1l.3-.3c.1-.1.2-.2.2-.3.1 0 .1 0 .2-.1l.6-.6c.1-.2.3-.3.5-.6h-.1s.1-.3.3-.6c.1-.1.1-.2.2-.3.1-.1.2-.3.4-.6l-.3.3.3-.2h-.2.3l-.1-.2h.1c.1 0 .3-.1.6-.3 0-.1 0-.2.1-.5v-.2c-.1 0 0 0-.2-.4h-.1c-.1.1-.1.1-.3 0l-.2.2c-.1.1-.1.1-.3.5 0 0 0-.1-.1-.1-.1-.1-.2-.2-.4-.2-.1 0-.4 0-.8.1 0 0-.3.2-.6.5-.1.2-.2.3-.3.4-.1.1-.2.2-.4.5l-.2.3c-.2.1-.2.1-.4.1.1-.1.1-.2.1-.3.1-.3-.1-.4-.3-.3-.3-.5-.8-.6-1.3-.7-.1-.2-.2-.3-.4-.4l-.3-.6c1.2-.3 2.4-.6 3.6-1 .9-.3 1.8-.5 2.8-.8l.2-.1h.2l.6-.1c.2-.1.4-.1.6-.2h.2l.2-.1c.4-.2.9-.4 1.3-.5.7-.3 1.4-.6 2-1 .6-.4 1.2-.7 1.8-1.1 1.2-.8 2.3-1.6 3.6-2.3-.7-.8-.7-.9-.7-.9zm12.3-11.3l-.3-.3c-.1-.1-.3-.2-.4-.2h-.2c-.1 0-.1 0-.2-.1-.1 0-.3-.1-.4-.1l-1.8-.3c-1.3-.1-2.6-.2-4-.1-.6 0-1.2 0-1.8.1l1.3-.5h1.8c.9 0 1.9 0 2.8.2.5.1.9.1 1.3.2.2 0 .4.1.6.2.1 0 .2.1.3.1h.2c.3.1.5.2.7.4.2.2.4.5.4.7 0 .3 0 .6-.1.8 0 .1-.1.1-.1.2v.1l-.1.1c-.1.2-.2.4-.3.5-.5.7-1.1 1.4-1.8 2.1-.7.7-1.4 1.3-2.1 1.9-.4.3-.7.6-1.1.9-.4.3-.8.6-1.1 1-3 2.6-5.7 5.4-8.3 8.4-1.3 1.5-2.5 3-3.7 4.5-.3.4-.6.7-.9 1.1v-.1c-.1-.1-.2-.2-.3-.2l1.8-2.3c1.8-2.2 3.6-4.4 5.5-6.4 2-2.1 4-4 6.2-5.9.3-.2.5-.5.8-.7.3-.2.5-.4.8-.7.5-.4 1-.9 1.5-1.3l1.4-1.4c.4-.5.8-1 1.1-1.4 0-.1.1-.1.1-.2l.1-.1c0-.1.1-.1.1-.2.1-.1.1-.3.1-.4.2-.3.1-.5.1-.6zm-6-2.3c1.2 0 2.5.1 3.7.2.4.1.7.1 1.1.2.2 0 .4.1.5.1.1 0 .2.1.3.1.1 0 .2.1.2.1.3.1.6.3.8.5.2.2.5.5.6.8.1.3.1.6.1 1l-.3.9c0 .1-.1.1-.1.2s-.1.2-.1.2c-.1.2-.2.3-.3.5-.2.3-.4.6-.7.9-1 1.1-2.1 2.2-3.3 3.2-.3.2-.6.5-.9.7-.3.2-.6.5-.9.8-.6.5-1.2 1-1.8 1.6-2.3 2.1-4.5 4.4-6.5 6.7l-3 3.6-2.1 2.7c.3-.4.7-.8 1-1.2 1.4-1.7 2.8-3.5 4.3-5.2 1.5-1.7 3-3.3 4.6-4.9 2.1-2.1 4.1-3.7 4.1-3.8.1-.1-1.9 1.5-4.1 3.7-1.8 1.8-3.6 3.6-5.2 5.6-1.6 1.9-3.1 3.8-4.6 5.7l2.9-3.8c.8-1 1.2-1.6 1.3-1.7.1-.3-1.3 1.3-3.5 4 1.7-2.2 3.5-4.4 5.4-6.5 1.9-2.1 3.9-4.1 6-5.9.5-.5 1.1-.9 1.6-1.4l.8-.7c.3-.2.5-.4.8-.7 1-.9 2-1.8 2.9-2.8.4-.5.8-1 1.1-1.5l.1-.1v-.1l.1-.1c0-.1.1-.2.1-.3.1-.2.1-.4.1-.6 0-.2-.1-.4-.2-.6-.1-.2-.3-.3-.5-.5l-.6-.3c-.1 0-.2-.1-.4-.1-.1 0-.3-.1-.4-.1-.6-.1-1.2-.2-1.9-.3-.6-.1-1.3-.1-2-.1h-2.2l1.1-.7zm-48.8 37.6c.1 0 .2.1.4.1 0 .1.1.2.1.2-.2 0-.3-.1-.5-.1-.3-.1-.6-.1-.9-.2h-.2 1.1zm-20.1-37.2c.2-.2.4-.3.4-.4v-.1c.1 0 .2.1.2.1-.1.1-.2.2-.4.2l.8-.4-.7.3h.3-.4l-.1.2c0 .2-.1.1-.1.1zm.2-.5c0 .1 0 .1 0 0 0 .1-.1.1-.2.2v-.2s0-.1.1-.1c0 0 .1 0 .1-.1-.1.2 0 .2 0 .2zm10.8 35.8c-.1 0-.2.1-.4.1-.1 0-.2.1-.3.1h-.2l.6-.3c.1.1.2.1.3.1zm29.6-1.4l-.6-.1h.1c.2 0 .5-.1.7-.1h-.2c.8-.3 1.7-.6 2.6-.9 1.3-.3 2.7-.9 4.1-1.8-.1.1-.2.3-.3.4-1.1.5-2.1 1-3.2 1.4-1.2.4-2.2.8-3.2 1.1zm-25-24.5c-.1 0-.2 0-.3.1l-.1-.1h.4zm-.5-.1s.1 0 0 0c.1 0 0 0 0 0zm-.5-6.6h-.6.6zm-4.8-.9l-.1.1.1-.1c-.1 0-.1 0 0 0zm7.3-14.4c0-.1.1-.2.1-.3l.1-.1c0 .2-.1.3-.2.4zm-13 11.2l-.5.2c.2 0 .3-.1.5-.2zm.7-2.2c.1-.2.2-.2.4-.3.1.1.2.1.3.2-.2.2-.4.3-.7.4v-.3zm-4.6 37.7c-.2.1-.3.2-.5.3.2-.1.3-.2.5-.3zm3.8-2.7c.1-.1.1-.2.1-.3l.1-.1v-.1l.2.2c-.1.1-.3.2-.4.3zm9.1 4.6c1.1.1 2.1.1 3.2.3-1.2 0-2.4-.1-3.6-.2.1 0 .2 0 .4-.1zm30.3-6.2c-.9.4-1.8.7-2.7.9l.3-.2c.1-.1.3-.1.1-.2.8-.3 1.6-.6 2.4-1.1.3-.2.6-.4.8-.6.5 0 1 .1 1.5-.1-.7.5-1.5 1-2.4 1.3zm1.9-4.8h0zm-20.8-43.8c-.1.2-.3.4-.1.3-.1.1-.1.1-.1.2-.3.2-.5.5-.8.7.3-.4.5-.7.8-1.1.1.1.2 0 .2-.1zm-12.4 9.1c.1-.1.2-.1.3-.2-.1.2-.3.4-.4.6-.1 0-.1.1-.2.1-1.6 1.5-2.2 2.1-2.6 2.5l-.1.1-.6.6-.2.1-.8.6c-.3.2-.6.4-.7.6-.1 0-.3.1-.4.2h-.1c.1-.1.1-.3.1-.4.7-.4 1.3-.9 2-1.3.4-.3.8-.6 1-.9.1-.2-.1-.1-.5.1l-2.4 1.5v-.5c2-1.2 3.8-2.4 5.6-3.7-.1.1-.1.1-.1.2l.1-.2zm-12 43.5zm-.4 11.7c.1-.1.2-.3.1-.2.7-.7 1.5-1.4 2.3-2.1.3-.3.6-.5.9-.8.4-.2.8-.4 1.3-.6-.8.5-1.6 1.2-2.4 1.8-.8.7-1.6 1.5-2.4 2.2l.2-.3zm4.9-14v-.1s.1 0 .1-.1c.1 0 .1.1.2.1-.2.1-.2.1-.3.1zm4.2 6.1h.5s-.1 0-.4.1h-.4c.1 0 .2 0 .3-.1zm.2-.7l.3-.1h-.1c.2-.1.4-.2.7-.3h.3c-.3.1-.5.2-.8.4l-.1.1-.3-.1zm29-1c0-.1 0-.1 0 0-.1-.1 0-.1 0 0 .1-.1.3-.1.5-.2h.1c-.2 0-.4.1-.6.2zm.8-.3c0-.1.1-.1.2-.1h.4c-.2 0-.4.1-.6.1zm10.6-12.3l.2-.1s-.1 0-.2.1zm-25.4-45.1c-.3.4-.6.8-1 1.3-.3.3-.7.5-1 .8.3-.4.6-.8 1-1.2.4-.4.7-.6 1-.9zM134 178.8v.2l.2.5c-.2.1-.3.3-.4.4 0-.4.1-.7.1-1 0-.1 0-.1.1-.1zm5.7 3.9zm-5.1 46.5c.2-.2.3-.4.5-.5l-.1.1c.6-.7 1.2-1.4 1.9-2.1 1-.9 2.2-1.8 3.4-2.7-.3.3-.6.6-.8.9-.7.5-1.3 1-1.9 1.5-.8.7-1.5 1.4-2.2 2.3l-.3.3c-.2 0-.4.1-.5.2zm9.9-10.6c.1-.1 0-.1-.2-.1.1 0 .2-.1.3-.2.6-.2 1.2-.4 1.9-.7h.1c1 .2 1.9.3 2.8.4v.1c0 .1.2.2.5.3H147c-.1 0-.1 0-.2-.1 0 0-.3 0-.8.1-.2 0-.3.1-.4.1-.3 0-.7 0-1.1.1zm11.9-.2s0-.1 0 0c.1 0 .2 0 .4.1-.1-.1-.3-.1-.4-.1zm.4.2c0 .1.1.2.1.3-.1-.1-.3-.1-.4-.1 0-.1-.1-.2-.1-.2.2-.1.3-.1.4 0zm-.8-.3zm10.3 0c1.2 0 2.3-.1 3.5-.3 2.1-.3 4.2-.8 6.2-1.4.4-.1.8-.3 1.2-.4.2 0 .5-.1.7-.1-2.1.7-4.2 1.3-6.3 1.8-1.8.4-3.7.6-5.6.6.1-.1.2-.1.3-.2zm25.3-12.6c.5-.6 1-1.2 1.4-1.8 1.1-1.3 2.1-2.7 3.2-4 1.1-1.3 2.2-2.6 3.4-3.8 1.2-1.2 2.4-2.4 3.7-3.6.6-.6 1.3-1.1 1.9-1.7.3-.3.7-.6 1-.8.3-.3.6-.5 1-.8.6-.6 1.3-1.1 1.8-1.7.6-.6 1.1-1.2 1.6-1.9.1-.2.2-.3.3-.5.1-.2.2-.3.3-.5.2-.3.3-.7.4-1 .1-.4 0-.7-.1-1.1-.2-.3-.4-.6-.7-.8-.2-.1-.3-.2-.5-.3-.1 0-.2-.1-.2-.1-.1 0-.2-.1-.3-.1l-1.2-.3c-.8-.2-1.6-.2-2.5-.3-.6 0-1.1 0-1.7-.1h.7c.5 0 1.1.1 1.7.1.6.1 1.2.1 1.6.2.5.1.7.1.7.1s-.3-.1-.7-.2c-.4-.1-1-.2-1.6-.2-.6-.1-1.2-.1-1.7-.1h-.5l.2-.1c1 0 2 .1 2.9.2.5.1 1 .1 1.4.3.2.1.5.1.7.2l.6.3c.3.2.6.3.8.6.2.2.4.5.5.9.1.3 0 .7-.1 1-.1.3-.2.6-.4.9-.3.6-.8 1.2-1.3 1.8-.5.6-1 1.1-1.5 1.6s-1.1 1-1.7 1.5c-.6.5-1.2.9-1.7 1.4-1.1 1-2.3 2-3.3 3-2.2 2.1-4.2 4.3-6.1 6.6-1 1.1-1.9 2.3-2.8 3.5-.5.6-.9 1.2-1.4 1.7.2.1.2 0 .2-.1zm9.5-23.5c1.3-.1 2.6-.1 3.9-.1.6 0 1.3 0 1.9.1.6.1 1.2.1 1.8.3.3.1.5.1.8.2H209.8c.1 0 .1 0 .1.1.2.1.4.3.4.5s0 .4-.1.6v.1s0 .1-.1.1c-.1.1-.1.2-.2.3-.2.2-.3.5-.5.7-.7.9-1.7 1.8-2.6 2.7-.2.2-.5.4-.7.6l-.4.3-.4.3c-.5.4-1.1.9-1.6 1.3-.2.1-.3.3-.5.4h-.2c-.4.2-.8.4-1.1.6l-.1.1h-.4c-.4.1-.7.3-1.1.4l-.5.2c-.1 0-.2.1-.3.1l-.2.1h-.2l-2.2.7c-1.4.5-2.9.9-4.4 1.3 1.4-.6 2.9-1.2 4.4-1.7.5-.2.9-.4 1.4-.5l.7-.3s.1 0 .2-.1c.1 0 .1 0 .2-.1l.2-.1h.2c.9-.4 1.7-.8 2.7-1.1.1 0 .2-.1.1-.1 0 0-.1-.1-.2 0-1 .3-1.9.7-2.8 1.1-.1.1-.3.1-.4.2l-.2.1-.2.1-.8.3-1.4.6c-1.8.7-3.6 1.4-5.7 1.8-.2 0-.3.1-.5.1 1.2-.7 2.3-1.4 3.5-2.1.9-.2 1.9-.5 2.8-.7l1.4-.4.7-.2c.3-.1.5-.2.8-.2 1.8-.6 3.6-1.3 5.4-2 .2 0 .3-.2.3-.3 0-.1-.2-.1-.4-.1l-6.4 1.2c.1-.1.3-.2.4-.2l.4-.2c1.3-.4 2.7-.7 4-1.1.5-.1.9-.5.8-.8-.1-.3-.5-.4-1-.3l.2-.1c.1 0 .1-.1.1-.1s-.2-.1-.2 0c-.3.1-.5.3-.8.4-1.3.3-2.6.6-3.8.9l-3.8.8c.7-.2 1.4-.4 2-.7l1-.3.3-.1.2-.1.2-.1.3-.1c1.4-.5 2.7-.9 4.1-1.3v.1c.1 0 .2 0 .2-.1.1-.1 0-.1 0-.1l4.5-1.2c.1 0 .2-.1.1-.1 0-.1-.1-.1-.2-.1-2.5.6-5 1.3-7.4 2.1l-.9.3-.5.2c-.1.1-.3.1-.4.2-.1 0-.1 0-.2.1l-.2.1-.5.1-.9.3-3.6 1.2-.8.2c-.1-.2-.3-.4-.6-.5 1.7-.4 3.4-.9 5.1-1.4l1.1-.2h.5l.5-.1 2.2-.5c.2 0 .4-.2.3-.3 0-.1-.2-.2-.4-.1l-1.1.3c.2-.2.4-.5.3-.8 0-.2-.2-.4-.5-.5 1.5-.6 3-1.3 4.4-2 .1 0 .1-.1.1-.2h-.2c-1.1.4-2.1.7-3.2 1.1l-3 1.1h-2.7c-.9 0-1.8.1-2.7.2-1.4.2-2.7.5-4 .8l-.9.3-.5.1-.2.1h-.2c-.1 0-.2.1-.3.1h-.2l-.2.1-.9.2c-.9 0-1.8.1-2.8.1.1-.1.2-.3.2-.4v-.1c.8-.1 1.6-.1 2.4-.2.5 0 .9-.1 1.4-.2h.4l.6-.1c.9-.2 1.8-.4 2.8-.6 1.8-.5 3.6-.9 5.4-1.5l1.3-.4.7-.2H197.5c.9-.3 1.7-.7 2.6-1l.3-.1c.3-.5.5-.5.7-.5zm-28.3 4.6c-.4 0-.8 0-1.2.1.9-.2 1.8-.3 2.7-.5-.5.1-1 .3-1.5.4zm38.8-68c.3-.4.5-.7.6-1 0 .1 0 .2-.1.4-.2.2-.3.4-.5.6zm.6-1.3c-.1 0-.2 0-.3.1.1-.2.2-.3.3-.5v.4zm-7.3-43.1c.4.5.8 1 1.2 1.4v1c-.4-.5-.8-1.1-1.2-1.6v-.8zm0 1.7v-.6c.4.6.8 1.1 1.2 1.7v.6c-.4-.6-.8-1.2-1.2-1.7zm0 4.3c.3.5.6.9.9 1.4v.5c-.3-.4-.6-.9-.8-1.3-.1-.2-.1-.4-.1-.6zm0 .9c.3.4.6.9.8 1.3v.4c-.3-.5-.5-.9-.8-1.4v-.3zm-.2 3.8c.2.4.4.9.6 1.3l-.3 1.8c-.2-.3-.4-.7-.6-1l.3-2.1zm-.9 6.4c.1-.8.3-1.6.4-2.4.2.3.3.6.5.9-.9 4.6-2.3 9.2-4 13.6 1.4-4.1 2.4-8.1 3.1-12.1zM186 128.2c-.3.5-.6.9-.9 1.4-.1 0-.1.1-.2.1.4-.5.8-1 1.1-1.5zm-51.6 47.2c0 .1 0 .2.1.1v.5c-.1 0-.1.1-.2.1 0-.3 0-.6.1-.9v.2zm-1.5-.7v-.2l.1-.3-.1.4v-.1c0 .4 0 .9-.1 1.3-.1.5-.1 1-.2 1.6 0 .1-.1.1-.1.2 0-.1-.1-.2-.1-.2.3-.9.5-1.7.5-2.7zm.7 8.5c.2-.1.3-.1 1.1-.6h.1s0 .1-.1.1c0 .3 0 .4.8.3.2.1.4.2.7.3.3.2.6.4 1 .6l.1.1c-.2.2-.4.3-.6.5-.6-.2-1.3-.4-1.9-.6-.2-.1-.4-.2-.7-.2-.2-.2-.4-.3-.7-.5h.2zm1.8 12.8l.5.5c-.2-.1-.4-.3-.6-.4.1 0 .1-.1.1-.1zm-4.8 19.3c.1-.6.1-1.1.1-1.7v-.2c.2-.5.3-1 .4-1.5v-.1c.1-.1.2-.2.2-.3.4-.9.7-1.8 1-2.7.3-.9.6-1.9 1-2.8.6-1.9 1.3-4 2.1-5.9-.6 2.3-1.2 4.4-1.9 6.5-.4 1.3-.7 2.5-1.1 3.6-.3 1.1-.7 2.2-1.1 3.2-.1.1 0 .2 0 .2.1 0 .1 0 .2-.1.5-1 .9-2.1 1.2-3.2.4-1.1.7-2.3 1-3.6.4-1.2.7-2.5 1.1-3.8.2-.6.4-1.3.7-1.9l.2-.5v-.1h1c-.2.3-.4.5-.5.6-.1.1-.2.1-.2.2v.2l-.1.4c-.2 1-.3 2-.5 3l-1.2 3.2c-.4 1-.8 2.1-1.2 3.1-.4 1-.8 2-1.2 2.9l-.6 1.3c-.2.4-.4.8-.5 1.2-.1.1-.1.3 0 .4.1.1.2 0 .3-.2.6-.8 1.2-1.6 1.7-2.6.6-.9 1.1-1.8 1.6-2.7l-.1.5-.2.4-1.8 3.6c-.3.4-.3.9 0 1.1h0c-.5.2-.9.5-1.4.8-.3.4-.6.4-.8.7.3-1.1.5-2.1.6-3.2zm-.4 3.1c.1-.1.2-.1.3-.1l-.3.3v-.2zm-5.3.2v.3c-.2-.1 0-.3-.1-.6 0 .1 0 .3.1.3zm-2.9 11.3v.3c0 .2 0 .4-.1.6.1-.3.1-.6.1-.9zm-10.6 22.2s-.1.1 0 0c-.1.1-.1.1 0 0-.3.5-.2.3 0 0zm1.2 2H112.3s.1 0 .1-.1c0 0-.1 0-.1.1h-.1-.1-.2-.1c-.2-.1-.2-.1-.3-.2-.1 0-.1-.1-.2-.1v-.1l.1.1.1.1c.1 0 .1.1.2.1 0 0-.1 0-.1-.1l-.1-.1c.1 0 .1.1.2.1s.2.1.4.1h.8v.1h-.3zm25.3 56.9l-.2.2c.1-.7.2-1.3.3-2 .1 0 .2-.1.2-.2 0 .1 0 .1-.1.2 0 .1 0 .1.1.2-.1.6-.2 1.1-.3 1.6zm1.8-2.4c.1-.3.2-.6.3-.8v-.1s-.1 0-.1.1c-.1.4-.3.8-.4 1.2-.2.2-.3.5-.5.7 0-.1-.1-.1-.1-.1-.1 0-.1.1-.1.1 0 .1.1.1.1.1-.1.2-.2.3-.4.5.1-.7.3-1.3.5-2 .3-.3.6-.7.9-1.1v.2c0 .1 0 .1.1.2.1 0 .1-.1.1-.1 0-.2.1-.4.1-.6.5-.7 1-1.5 1.5-2.3h.1c-.6 1.3-1.3 2.7-2.1 4zm16.4-83c-.1.3-.2.5-.2.8-.2.5-.3 1-.4 1.5-.3 1-.5 2-.8 3-.2.6-.4 1.3-.6 2-.1.3-.2.7-.3 1 0 .2-.1.3-.1.5l-.1.3v.2-.1-.1c0-.1 0-.1-.1-.1h-.1c.1-.7.3-1.2.5-1.8.2-.6.3-1.2.5-1.7.3-1 .6-2.1.9-3.1.2-.5.3-1 .5-1.5.1-.3.2-.5.3-.8 0-.1 0-.1.1-.2h.1c-.2 0-.2 0-.2.1zm.3-1c0 .1-.1.2-.1.4v.2c0 .1-.1.1-.1.2 0-.2.1-.3.1-.5 0-.1 0-.1.1-.3 0 .1 0 0 0 0zm0-2c-.1.3-.2.6-.3 1l-.1.1-.1.1-.1.1c-.1.1-.1.2-.1.2v.1s-.1.1-.1.3v.2l-.1.1c-.1.2-.1.3-.2.4-.1.2-.2.5-.2.7-.2.4-.3.9-.4 1.3-.3.9-.6 1.7-.8 2.6-.3.9-.5 1.7-.8 2.6-.1.4-.3.9-.4 1.4-.1.2-.1.5-.2.8v.4l-.1.2v.1h.1l.2-.2v-.1V234.7c.1-.3.1-.5.2-.8.1-.5.2-.9.4-1.4.3-.9.5-1.8.8-2.6.3-.9.5-1.7.8-2.6.1-.4.3-.9.4-1.3.1-.2.2-.4.2-.7v-.1.2l.3.1h-.2c0-.3.1-.5.2-.7 0 0 0-.1.1-.1l.1-.1V224.3l.1-.1v-.1l.1-.1.1-.1.1-.1c-.1.2-.1.5-.2.7 0 .1-.1.3-.1.4v.1c0 .1-.1.2-.1.3-.1.2-.2.5-.2.7l-.4 1.3c-.3.9-.5 1.7-.8 2.6-.3.9-.5 1.7-.7 2.6-.1.4-.2.9-.3 1.3-.1.2-.1.5-.2.7v.5l.1-.1-.2.3-.1.2-.2.2-.1.1-.1.1-.2.2c-.2.3-.5.5-.7.8-.5.4-.9.8-1.4 1-.5.2-1.1.4-1.7.6-.7.2-1.4.3-2.2.4l-2.3.4c.9-.2 1.9-.4 2.8-.6.9-.2 1.7-.4 2.4-.7.7-.3 1.2-.5 1.7-.9s1-1 1.5-1.6v-.1-.1h-.1l-.1.1c-.4.4-.7.8-1 1.1-.3.3-.7.5-1 .7-.3.2-.7.4-1.2.5-.5.2-1 .3-1.6.4-.6.1-1.2.2-1.9.4l-1.9.4h-.4c-1.1.2-2.1.3-3.2.4-.7-.1-1.7-.2-2.7-.4l-1.5-.3c-.8-.3-1.6-.5-2.3-.9.1.1.2.1.3.2-1.4-.7-.8-2.3-.8-3.5.1-.5.2-1 .4-1.5s.4-1 .7-1.5c-.1 0-.1 0-.2.1.2-.3.4-.5.7-.9l-.3.3c.3-.4.7-.9 1-1.4 1-1 2.2-2.2 3.5-3.4l.1-.1c.2-.1.5-.3.8-.6.1-.1.3-.2.4-.3 1-.6 2.3-1.3 3.6-1.9-.3.1-.6.2-.8.3l1.2-.6h-.2c.7-.3 1.5-.7 2.2-1 .7-.3 1.3-.6 1.7-.9.4-.3.5-.5.3-.6-.2-.1-.6-.2-1.3-.1h-.2c.6-.3 1.2-.5 1.5-.7h.3c2.2 0 4.4.1 6.7.6l.3.1h.4c.2 0 .4.1.5.2.1.1.2.3.3.4l.1.2.1.3v.1c-.6.5-.6.8-.7 1.2zm.3 1.1l-.1.1c0-.1 0-.2.1-.1-.1-.2 0-.3 0-.4l.1-.1c0 .1-.1.3-.1.5zm.2-.9c0 .1 0 .2-.1.3l-.1.1c.1-.3.2-.6.2-.9 0-.2.1-.4.1-.5v-.2.2c0 .1.1.2.1.3 0 .1-.1.4-.2.7zm1.2-2.6c-.1-.2-.2-.3-.2-.5-.1-.2-.1-.5-.2-.8l.2.2c0 .5.1.8.2 1.1zm0 33.5c0-.1.1-.1.1-.2v.1c0 .1-.1.1-.1.1zm.2-33.1l-.1-.2c-.1-.4-.2-.7-.3-1.1 0 .1.1.1.1.2.1.4.2.8.3 1.1zm.2 1.8v-.3V222.4zm.1-.2c0-.1 0-.2-.1-.3v-.2c.1.1.1.3.1.5 0-.1 0 0 0 0zm.7 33.3c-.1-.7-.3-1.4-.4-2.2-.1-.5-.2-1-.3-1.6 0-.1 0-.3.1-.4.1.7.2 1.3.3 2l.3 1.5v.7zm1.2.9c0-.2-.1-.4-.1-.7.2-.1.1-.6 0-.9-.1.1-.1.1-.1.2-.1-.7-.3-1.3-.4-2-.5-2.1-1.2-4.2-1-6.5v.3c.4 2.1.5 4.1 1.2 6.1.1.5.2 1.1.3 1.6 0 0 0 .1-.1.1 0 0 0-.1.1-.1.1.6.3 1.2.4 1.8-.1-.2-.1-.3-.2-.4l.2.5v.1c0 .2.1.4.1.5-.1-.1-.2-.3-.4-.6zm.6 1c0-.1 0-.2-.1-.2-.2-1-.4-2-.6-3.1-.6-2.5-1.3-5-1.3-7.6v.5c.2 2 .7 4 1.2 6 .2 1.2.5 2.4.7 3.6.1.4.2.8.3 1.1-.1 0-.2-.2-.2-.3zm1.4 6.5c-.1-.4-.2-.7-.3-1.1v-.3.1c.1.2.1.5.2.7 0 .2 0 .4.1.6zm-1.9-10.9c.2 1.2.5 2.4.7 3.6.1.6.3 1.2.4 1.8l.2.9.1.4.1.5v.2c-.2-.6-.4-1.1-.6-1.7l-.1-.3c-.1-.6-.3-1.2-.4-1.8-.3-1.2-.5-2.4-.7-3.6-.5-2.2-1.3-4.6-1.1-7 0 .4 0 .7.1 1.1.5 2 .6 4 1.3 5.9zm-1.1-9.7c.7-3.6.9-7.1 1.1-10.8v1.2c-.1 3.2-.2 6.5-1.1 9.6zm1.1-16.5v.1l-.1.3v-.1-.4l.1.1c.1 0 0 0 0 0zm.1.1l-.2-.1v-.6h.2-.2v-.2.2h.1-.1.1c.1.2.1.4.1.7zm-.1-4c0 .2-.1.4-.1.6 0-.2-.1-.5-.1-.7v-1.3c0-.3-.1-.6-.2-.9-.1-.1-.1-.3-.2-.4l-.1-.1v-.1l-.1-.1c-.1-.2-.2-.4-.3-.7.2 0 .4.1.5.1h.1c0 .1.1.1.1.2l.1.1.1.1v.1c0 .1.1.1.1.2.2.5.3 1.1.3 1.6-.1.5-.1.9-.2 1.3zm.6-3.4c0 .1.1.1.1.2.2.4.3.9.4 1.3.1.4.1.8.1 1.1 0 .7-.1 1.2-.2 1.8-.1.3-.1.6-.2.9v-.1c0-.1-.1-.2-.1-.3.1-.3.1-.7.1-.9v-.2c.1-.3.1-.7.1-1.1 0-.4 0-.8-.1-1.3 0-.2-.1-.5-.2-.7 0-.1-.1-.2-.2-.4 0-.1-.1-.1-.1-.2l-.1-.1c0-.1.2 0 .4 0zm16.2-3c-1.6.6-3.3 1-5 1.4-1.7.4-3.4.6-5.1.7h-1.9c.1 0 .2-.1.3-.1 2 0 4.1-.2 6-.6 2.2-.4 4.4-1.1 6.6-1.9.8-.2 1.6-.5 2.5-.9.1 0 .1-.1.2-.1h.1c-1.2.6-2.4 1.1-3.7 1.5zm30.8-36.2c.5.1.9.2 1.4.3.2.1.5.1.7.2.2.1.5.2.7.3.4.2.8.5 1.1.9.1.2.2.4.3.7.1.2.1.5.1.7 0 .5-.2 1-.4 1.4-.1.2-.2.4-.4.6-.1.2-.3.4-.4.6-.6.8-1.2 1.4-1.9 2.1-.7.7-1.4 1.3-2.1 1.9-.4.3-.7.6-1.1.9-.4.3-.7.6-1.1.9-.7.6-1.4 1.2-2.1 1.9-2.7 2.5-5.2 5.3-7.6 8.2-1.2 1.4-2.3 2.9-3.5 4.4-.2.2-.3.4-.5.6v-.2c1.4-1.7 2.8-3.5 4.2-5.2 1.5-1.9 3.1-3.7 4.8-5.4 1.7-1.7 3.4-3.4 5.3-4.9.5-.4.9-.8 1.4-1.2.5-.4.9-.8 1.4-1.2.9-.8 1.7-1.7 2.5-2.6.4-.5.7-1 .9-1.5l.3-.9c.1-.3.1-.6 0-.9-.1-.3-.2-.6-.4-.8-.2-.2-.4-.4-.7-.6-.5-.3-1.1-.5-1.7-.7-1.2-.3-2.4-.4-3.6-.5h-.3c.1 0 .1-.1.2-.1.9-.1 1.7-.1 2.5.1zm-36.8 5.8c1.5-.5 2.9-1 4.4-1.4 1.5-.4 3-.7 4.5-1.1 3.1-.6 6.1-1.1 9.2-1.6 3.1-.5 6.2-.9 9.3-1.1.5 0 1.1-.1 1.6-.1-.2.1-.4.1-.6.2-.4.2-.8.3-1.2.5-1.8.2-3.7.4-5.5.6-2.7.4-5.4.8-8 1.2-2.6.5-5.3 1-7.9 1.6-1.2.3-1.8.5-1.4.4.4-.1 1.7-.4 2.9-.7 3.8-.9 7.6-1.5 11.4-2.1 1.9-.3 3.8-.5 5.8-.8.8-.1 1.6-.2 2.4-.2-.3.1-.5.2-.8.3l-.3.1h-.2s-.1 0-.1.1c-2 .2-4 .5-6 .8-2.7.4-5.5.8-8.2 1.4-.5.1-.9.2-1.4.3h-1c-.1 0-.2.1-.2.1s0 .1.1.1c-.1 0-.2.1-.4.1 0-.1-.2-.2-.4-.1-2.7.5-5.4.9-8.2 1.3.1.1.2.1.2.1zm20.9-36.5l-2.1 1.8c.3-.4.6-.7.9-1.1 2.8-3.5 5.6-7.2 8.1-11 1.7-2.5 3.3-5.1 4.9-7.8 1.1-1.2 2.3-2.4 3.4-3.6-1 2.9-2.2 5.6-3.8 8.3-2 3.6-4.5 7.1-7.3 10.3-1.1.7-2.5 1.8-4.1 3.1zm16.5-22c-.9 2.4-2 4.8-3.2 7-1.3 2.3-2.7 4.4-4.2 6.5 1.7-2.6 3.2-5.2 4.5-8 .9-2 1.7-4 2.2-6 .4-.4.8-.9 1.2-1.3l.1-.1v.1l-.6 1.8zm12.7-18.6c.3 3.1.3 6.3.1 9.5-.1 1.5-.3 2.9-.6 4.3 0 .2-.1.3-.1.5-.3 1.3-.6 2.5-1 3.8.1-.4.2-.9.3-1.3.2-.9.3-1.7.1-1.7-.1 0-.2.1-.3.3.5-3.3.7-6.5.5-9.7 0-1 0-1.8-.1-2.6v-1.8c.4-.6.7-1.1 1.1-1.7v.4zm-.4-2.9c-.3.4-.6.9-.9 1.3 0-.5-.1-1.1-.1-1.6.3-.3.5-.7.8-1 .1.4.2.9.2 1.3z"/><path id="XMLID_112_" d="M80.2 306.2v.2-.2s0-.1 0 0c0-.1 0 0 0 0z"/><path id="XMLID_111_" d="M79.8 304.2c0-.2 0-.3-.1-.6v-.1.4c0 .2 0 .3.1.3z"/><path id="XMLID_110_" d="M79.7 303.5v-.2.2z"/><path id="XMLID_109_" d="M88.2 350v.2c.7 3.3 1.4 6.6 2.2 9.9 0 .1.1.2.1.2v-.2c-.8-3.3-1.5-6.6-2.2-9.8 0-.2-.1-.3-.1-.3z"/><path id="XMLID_108_" d="M93 374.9c0 .1 0 .2.1.3 0 .1 0 .1 0 0s0-.2-.1-.3c0-.1 0-.1 0 0z"/><path id="XMLID_575_" d="M90.1 359.6c-.9-3.3-1.6-6.4-2.3-9.7-.1-.3-.1-.6-.2-1l-.2-1c-.5-2.6-1-5.1-1.5-7.6.6 3 1.3 6 2 8.9 0 .2.1.3.1.3s0-.2-.1-.4c-.9-4.1-1.8-8.2-2.6-12.3 0-1.2-.3-3.6-.7-5.7-.1-.8-.3-1.5-.5-2.2l.2 1c-.2-1-.4-1.9-.6-2.7v-.2c-.2-2-.6-4.3-.9-6.5l-.1.2c0-.4 0-.6-.1-1.1v.4c0-.5-.1-1-.2-1.6-.1-1.3-.2-3-.5-4.7 0-.2 0-.6-.1-.9v-.5c0-1.1-.1-2.4-.2-3.8v.8c0-.4-.1-.8-.1-1.3v.2c-.1-1.4-.4-3.4-.7-4.3-.2-.5-.3-.6-.4-.5-.1.2-.1.6-.1 1.3v.2c-.1-.7-.3-1.3-.4-1.7-.1-.2-.1 0-.2 0s-.1.6 0 1.3c0 .2.1.4.1.6.1.9.2 1.8.3 2.6 0 .2.1.4.1.5v-.2c0-.6-.1-1.2-.1-1.8v-.1-.1.2c0 .1 0 .2.1.3.1 1.1.2 2.1.3 3.1 0 .1-.1 0-.1.1v.2c0-.2 0-.4-.1-.6l-.3-1.2v-.1l-.1-.3v-.4c0-.1 0-.3-.1-.3v-.2l-.1-1.3s0-.2-.1-.5c0-.3 0-.2-.1-.9v.3-.3.1-.1l-.1-.1v-.5l-.1-.4v-.1l-.1-.2V303.5c-.1-.1-.1-.1-.2.4v.7l.1 1.1v.6c0-.1 0-.2-.1-.3-.1-.2-.1-.3-.1-.1-.2-.3-.3-.1-.3.3-.1-.1-.1-.1-.2-.1-.2-.4-.3-.6-.5-.7h-.1c-.1.1-.1.5-.1 1v.2l-.1-.1c-.1.7-.2 2-.3 2.9v.6c0 .5 0 1.2.1 2l.1.9.1.5c-.3-.9-.5-1.4-.6-1.2-.2.3-.1 2.4.2 4.7.9 6 1.9 11.8 3.2 17.9.9 4.5 1.8 8.6 2.8 13 1 4.2 2.1 8.2 3.3 12.3 1 3.4 2 5.9 3 8.9 0 .1 0 .1 0 0s0-.2-.1-.3c-1.5-4.7-2.9-9.5-4.1-14.7-.1-.6-.3-1.2-.4-1.8v-.2l-.3-1.6.1.6c.1.4.2.7.2.7v-.1c.3 1.3.7 2.6 1.1 3.9.1.4.2.7.3 1.1.3 1.5.7 3.1 1 4.6l.1.4c.1.5.3 1 .4 1.2 0 .1.1.1.1.1 1 3.4 2 6.9 3.1 10.1l.1.2c0 .1 0 .1.1.2.1.4.3.8.4 1.2 0 .1.1.1.1.1 0-.1 0-.2-.1-.3-.2-.5-.3-.9-.5-1.3v-.1c0-.1 0-.2-.1-.4-1-3.3-2-6.5-2.9-9.9l1.5 5.1c.7 2.1 1.3 4.1 2 6.2 0 .1.1.2.1.2v-.2c-1.3-4.4-2.7-8.2-3.8-12.8l-.1-.5c.5 1.4.9 2.8 1.4 4.1 1.1 4.2 2.4 8.4 3.7 12.5.1.2.1.4.2.3 0 0 0-.2-.1-.4-.7-2.3-1.3-4.7-1.9-7.1l.2.5.2.5c.4 1.5.9 3 1.3 4.6.2.6.4 1 .4 1 .1 0 0-.5-.2-1l.1.3c0 .1.1.1.1.1s0-.2-.1-.2l-.3-.9-2.4-8.7c.9 3.1 1.8 6.3 2.8 9.4 0-.1 0-.1 0 0s.1.2.1.3c0 .1 0 .1 0 0 .5 1.7 1 3.4 1.6 5.1 0 .1.1.2.1.2v-.2c-1.8-5.6-3.5-11.3-5.1-16.8l-.2-.9v-.6c.5 2 1.1 3.9 1.6 5.9.4 1.6.9 3.3 1.3 4.9.1.2.1.4.2.4 0 0 0-.2-.1-.4l-.3-1.2c.1.3.2.5.3.5.1 0 .1-.2 0-.5.6 1.7 1.1 3.5 1.7 5.1 0 .1.1.1.1.1s0-.1-.1-.2c-.8-2.4-1.5-4.9-2.3-7.3-.5-2-.9-3.9-1.4-6-.7-3.1-1.5-5.9-2.3-8.8l-.7-3.1c.1.1.1.2.2.2l.6 2.7c1 4.3 2 8.4 3.2 12.4 1.2 4 2.4 8 3.8 11.9.2.5.3.9.4.8 0-.1-.1-.6-.2-1.1-1.2-3.8-2.3-7.3-3.5-11.2-.6-3-1.3-5.4-2.1-8.3zm-12.1-53l.4.4-.4-.4zm1.5-1.1v-.2c.1.1.1.2 0 .2zm.1 3.8v-.3.3zm1.6 6.7c0-.1 0-.3-.1-.2-.1-.9-.2-1.7-.4-2.6 0-.3-.1-.7-.2-1V311c.1.8.2 1.7.3 2.6.1.9.2 1.9.3 2.8l.1-.4zm1 2.1l-.1-.7v.1c-.1-.8-.2-1.7-.3-2.5-.1-1.2-.3-2.5-.4-3.8.1.4.2.7.3 1.1.2 1.7.3 3.3.6 5.1v.3l-.1.4z"/><path id="XMLID_101_" d="M95.1 314.9s.1 0 0 0c.1 0 0-.1 0 0 0-.1 0-.1 0 0z"/><path id="XMLID_570_" d="M93.9 314c-.2 0-.3-.1-.4-.1-.1 0-.1.1-.1.4 0-.5.3.1.5.5-.1.1-.1.3 0 .7.1.3.1.1.2.2 0 .2.1.5 0 .5.2.2.1.4.2.7.2.2.1 0 .2.1.1.4.3.9.4 1.2-.1.2-.1.6-.4.4-.2-.6.4.1.1-.5-.1.3-.3-.5-.5-.5 0 .2.1.6.3.9v-.1c.1.3.4.8.4 1.1-.1 0-.1.1-.2-.1l.1.4s.1.1.1 0c.1.2.2.3.2.5 0 0 .3.5.6.9s.6.9.6.9c.1.1.1.2.1.3-.1-.2-.3-.6-.5-.9-.4-.6-.7-1.1-.6-.9 0 .1.4.9.9 1.6.4.7.9 1.4.8 1.5.1.2.2.4.3.3.1.4-.2 0-.2.3h.1v.3c.4.5.6 1.3 1 1.8-.2-.1-.4-.2-.7-.5v-.1c-.1 0-.2-.3-.3-.3.1.4.3.6.5.9v.2c0 .1 0 .1-.1.1-.2.3.8 1.2 1 1.9.1.2.1 0 .2.2.2.7.4 1.1.6 1.8.2.1.3.1.3-.2l.2.5c-.5-.3.2 1-.3.7 0 .2.1.5.3.7.1 0 .2 0 .4.3.2.5.1.4.3.8 0 .1-.2 0-.2.1.5.5.1.6.4 1.2.2.3.6 1 .8 1 .3.5.1.5 0 .6l.2.4c-.7-1.2-1.4-2.6-2.1-3.9.5 1.6 1.1 3.3 1.9 4.7.8 1.5 1.8 2.7 3 3.4-.2.3 0 1.2.3 2s.7 1.5.8 1.5c.5.5.9 1 1.4 1.5 2.8 3.2 5.4 7 8.2 10.9.8 1.1 2.4 3 4 4.8.8.9 1.7 1.8 2.4 2.7l1.1 1.1.2.2.1.1.1.1.2.2.8.7c.5.5 1.1 1 1.6 1.6-.5-.4-.7-.7-.9-.9l-.9-.9c1.2 1 2.3 1.8 3.3 2.5s1.9 1.3 2.7 1.9c-.4-.4-.5-.6-1.3-1.4.3.3.6.5.9.8.3 0 .9.4 1.4.8l1.5 1c0 .2.7.8 1.3 1.3l-.4-.4c.2.2.5.4.7.6l.1.1H134.4c-.3-1.2-.7-2.4-1.1-3.6-.4-1.2-.7-2.3-1-3.3-.1-.3-.1-.5-.1-.6l-.8-2.5c.1.1.1-.3 0-.7-.1-.3-.1-.6.1-.2-.2-.4-.3-.9-.5-1.3-.1-.2-.1-.5-.2-.7-.1-.3-.1-.4-.2-.5-.2-.6-.4-1.1-.6-1.7-1.1-4-2.4-8.2-3.7-12.3l-.1.1c-.5-1.4-1.2-2.6-1.4-4.4-.3-.6-.5-1.4-.8-2-.3-.7-.5-1.2-.8-1.4-.1-.7-.3-1.3-.4-1.8-.1-.5-.3-1-.4-1.8-.1.2-.2-.2-.2-.5v-.3-.2c0-.1-.1 0-.1.1-.1.3-.1.5-.2.7v.5c0 .3 0 .5-.1 1h.1c0 1 .1 2 .2 3s.2 2 .4 3c.3 2 .7 3.9 1.1 5.8.8 2.5 1.3 5.3 2.1 8 .4 1.4.9 2.9 1.3 4.3l.3 1c.1.2.1.2.1.3l.1.2.4.8c.1.1.1.2 0 .3 0 0-.1 0-.2.1.1.2.2.5.3.8l.2.8.1.2h-.1l-.2-.2c-.2-.1-.3-.2-.4-.3-.2-.1-.4-.4-.6-.6-.2-.2-.3-.4-.5-.5 0 .1-.1 0-.1.1 0-.1-.1-.2-.4-.4l-.2-.1-.1-.1h-.1l-.1-.1-1.1-.9c-1.5-1.3-3.1-2.6-3.2-2.9l-.3-.3c-.9-1.1-1.7-2.3-2.5-3.4s-1.5-2.3-2.3-3.2c-.4-.3-.9-.7-1.3-1-.2-.4-.4-.3-.7-.8-.3-1.4-1-1.9-.7-1.2-.7-.8-1.3-1.7-1.9-2.5l-.9-1c-.3-.3-.3-.5-.3-.7-.6-.8-.3-.6-.9-1.5 0-.2-.4-.6-.8-1.1-.4-.5-.9-1-.9-1.1l.1.1c-.6-1-.7-1.9-1.3-2.9-1.5-2.8-3.4-5.8-4.7-8.5-.2.1.3.6.1.7-.8-1.6-1.4-3.3-2.1-4.9-.1-.3-.2-.7-.2-.9-.2-.5-.2-.3-.4-.6l.1-.1c-.4-.5-.2-.9-.5-1.4-.1 0-.2-.2-.3-.4.2-.1-.3-.6-.1-.6 0-.1-.1-.2-.1-.3-.1-.1-.5-.6-.9-1.1-.4-.5-.8-1-.9-1.1v-.1c-.1-.3-.3-.4-.3-.2l-.1-.4-.1-.4c0-.1 0-.2.2-.1-.2-.2-.3-.4-.3-.6.1.6.3 1.4.3 2.1-.2-.2-.3-.7-.4-1 0-.4-.2-1.1-.3-1.6-.1-.1-.3-.1-.3-.4.1-.2-.1-.3-.1-.5.2.2.2.5.3.7.2-.1-.1-.7-.2-.9-.1-.1-.2-.6-.4-.9.1 0 .1-.1.1-.2 0 0 0-.1-.1-.1 0 0 0 .1.1.1v-.2c-.1-.2-.2-.3-.2-.2 0 0-.1 0-.1.1 0-.1-.1-.1-.1-.2l-.4-.5-.1-.1c0 .1 0 .1-.1.1h-.1s-.1 0-.1.1l.1.1c.7.4.4.3.1.2zm.4.2c0-.1 0-.1.1 0h-.1zm.2-.6s.1.1.1.2c-.1-.2.3.2.6.5 0 .2.1.5 0 .5v.1c-.1-.1-.1-.2-.2-.3l.1.1c0-.1-.1-.5-.2-.7-.1 0-.1.1-.1.1l-.2-.2v-.2c0-.1-.1-.1-.1-.2v.1z"/><path id="XMLID_97_" d="M95.5 314.8l-.1-.1c.1 0 .1.1.1.1z"/><path id="XMLID_96_" d="M131.8 362.8s0 .1.1.1c0 0-.1 0-.1-.1z"/><path id="XMLID_95_" d="M95.7 314.9s-.1 0-.1-.1c0 .1.1.2.1.1z"/><path id="XMLID_94_" d="M99.9 358.9z"/><path id="XMLID_562_" d="M126.6 412c0-.6-.1-1.2-.2-1.8 0-.3-.1-.6-.1-.9l-.1-.4-.1-.4c-.2-1.1-.5-2.3-.8-3.5-.7-1.5-1.2-3.1-1.9-4.6-.8-1.6-1.8-3.3-2.6-4.5-.2-.3-.2-.6-.3-.9-.8-1.2-1.6-2.7-2.6-4v.1c-.5-.7-.6-1.3-1.1-2 0 0-.1-.1-.2-.1.1-.1-.7-1-1.5-1.9-.8-.9-1.7-1.7-1.7-1.9l-.2-.2c-.9-1.4-1.5-3.2-2.3-4.3-.3-.2-.6-.4-.9-.5 0-.3-.3-.2-.4-.4 0-1-.4-1.2-.4-.7-.4-.5-.7-1-1.1-1.5l-.6-.6c-.2-.2-.2-.3-.1-.5-.4-.4-.2-.4-.4-.9.1-.2-1.1-1.1-1.1-1.3l.1.1c-.3-.6-.2-1.2-.5-1.8-.4-.8-.9-1.7-1.3-2.5s-.9-1.7-1.2-2.4c-.2.1.2.3-.1.5-.4-.9-.5-2-.9-2.9v-.5c0-.3-.2-.1-.2-.4l.2-.1c-.3-.3 0-.5-.1-.8-.1 0-.1-.1-.2-.2.2-.1-.1-.3.1-.4v-.2l-.6-.6c-.2-.3-.5-.6-.6-.6v-.1c-.1-.2-.2-.2-.2-.1v-.4s.1-.1.2-.1c-.1-.1-.2-.2-.2-.4 0 .4-.1.8-.2 1.3-.1-.1-.1-.4-.1-.6.1-.2.1-.7.1-1 0-.1-.3-.1-.2-.2.1-.1 0-.2 0-.3.1.1.1.3.1.4.2-.1 0-.4.1-.5-.1 0-.1-.3-.2-.5.1 0 .1-.1.1-.1v-.1c0-.1-.1-.2-.1-.1 0 0-.1 0-.1.1l-.1-.1c-.2-.2-.4-.5-.4-.4 0 0 0 .1-.1 0h-.1-.1.1c0 .3-.2.2-.5.2-.3-.1-.6-.1-.6.2.2-.3.2 0 .3.3-.1 0-.2.2-.2.4.1.2.1.1.2.1 0 .1 0 .3-.1.3.2.1 0 .2.1.4.1.1.1 0 .2.1 0 .2.1.5.1.7-.1.1-.2.4-.4.2-.1-.3.3.1.2-.3-.2.2-.1-.3-.4-.3-.1.1 0 .4.1.6.1.2.2.5.1.7-.1 0-.1.1-.2 0v.2h.1c.1.1.1.2.1.3 0 0 .1.3.3.6.2.3.4.5.4.5v.2c-.1-.1-.2-.3-.3-.5-.2-.3-.4-.7-.3-.6 0 .1.2.5.5 1 .3.4.5.9.4.9 0 .1.1.3.2.2 0 .2-.2 0-.2.2h.1l-.1.2c.3.3.2.8.6 1.1-.1-.1-.3-.1-.5-.3v-.1s-.1-.2-.2-.1c0 .2.1.4.3.6v.1c0 .1 0 .1-.1.1-.2.2.5.7.5 1.2.1.1 0 0 .2.1.1.4.1.7.2 1.1.2.1.2.1.3-.1l.1.3c-.4-.1 0 .7-.5.5 0 .1 0 .3.2.4.1 0 .2 0 .3.2 0 .3 0 .2.1.5-.1.1-.1 0-.2.1.3.3-.1.4.1.8.1.2.4.6.5.5.1.3 0 .4-.1.4l.1.2c-.4-.8-.8-1.6-1.1-2.4.1 1 .3 2.1.8 3 .4.9 1.1 1.6 2.1 1.9-.3.3-.2.8-.1 1.3s.4.9.4.9c.3.3.6.5.9.8.9.9 1.7 1.9 2.5 3 .7 1.1 1.4 2.3 2.1 3.5.4.7 1.2 1.8 1.9 3 .8 1.2 1.5 2.4 1.8 3.1l.3.6-.3-.7c.7.7 1.3 1.2 1.9 1.9 0-.2.1-.3 0-.6l.2.4c.5.2.9.9 1.3 1.2-.2 0 0 .3.1.6v-.2c.5 1 1.3 2 1.7 2.8.1.1.1.2 0 .3.2.3.4.5.5.8-.2 0 .2.8-.1.4.5.5.7 1.2 1.2 1.7 1.1 2.1 2.1 4.4 3.2 6.6l.1-.1c.4.8 1 1.4 1.2 2.5.1.2.2.4.3.5.1.2.2.4.4.6.2.4.5.7.7.8.1.4.3.7.4 1 .1.3.3.6.4 1 .1-.1.2.1.3.3 0 0 0 .1.1.1 0 0 0 .1.1.1 0 0 .1 0 .1-.1.1-.3.1-.5.1-.7-.1-.2-.1-.4-.1-.6zm-27.3-53.5c0-.1 0-.1.1 0h-.1zm.6.4s.1.1 0 0v.1s-.1-.1-.1-.2c0 .1.1.1.1.1 0-.1-.1-.3-.1-.4-.1 0-.1.1-.1.1l-.1-.1s0-.1-.1-.1v-.1.1c0-.1.2.1.4.3.1 0 .1.2 0 .2z"/><path id="XMLID_90_" d="M100.3 358.9c0-.1-.1-.1 0 0-.1-.1-.1-.1 0 0 0-.1 0-.1 0 0z"/><path id="XMLID_89_" d="M100.4 358.9s-.1 0 0 0c0 0 0 .1 0 0z"/><path id="XMLID_88_" d="M131.7 390.5c-.1 0-.1 0 0 0-.1-.1-.1-.1 0 0-.1 0-.1 0 0 0z"/><path id="XMLID_87_" d="M131.8 390.5h-.1c.1 0 .1.1.1 0z"/><path id="XMLID_86_" d="M131.3 390.6c0 .1 0 .1 0 0z"/><path id="XMLID_85_" d="M132.3 432.2z"/><path id="XMLID_84_" d="M202.7 186.5c-.1 0-.2 0-.2.1-.1.1 0 .1 0 .1.1 0 .2 0 .2-.1.1 0 .1-.1 0-.1z"/><path id="XMLID_83_" d="M186.5 206.5v-.1c-.1 0-.1 0 0 .1-.1 0-.1.1-.1.1l.1-.1z"/><path id="XMLID_82_" d="M187.1 203.8c.2-.2.3-.3.4-.6v-.2l-.3.3c-.2.3-.2.5-.1.5z"/><path id="XMLID_81_" d="M187.5 203.1l.1-.1-.1.1c0-.1 0-.1 0 0z"/><path id="XMLID_80_" d="M131.4 194.3v-.1c-1.3-1.1-2.7-2-4.2-2.9h-.1v.1c1.5.9 2.9 1.8 4.2 2.9h.1z"/><path id="XMLID_79_" d="M121.5 184.1c.1 0 .1-.1 0-.1 0 0-.1-.1-.1 0 0 0-.1.1 0 .1h.1z"/><path id="XMLID_78_" d="M64.9 194s0 .1 0 0c0 .1 0 .1 0 0 0 .1.1 0 0 0z"/><path id="XMLID_77_" d="M64.2 194.7c-.1 0-.1-.1-.2-.1v.1l.1.1c.1.1.1 0 .1-.1z"/><path id="XMLID_76_" d="M63.9 194.7z"/><path id="XMLID_75_" d="M62.3 208.5c.1 0 .1 0 0 0 .1 0 .1 0 0 0h-.1.1z"/><path id="XMLID_74_" d="M76.8 251.3c0-.1.1-.2.1-.3v.1s0 .1-.1.2z"/><path id="XMLID_73_" d="M76.8 251.3c-.1.4-.4.8-.5 1.2.2-.4.4-.8.5-1.2z"/><path id="XMLID_72_" d="M75.6 255.8c.1-.8.2-1.6.4-2.4 0-.3.2-.6.3-.9-.1.3-.3.6-.3.9-.2.8-.3 1.6-.4 2.4z"/><path id="XMLID_71_" d="M73.8 262.5v-.7-.1.8z"/><path id="XMLID_70_" d="M74.9 256.3c-.2.5-.4 1-.5 1.5-.1.1-.1.3-.2.4 0-.1.1-.2.1-.4v.7c.1.2.1.4.2.6 0-.3.1-.5.1-.8 0-1.1.8-2.3.9-3.4.1-1.1.7-2.1.8-3.2-.1.8-.5 1.6-.7 2.3-.1.4-.1.8-.2 1.3 0 .3-.2.7-.5 1z"/><path id="XMLID_69_" d="M76.4 251.7z"/><path id="XMLID_68_" d="M73.7 263.4z"/><path id="XMLID_67_" d="M73.9 259.8v-.4.4z"/><path id="XMLID_66_" d="M73.7 263.6c-.1.7-.3 1.3-.3 2 .1-.7.3-1.4.3-2z"/><path id="XMLID_65_" d="M73.2 262.5s0 .1 0 0c.1.1.1 0 0 0 .1-.6.1-1.2.1-1.8v-1.5.3c-.1.9-.1 1.9-.1 3z"/><path id="XMLID_64_" d="M73.7 263.4v0z"/><path id="XMLID_63_" d="M73.4 266.3s0 .1 0 0c0 .1 0 0 0 0v-.7c0 .2-.1.4 0 .7z"/><path id="XMLID_62_" d="M74.3 262.5c0 1-.4 2.1-.3 3.1 0 .3.1.5.1.4v-.5c0-1 .4-2 .4-2.9.1-.9.1-1.8.2-2.7 0-.2-.1-.5-.1-.7 0 .5-.1 1-.2 1.5 0 .5-.1 1.1-.1 1.8z"/><path id="XMLID_61_" d="M78.6 246.7l-.1.1v.1c-.1-.1 0-.2.1-.2z"/><path id="XMLID_60_" d="M73.1 264.3c-.3.1-.6.1-.6.1-.1 0 .3 0 .6-.1z"/><path id="XMLID_59_" d="M76.4 251.7v-.2.2z"/><path id="XMLID_58_" d="M79 246.2c-.1.2-.3.3-.4.5.1-.2.3-.3.4-.5z"/><path id="XMLID_57_" d="M73.3 258.9v.2c0-.3.1-.6.2-.8v-.1c0 .2-.1.5-.2.7z"/><path id="XMLID_56_" d="M76.1 250.9c-.1.2-.1.5-.2.7.1-.3.2-.5.2-.7z"/><path id="XMLID_55_" d="M68.1 224.2s-.1.1 0 0c-.1.1 0 0 0 0z"/><path id="XMLID_54_" d="M69.5 225c.2-.2.3-.4.5-.5-.2.1-.4.3-.5.5z"/><path id="XMLID_53_" d="M83 220.6s0 .1 0 0c.1.1.1.1 0 0 .1 0 0 0 0 0z"/><path id="XMLID_52_" d="M142.9 391.8c0-.1.1-.1.1-.2s0-.2.1-.2c.1-.6.2-1.2.3-1.7-.1.6-.3 1.2-.4 1.7-.1.2-.1.3-.1.4z"/><path id="XMLID_51_" d="M135 358.4c.1-.1.1-.2.1-.3-.2 0-.8-.1-.1.3z"/><path id="XMLID_50_" d="M145.6 344.1c-.1.7-.3 1.5-.4 2.3-.3 1.2-.4 2.3-.5 3.5.1-.9.2-1.9.4-2.9.1-.6.2-1.3.3-1.9.1-.8.3-1.7.5-2.5l.3-1.5-.3 1.2-.3 1.8z"/><path id="XMLID_49_" d="M142.9 337.2c-.1 1.7-.1 3.4-.3 5.1.2-1.8.3-3.4.3-5.1z"/><path id="XMLID_48_" d="M144.7 349.9c-.3 2.2-.4 4.5-.6 6.7.4-2.2.4-4.5.6-6.7z"/><path id="XMLID_47_" d="M146.1 353.5c0-2.3.4-4.5.7-6.8-.6 2.2-.9 4.5-.7 6.8z"/><path id="XMLID_46_" d="M138.9 309.1c-.1 0-.1.1-.1.1 0 .1.1.1.1.1.1 0 .1-.1.1-.1.1-.1 0-.1-.1-.1z"/><path id="XMLID_45_" d="M144.7 220.5c.1-.1.1-.1 0 0 .1-.1.1-.1 0 0h-.1.1z"/><path id="XMLID_44_" d="M147.4 219.2h.1z"/><path id="XMLID_43_" d="M152.5 234.9c0-.1 0 0 0 0-.1 0-.1 0 0 0z"/><path id="XMLID_41_" d="M119 239.2l.1-.1s0-.1.1-.1c-.1 0-.1.1-.2.2z"/><path id="XMLID_40_" d="M159.7 239.1c.1-.5.1-1 .2-1.6v-.1c-.1.6-.1 1.1-.2 1.7z"/><path id="XMLID_39_" d="M134.8 316.4v-.1h-.1l.1.1c-.1 0-.1 0 0 0z"/><path id="XMLID_38_" d="M123.4 256.7c.2 0 .3-.1.5-.2-.1 0-.3.1-.5.2z"/><path id="XMLID_37_" d="M123.4 256.7c-.3.1-.7.2-1.1.2h.3c.3-.1.5-.2.8-.2z"/><path id="XMLID_36_" d="M124.3 215.5c-.1-.9-.1-1.8-.2-2.7-.1-.9-.1-1.8-.2-2.7.1.9.1 1.8.2 2.8 0 .9.1 1.8.2 2.6 0 .1 0 .1 0 0z"/><path id="XMLID_35_" d="M127.1 202.3v.1h.1l-.1-.1z"/><path id="XMLID_34_" d="M109 240.5c.3-.9.7-1.8 1-2.6l1-2.4v-.1s-.1 0-.1.1l-1 2.4c-.3.7-.7 1.6-.9 2.6-.1 0-.1 0 0 0-.1 0 0 0 0 0z"/><path id="XMLID_33_" d="M115.7 229.3c.1 0 .1-.1.1-.1h-.1c-.1 0-.1.1 0 .1z"/><path id="XMLID_32_" d="M103.5 244.7c.1 0 .1-.1 0 0-.2-.8-.2-1.4-.2-2 0-.6 0-1.1-.1-1.7v-.1.1c0 .5 0 1.1.1 1.7 0 .5 0 1.2.2 2 0-.1 0 0 0 0z"/><path id="XMLID_31_" d="M103.4 236.3s0-.1 0 0c0-.1 0-.1 0 0z"/><path id="XMLID_30_" d="M99.6 231l-.2-.2c-.1-.1-.2-.2-.2-.3-.2-.2-.3-.4-.5-.7l-.2-.3-.2-.3s0-.1-.1-.1v.1l.2.3.2.3c.2.2.3.5.5.7.1.1.2.2.2.3l.3.2c.1.1.1.2.2.3-.1-.1-.2-.2-.2-.3z"/><path id="XMLID_29_" d="M102.6 228.8s.1-.1 0 0c.1-.1.1-.1 0 0 0-.1 0-.1 0 0z"/><path id="XMLID_28_" d="M104.1 179.7c0 .1.1.1.2 0 .3-.2.6-.3.9-.5v-.1h-.8c-.1.1-.2.2-.3.2 0 .3-.1.4 0 .4z"/><path id="XMLID_27_" d="M89.4 205.9h.1c.1 0 .1-.1.1-.1 0-.1 0-.1-.2.1 0-.1 0-.1 0 0z"/></g></svg>