<?xml version="1.0" encoding="utf-8"?>
<!-- Generator: Adobe Illustrator 19.1.0, SVG Export Plug-In . SVG Version: 6.00 Build 0)  -->
<svg version="1.1" id="telepathy" xmlns="http://www.w3.org/2000/svg" xmlns:xlink="http://www.w3.org/1999/xlink" 
	 viewBox="-41 164.9 512 512" style="enable-background:new -41 164.9 512 512;" xml:space="preserve">
<circle cx="215.8" cy="442.4" r="87"/>
<path d="M287.5,531.1c-20.3,16-45.4,24.9-71.8,24.9c-26.7,0-52.1-9.1-72.4-25.4c-53.7,19.7-77.6,88.6-77.6,120h298.6
	C364.3,619.4,340.2,551,287.5,531.1z"/>
<path d="M68.4,242.7c37.8-32.1,90.1-51.9,147.8-51.9s110,19.8,147.8,51.9L338.9,264c-31.4-26.6-74.8-43.1-122.7-43.1
	c-47.9,0-91.3,16.5-122.7,43.1L68.4,242.7z"/>
<path d="M138.8,302.4c19.8-16.8,47.1-27.2,77.3-27.2s57.5,10.4,77.3,27.2l25.8-21.9c-26.4-22.4-62.9-36.2-103.1-36.2
	s-76.7,13.8-103.1,36.2L138.8,302.4z"/>
<path d="M183.9,340.6c8.3-7,19.7-11.3,32.3-11.3c12.6,0,24,4.3,32.3,11.3l25.3-21.5c-14.7-12.5-35.1-20.2-57.6-20.2
	s-42.9,7.7-57.6,20.2L183.9,340.6z"/>
</svg>
