<?xml version="1.0" encoding="utf-8"?>
<!-- Generator: Adobe Illustrator 20.0.0, SVG Export Plug-In . SVG Version: 6.00 Build 0)  -->
<svg version="1.1" id="Layer_2" xmlns="http://www.w3.org/2000/svg" xmlns:xlink="http://www.w3.org/1999/xlink" x="0px" y="0px"
	 viewBox="0 0 208.3 253.7" style="enable-background:new 0 0 208.3 253.7;" xml:space="preserve">
<style type="text/css">
	.st0{fill:#191724;}
</style>
<title>circle</title>
<g>
	<path class="st0" d="M79,8.2C79.8,9.2,79,8.3,79,8.2L79,8.2z"/>
	<path class="st0" d="M131.6,247.9c-1.2-0.3-2.4,0.1-3.1,1c0,0,0,0,0,0c-0.1-0.1-1.2,0.3-0.9,0.3c0,0,0,0,0.2,0
		c-4,1.1-7.6,2.2-11.6,3.2c0.1,0,0.2-0.1,0.3-0.1c-0.1,0-0.2,0.1-0.3,0.1C121.4,251.4,126.6,249.9,131.6,247.9
		C131.6,248,131.6,248,131.6,247.9C131.6,248,131.6,248,131.6,247.9z"/>
	<path class="st0" d="M154.4,234.1c-0.7,1.2-1.6,2.3-2.7,3.2c2.1-1.5,4.2-3.1,6.3-4.6c0,0,0,0,0,0c0,0,0,0,0,0
		C156.8,233.3,155.6,233.8,154.4,234.1z"/>
	<path class="st0" d="M81.9,193.5c-0.2,0.3,0.8,1.2,2.6,2.3C82.9,194.6,81.8,193.7,81.9,193.5z"/>
	<path class="st0" d="M0,75.9c0,0,6.7-6.4,12.7-12C5.4,70-0.6,75.4,0,75.9z"/>
	<path class="st0" d="M66.4,53.9c0.4,0.3,6.3-5.2,11.4-9.5C72.6,48.5,66,53.6,66.4,53.9z"/>
	<path class="st0" d="M106.7,232c-0.9,0.9-4,0.8-7,0.4C103.4,232.9,106.3,233,106.7,232z"/>
	<path class="st0" d="M55.6,217.7c-1.8-0.3-3.5-0.7-5.2-1.2C52.1,217,53.9,217.5,55.6,217.7z"/>
	<path class="st0" d="M107.6,231.9c0.2,0.2,0.5,0.2,0.8,0.2C108.1,232.1,107.9,232,107.6,231.9z"/>
	<path class="st0" d="M109.3,232.1c-0.3,0-0.6,0-0.9,0C108.6,232.1,108.9,232.1,109.3,232.1z"/>
	<path class="st0" d="M166,39c-4.9-4.3-10.3-8.1-16-11.4c-9.3-5.4-20-8.1-30.8-7.8c-6.6,0.2-8,0.6-14-2.6c-2.2-1.1-9.3-3.2-11.4-5.1
		c0.9,0.9,1.9,1.7,2.9,2.3c-2.8-1.7-5.5-3.4-8.3-5c-0.9-0.5-5.3-2.3-5.8-3.1c0.6,1.4,6.6,4.3,7.8,5c4.3,2.7,8.7,5.3,13,8.2
		c-1.4-0.8-10.8-5.7-16.4-9l-3.9-2.9c0-0.1-0.1-0.1-0.1-0.2c0,0,0,0.1,0,0.1c-3.4-2.5-5.9-4.2-6.1-3.9c-0.5,0.7,11.1,9.1,11.9,9.6
		c-1.9-1-10.3-8.4-11.4-7.5c0.1,0.7,0.6,1.3,1.2,1.6c0,0-0.8-0.5-0.7-0.4c0.1,0.3,0.3,0.5,0.5,0.8C73.3,4,69,0.6,69.6,0
		c-0.7,0.7,3.7,4.1,9.3,8.1c0.9,0.8,1.9,1.5,3,2.1c8,5.6,17.2,11.7,18.4,13c-1.5-1-18.9-13.1-19.1-12.8c0.7,0.9,1.6,1.7,2.6,2.2
		c-1.3-0.6-1.6-0.4-0.9,0.7C81.2,12.3,74,9,73.4,7.1c1,3,8.3,6.1,10.9,8c4.6,3.2,8.9,6.8,13.5,10C96.4,25.8,66.3,6.4,66.9,4.3
		C65.5,9,91.6,22.7,94.8,24.7c-13.1-2.1-26.9-0.6-39.4,3.5c-5.6,1.8-10.9,4.2-15.9,7.2c-2.9,1.7-6.5,5.3-9.9,7.7
		c2.7-1.8,5.3-3.9,8-5.4c4.8-2.7,9.8-4.9,15-6.7c9.6-3.4,19.8-4.8,29.9-4.2c-0.3,0-5,0.2-3.7,0.5c-12.3,0.6-26,3.4-36.9,9.2
		c-6.6,3.3-12.8,7.2-18.7,11.6c-3.2,2.5-7.5,8.5-11.1,10.1c3.7-1.4,9-7.8,12.1-10.1c6-4.5,12.6-8.4,19.5-11.5
		c-6,3-11.8,6.5-17.3,10.5c-1.7,1.2-10.8,10.3-12.7,10.7c1-0.2,1.9-0.7,2.7-1.4C11.3,60.7,6,65.4,6.3,65.6c0,0,1.8-1.3,4.1-3.2
		c-1,1.1-1.6,2-1.4,2.5c1-0.3,1.9-0.8,2.6-1.6l-0.8,1c0.7-0.3,1.4-0.6,2-1.1c1.3-1,2.6-2.1,3.7-3.3c-0.1,0.2-0.1,0.4,0,0.5
		c0,0,0,0,0.1,0c2.6-2.4,4.5-4.2,5.1-4.6l1.8-1.4c0,0,0.1,0,0.1-0.1c0,0,0,0,0.1-0.1c1.6-1,3.3-2.1,5.1-3.2c0,0-0.1,0-0.1,0.1
		c-1.8,1.1-3.5,2.2-5.1,3.2l-1.8,1.5c-0.6,0.5-2.5,2.2-5,4.6c0,0-0.1,0.1-0.1,0.1l-4,3.7c2.4-1.9,4.9-4,7.3-6
		c-0.2,0.3-0.3,0.5-0.3,0.8c0.5,0.2,1.1,0,1.4-0.3c-2.7,2.3-8.4,10.3-11.5,11.4c4-1.5,9.4-8.9,13-11.8c4.9-3.9,10.2-7.2,15.9-9.9
		C50.1,42.2,62.6,37.5,76,37c-0.6,0.1-0.8,0.3-0.6,0.5C60.9,38.2,47.2,43.2,35,50.9c-5.9,3.8-11.5,8.2-16.7,13
		C16.6,65.4,5.9,78.2,5.1,78c2.7,0.4,12.4-11.8,14.7-13.9c5.3-4.8,11-9.2,17-13.1c12.7-8,27.1-12.9,42.2-13
		c-2.1,1.3-26.7,3.1-26.6,5.8c0-2.5,22.5-4.3,24.8-4.3c-0.4,0.2-0.8,0.6-1,1c1-0.2,0.9-1,2.1-1c-0.4,0.2-0.7,0.5-1,0.8
		c0.3,0.1,1.4-0.8,1.9-0.8c-0.6,0.5-8.1,6.2-7.9,6.5c0.9,0.9,9.4-8,12.1-7.8c-1.2,0.7-10.4,6.2-9.8,7.6c0.8-0.1,1.6-0.4,2.1-1
		c-0.2,0.2-0.4,0.4-0.6,0.7c0.7-0.1,1.4-0.5,1.9-0.9c2.2-1.7,4.3-5.1,7-4.9l-0.7,0.5c0.4-0.3,0.9-0.4,1.3-0.5c0,0-2,1.1-3.4,2.1
		c0.9-0.7,1.6-1.2,2.1-1.6c-2,1.3-3.9,2.7-5.6,4.2c0.8-0.6,1.6-1.2,2.3-1.7c-0.2,0.2-0.3,0.3-0.3,0.4c1.2-0.5,2.3-1.1,3.3-1.9
		c-1.2,1.1-1.1,1.5,0.3,1.1c-2,1.5-7,7.6-9.3,7.9c6-1,9.3-11,16.4-10c-4,2.5-7.8,5.2-11.4,8.3c-1,0.8-8.2,8.1-8.3,8
		c2,0.7,15.2-11.9,17.8-13.7c6.8-4.5,17.6,0.7,24.7,3.6c6.9,2.8,14.2,8,20.1,12.5c2.7,2,4.1,4.3,6.3,6.9c1.3,1.4,2.6,2.8,4,4.1
		c0.8,0.7,4.8,4.3,1.2,0.7c5.3,4.7,12,10,16.5,13.8l-0.5-0.6c2.9,2.5,5.3,5.3,7.6,8.1c0.5,1.3-0.2,0.8-1.3-0.4
		c-1.3-1.3-3.3-3.6-4.7-5.3c0.1,0.9-0.3,0.3-1-0.4c-0.6-0.7-1.4-1.5-1.7-1.2c-0.7,0.6-1.4,1.2-1.5,2.3c-0.1,0.5,0,1.2,0.2,2.1
		c0.2,0.9,0.6,2,1.2,3.3c0.5,1.4-1.4,1.1-2.1,1.7c5.2,6.5,9.9,13.7,13.6,21.2l0.7,1.4c0.2,0.5,0.4,1,0.6,1.4l1.3,2.9
		c0.5,0.9,0.8,1.9,1.2,2.9c0.4,1,0.8,1.9,1.1,2.9c0.6,2,1.4,3.9,1.9,5.9c0.3,1,0.6,2,0.8,2.9c0.2,1,0.5,2,0.7,3
		c0.1,0.4,0.2,0.8,0.3,1.2c0.1,0.4,0.1,0.8,0.2,1.3c0.1,0.9,0.2,1.7,0.3,2.6c0.1,0.9,0.1,1.8,0.1,2.7c0,0.9,0.1,1.8,0,2.7
		c-0.1,0.9-0.1,1.8-0.2,2.7l-0.1,1.4l-0.2,1.4c-0.1,0.9-0.2,1.8-0.4,2.8l-0.5,2.7l-0.3,1.4l-0.3,1.4c-0.2,0.9-0.4,1.8-0.7,2.7
		c-0.6,1.8-1,3.6-1.6,5.3c-1.1,3.5-2.4,6.8-3.5,10c-0.4,1-1,2-1.6,3.1c-0.7,1.1-1.4,2.2-2.2,3.2c-0.7,1-1.4,2.1-1.9,3.1
		c-0.5,1-0.8,1.9-0.7,2.8c0.8-1.1,1.6-2.2,2.4-3.4c-0.2,0.8-0.5,1.5-0.9,2.2c-7.9,9-17.8,16.8-27.3,20.5c-7.5,2.9-17.7-2-25-4.7
		c-3.4-1.2-12.5-3.2-15.8-5.6c0.5,0.4,1.1,0.8,1.7,1.2c-0.8-0.4-1.5-0.8-2.3-1.1c-2.1-1.1-9.9-3.8-11.4-6c0.9,1.6,6.8,4.1,8.3,4.9
		c4.6,2.6,9.2,5,13.9,7.3c-1.5-0.6-9.4-3.9-15.3-6.8l-1.5-0.8c-2.6-1.4-4.5-2.6-4.9-3.4c0.2,0.5,0.6,1,1,1.3c-1.9-1-3.6-2-4.9-2.8
		l1.3,0.9c-1.6-1-2.8-1.5-3.1-1.3c0.2,0.7,0.7,1.3,1.4,1.6c-0.3-0.1-0.5-0.3-0.8-0.4c0.3,0.5,0.7,0.9,1.1,1.2l0.2,0.2
		c-5.9-3.6-11-7-10.7-7.5c-0.9,1.5,14.2,10,24.5,15.9c0.1,0.1,0.3,0.1,0.4,0.2c4.4,2.5,7.9,4.6,8.8,5.3c-1.7-0.8-20.8-12-20.9-12
		c0.8,0.9,1.8,1.6,2.9,2.1c-1.4-0.6-1.7-0.4-0.8,0.7c-1.9-1.1-9-3.9-9.9-5.9c1,2.1,6.5,4.4,8.4,5.6c3.6,2.2,7.1,4.6,10.7,6.9
		c6.3,4.1,13.1,7.5,20.2,10.1c-3.2,0.5-9.1-3.6-11.9-5c-4.1-2-8.1-4.2-12.1-6.4c-2.4-1.4-21.8-11.4-21.7-13.2
		c-0.3,3.1,17.3,11.9,20,13.4c7.7,4.3,15.6,8.1,23.7,11.4c-1,0.1-6.5-2-6.5-2s4.8,2.4,4.6,2.3c-8.8,1.1-17.8,1.4-26.7,0.9
		c-4.3-0.2-8.5-0.6-12.8-1c-2.5-0.2-8.2,0-11.1-1c0.6,0.3,1.3,0.5,2,0.7c-1.2-0.2-2.5-0.5-3.7-0.8c-1.6-0.3-4-0.6-6.4-1
		c1,0.2,1.8,0.3,2.4,0.5c6.4,1.6,12.9,2.9,19.5,4c-5.2-0.6-10.4-1.6-15.5-2.7c-2-0.4-11.9-1.6-12.5-3.1c0.4,0.8,2,1.4,4.2,2
		l-2.2-0.5c-2.1-0.8-4.2-1.4-6.4-1.9c-0.2-0.1-0.4-0.1-0.6-0.2c0,0,0,0,0,0c-2-0.7-3.4-1.3-3.3-1.6c-0.1,0.4,0.7,0.9,2.2,1.4
		c0,0,0,0,0,0c1.5,0.5,3,1,4.6,1.4c0.3,0.1,0.7,0.2,1,0.3c-1.9-0.4-3.7-1-5.6-1.6c-0.2,0-0.4,0-0.6,0.2c0.6,0.6,1.3,0.9,2.1,1.1
		l-1-0.2c0.6,0.5,1.3,0.9,2,1.1c-7.8-2.2-14.5-4.4-14.3-5.2c-0.5,2,17.6,6.5,31,9.7c1.4,0.3,2.7,0.7,4.1,1l-2.1-0.5
		c5.8,1.4,10.4,2.4,11.5,2.8c-2.4-0.4-27.2-6.5-27.2-6.5c1.2,0.7,2.5,1.1,3.9,1.4c-1.8-0.3-2-0.1-0.6,0.7
		c-3.1-0.8-10.6-1.5-12.9-3.7c2.8,2.5,10.3,3.4,13.9,4.4c5.3,1.5,10.5,3.2,15.9,4.5c10.8,2.5,21.9,3.7,33,3.7
		c-0.5,0-0.7,0.1-0.5,0.3C89.3,230.3,77,228.8,65,226c-6-1.3-12-2.9-17.9-4.6c-1.3-0.4-14.9-3.6-15.3-4.7c1,3.1,15.9,5.8,18.8,6.7
		c7.1,2,14.2,3.6,21.5,4.8c3.3,0.6,6.6,1.1,9.9,1.5c-0.8,0-1.2,0.1-1.4,0.4c0.1-0.2,11.9,1.5,12.9,1.6c1,0.1,3.6,0.5,6.1,0.8
		c-4-0.5-8.9-1.6-12.8-2.2c10.3,1.1,20.7,1,31.1-0.1c-0.7,0.3-5.9,1.7-8.7,2c1.8-0.1,3.5-0.3,5.2-0.6C85,241.7,46.2,238.8,21,218.1
		c1,0.9,1.9,1.8,2.8,2.9l-1.4-0.1c0.5,1.5,2.7,2.9,3.8,3.9c-0.2,0-0.5-0.1-0.7-0.1l-0.1,0h0c-0.4-0.8-1-0.7-0.9-0.5c0,0,0,0,0,0
		c-3.4-2-12.7-8.1-12.5-6c0.4,4.4,11,9.2,14.2,11.2c-6.5-1.5-11.8-6.1-17.6-9.1c5.4,6.2,12.9,10,19.7,14.1
		c5.7,3.7,11.7,6.9,17.9,9.7c15.3,6.4,30.8,8.5,47.3,9.7c0-0.3-0.1-0.5-0.3-0.7c4.4-0.6,10.7-0.4,14.2-0.8c6.7-0.8,13-1.4,19.4-3.1
		c2-0.6,27.2-14.1,25.8-15.1c-0.6-0.4-7.2,1-7.1,0.3c2.2-8.5,13.6-6.9,20.2-8.2c1.4-0.4,2.8-0.8,4.2-1.3c1.6-0.6,3.1-1.3,4.5-2.1
		c1.2-0.7,7.9-5.2,2.4-1.8c4.1-2.9,7.8-6.4,11.1-10.2c-0.1,0.5-0.2,1.1-0.4,1.8C221.9,156.7,213.1,84.5,166,39z M30.1,44.7
		c6.2-4.3,12.9-7.8,20-10.3c-0.1,0-0.2,0.1-0.2,0.1C42.9,37,36.2,40.4,30.1,44.7c-1,0.7-3.4,2.9-6,5.2c-0.1,0.1-0.1,0.1-0.2,0.2
		C26.6,47.7,29,45.4,30.1,44.7z M21.7,55c-1,0.8-1.9,1.6-2.8,2.5c0,0-0.1,0-0.1,0.1C19.7,56.7,20.7,55.8,21.7,55
		c3.3-2.5,6.7-4.9,10.2-7.1c0.9-0.6,1.7-1.2,2.6-1.7c-0.9,0.5-1.7,1.1-2.6,1.7c1.1-0.7,2.3-1.4,3.4-2.1c0,0,0,0,0,0
		c-1.2,0.7-2.3,1.4-3.4,2.1c0,0-0.1,0.1-0.1,0.1C28.3,50.2,24.9,52.5,21.7,55z M20.1,57.8C20.1,57.8,20.1,57.9,20.1,57.8
		c0.1-0.1,0.2-0.3,0.4-0.4c0.1-0.1,0.1-0.1,0.2-0.2C20.5,57.4,20.3,57.6,20.1,57.8z M81.4,38.2c-0.4,0-0.8,0.1-1.2,0.3c0,0,0,0,0,0
		C79.6,38.7,79,39,79,39.2c0-0.2,0.6-0.5,1.2-0.8c0,0,0,0,0,0C80.6,38.3,81,38.2,81.4,38.2L81.4,38.2z M79.6,39.4
		C79.6,39.4,79.6,39.4,79.6,39.4C79.6,39.4,79.6,39.4,79.6,39.4C79.6,39.4,79.6,39.4,79.6,39.4c0.1-0.1,0.2-0.2,0.2-0.2
		c0,0,0,0,0,0.1L79.6,39.4z M80.4,38.2C80.4,38.2,80.4,38.2,80.4,38.2c-1.7,0-0.9-0.2-2.6,1.3c0,0,0,0,0,0
		C79.6,38,78.7,38.1,80.4,38.2z M111.5,22.7l-0.4-0.3l0,0L111.5,22.7z M90.9,16.3c-2.2-1.5-5.2-3.5-8.2-5.6
		C85.7,12.8,88.7,14.8,90.9,16.3z M91,13.3c6.1,3.6,13.7,7.5,15.1,8.5C104.7,20.8,97.1,16.9,91,13.3c6.1,4.3,12.4,8.5,14.7,8.6
		C103.4,21.9,97.1,17.7,91,13.3z M86.9,38.5C86.9,38.5,86.9,38.5,86.9,38.5c-0.3,0-0.5,0-0.7,0.1l0,0C86.4,38.5,86.6,38.5,86.9,38.5
		z M85.3,39.2c0,0-0.1,0-0.2,0.1c0,0,0,0,0,0C85.3,39.2,85.4,39.2,85.3,39.2z M84.2,39.3c0.4-0.7,1.2-1,2-0.9l0,0
		C85.4,38.4,84.7,38.7,84.2,39.3C84.2,39.3,84.2,39.3,84.2,39.3C84.2,39.3,84.2,39.3,84.2,39.3C84.2,39.3,84.2,39.3,84.2,39.3
		C84.2,39.3,84.2,39.3,84.2,39.3c0.2,0,0.2-0.1,0.3-0.1C84.6,39.2,84.4,39.3,84.2,39.3C84.2,39.3,84.2,39.3,84.2,39.3
		C84.2,39.3,84.2,39.3,84.2,39.3L84.2,39.3z M85.2,39.3C85.2,39.3,85.2,39.3,85.2,39.3L85.2,39.3C85.1,39.3,85.1,39.4,85.2,39.3
		L85.2,39.3z M89,39.6c1.1,0.6,2.4,0.5,3.3-0.3c-0.7-0.4-1.4-0.4-2.1-0.3c0.7-0.2,1.5-0.1,2.1,0.3C91.4,40.1,90.1,40.2,89,39.6z
		 M108.1,43.7c-3.2-1.3-11.8-5.3-14.9-3.6l0,0c3.1-1.8,12,2.5,15.1,3.7C108.2,43.7,108.1,43.7,108.1,43.7z M108.6,21.2
		c0.2,0,0.3,0,0.5,0c-2.6-1.7-7-3.5-10.7-5.7l-0.1-0.1c3.7,2.1,8.2,4.1,10.9,5.7C109,21.2,108.8,21.2,108.6,21.2z M109.8,22.8
		c0.6,0.7,1.7,0.9,2.6,0.5l0,0C111.5,23.8,110.5,23.6,109.8,22.8z M95.2,204.4c-0.6-0.3-1.2-0.7-1.8-1c-0.9-0.6-1.9-1.2-2.8-1.8
		c-0.1-0.1-0.2-0.1-0.3-0.2c0.1,0.1,0.2,0.1,0.3,0.1C92.2,202.5,93.7,203.5,95.2,204.4z M54.9,220.4c0.6,0.2,1.3,0.3,1.9,0.5
		c0.7,0.2,1.4,0.4,2.1,0.6C57.7,221.1,56.3,220.7,54.9,220.4z M62.1,220C62.1,220.1,62.2,220.1,62.1,220c8.2,1.5,16.3,2.7,19.4,3.1
		c0.3,0.1,0.7,0.1,1,0.2C80.8,223.2,71.5,221.8,62.1,220z M79.9,221.7l-2.3-0.3c0.3,0,0.6,0,0.9,0L79.9,221.7
		c9.2,1.2,18.2,1.8,26.5,1.1c0.2,0,0.5,0,0.7,0C98.6,223.7,89.4,223,79.9,221.7z M24.4,224.2C24.4,224.2,24.4,224.2,24.4,224.2
		C24.4,224.2,24.4,224.3,24.4,224.2C24.4,224.3,24.4,224.2,24.4,224.2z M139.5,227C139.5,227,139.5,227,139.5,227c0.3,0,0.4,0,0.4,0
		C139.9,227.1,139.8,227.1,139.5,227z M134.2,229.4c-2.2,1.4-4.5,2.5-7,3.2c-0.1,0-0.2,0.1-0.3,0.1c-0.2,0-0.3,0.1-0.5,0.1
		c0.1,0,0.1-0.1,0.2-0.1c0.2,0,0.4-0.1,0.5-0.1C129.5,231.4,131.8,230.2,134.2,229.4c1.2-0.7,2.4-1.4,3.6-2l0.1,0
		c-1.1,0.5-2.2,1.2-3.3,1.8C134.5,229.2,134.3,229.3,134.2,229.4z M141.4,230.1c0,0-0.1,0-0.1,0.1c0,0,0,0,0,0
		C141.3,230.2,141.3,230.1,141.4,230.1z M141.2,230.2C141.2,230.2,141.2,230.2,141.2,230.2c-1.5,0.7-2.7,1.4-3,1.7
		c-0.3,0.1,0.4-0.4,1.6-1C140.2,230.6,140.7,230.4,141.2,230.2z M106.2,238.2c4.2-0.4,8.4-1.1,12.5-2.2c0.8-0.4,1.1-0.6,1.2-0.7
		c0.1,0.1-0.1,0.2-0.7,0.5c-0.2,0.1-0.3,0.1-0.5,0.2c-0.2,0.1-0.3,0.1-0.5,0.2c-4.7,1.2-9.4,2-14.2,2.3
		C104.7,238.4,105.5,238.3,106.2,238.2z M125.3,234.9c-0.7,0.3-1.3,0.5-2,0.8c-3.5,1.3-7.5,2.6-11.2,2.2c0.1,0,0.2,0,0.3,0
		C116.7,238.3,121.4,236.4,125.3,234.9z M114.2,239.6c0.1,0,0.2-0.1,0.3-0.1c5.5-1,11-2.6,16.1-4.8c-0.6,0.3-1.1,0.5-1.7,0.8
		C124.2,237.3,119.2,238.7,114.2,239.6z M137.5,226.9c0.1,0.2,2-0.3,2.3-0.4c0,0,0,0,0,0l0,0.1C139.8,226.6,137.3,227.2,137.5,226.9
		z M113.2,208.6l-4-1.8c0.4,0.1,0.8,0.3,1.2,0.4L113.2,208.6c5,2.1,15.4,8.5,20.4,6.7c0,0,0,0,0,0l0,0.1
		C128.6,217.2,118.1,210.8,113.2,208.6z M73.4,241.2c-1.3-0.1-3.2-0.3-3.9-0.6C70.2,241,72.1,241.1,73.4,241.2z M65.2,239.2
		C65.2,239.2,65.2,239.2,65.2,239.2c0.1,0,0.2,0,0.3,0C65.4,239.2,65.3,239.2,65.2,239.2z M74.8,241.4c1.8,0.3,3.5,0.6,5.3,0.9
		C78.3,242.1,76.6,241.8,74.8,241.4z M82.3,242.6c1.6,0.2,3.2,0.3,4.8,0.4C85.5,242.9,83.9,242.7,82.3,242.6z M88.1,243
		C88.1,243,88.2,243,88.1,243C88.2,243,88.1,243,88.1,243C88.1,243,88.1,243,88.1,243z M89.9,242.9c-3.3-0.4-8.5-1-10.5-1.3
		c-0.5-0.1-1.1-0.2-1.6-0.3c0.5,0.1,1.1,0.2,1.6,0.3c2,0.3,7.4,1,10.7,1.3C90.1,242.9,90,242.9,89.9,242.9z M91.3,243.7
		c0.1-0.1,0.2-0.1,0.3-0.2c0.6-0.1,1.1-0.3,1.7-0.3h0.9C93.2,243.2,92.2,243.4,91.3,243.7z M99.5,242.6c0.7-0.1,1.5-0.1,2.2-0.2
		c-0.1,0-0.3,0.1-0.4,0.1c-1,0.1-2.1,0.2-3.1,0.3C98.7,242.7,99.1,242.6,99.5,242.6z M138.2,231.9c-5.6,2.8-11.5,5.1-17.5,7
		c-3.6,1.2-7.3,2.2-11.1,3c-1.9,0.4-3.8,0.7-5.7,0.9c-0.8,0.1-4.4,0.6-4.2,0.3c0.3,0.2,3.5-0.3,4.2-0.4c1.9-0.2,3.8-0.5,5.7-0.9
		c3.8-0.8,7.5-1.8,11.1-3C126.7,237,132.5,234.7,138.2,231.9C138.1,231.9,138.1,232,138.2,231.9c1.2-0.6,2.4-1.3,3.6-2
		C140.6,230.6,139.4,231.3,138.2,231.9z M131.5,234.3c-0.2,0.1-0.4,0.2-0.6,0.3c4-2,7.8-4.2,11.5-6.7l0,0.1
		C138.8,230.2,135.2,232.4,131.5,234.3z M139.4,227.1C139.4,227.1,139.4,227.1,139.4,227.1c1.7,0.1,2.9,0.7,4.1-0.1c0,0,0.1,0,0.1,0
		l0,0C142.3,227.9,141.1,227.3,139.4,227.1z M147.4,42.9c-4.1-3.1-8.7-5.7-13.6-7.5c0.2,0.1,0.5,0.2,0.6,0.2
		c4.7,1.8,9.2,4.3,13.2,7.4C147.6,43,147.5,43,147.4,42.9z M133.5,35.3c1.7,0.6,0.9,0.3,0.3,0.1c0.2,0.1,0.4,0.2,0.6,0.2
		C134.3,35.6,134,35.5,133.5,35.3L133.5,35.3l-2-0.6c0,0,0,0-0.1,0L133.5,35.3L133.5,35.3z M132.9,23.8c0,0-0.1,0-0.2,0
		c-4.3-1.3-8.7-1.9-13.1-2C124.1,21.8,128.6,22.5,132.9,23.8z M119.9,23c0,0,0.1,0,0.1,0C120,23,120,23,119.9,23
		C119.9,23,119.9,23,119.9,23z M130,23.6c-0.1-0.1-0.1-0.1-0.1-0.1C129.9,23.5,129.9,23.5,130,23.6C130,23.6,130,23.6,130,23.6z
		 M135.7,60.3c-0.3-0.6-0.9-1-1.5-1.1l0,0C134.9,59.2,135.4,59.6,135.7,60.3L135.7,60.3z M133.8,36.7L133.8,36.7
		c8.9,3,16.8,8.5,22.8,15.8v0C150.6,45.3,142.7,39.8,133.8,36.7c2.8,2.6,5.9,4.8,9,7C139.7,41.6,136.6,39.3,133.8,36.7z M143.1,44
		c5.1,3.6,10.5,6.9,15.3,10.8l0,0.1C153.6,50.9,148.2,47.5,143.1,44z M151.5,227.4h-0.2c0,0,0,0,0.1,0L151.5,227.4
		C151.4,227.4,151.4,227.4,151.5,227.4l1.4-0.2c0,0-0.1,0-0.1-0.1c0,0,0.1,0,0.1,0.1l0,0L151.5,227.4z"/>
	<path class="st0" d="M77.1,44.6C76.9,44.9,76.7,45.2,77.1,44.6L77.1,44.6z"/>
	<path class="st0" d="M127.2,232.5c2.5-0.7,4.8-1.7,7-3.1C131.8,230.3,129.5,231.4,127.2,232.5z"/>
	<path class="st0" d="M29.6,43.1c-1.2,0.8-2.5,1.5-3.8,2.1C27.2,44.7,28.5,44,29.6,43.1z"/>
	<path class="st0" d="M13.1,210.6c1.7,2.3,3.7,4.3,6,5.9C17,214.7,15,212.7,13.1,210.6z"/>
	<path class="st0" d="M79,8.3C79,8.4,79.8,9.3,79,8.3L79,8.3z"/>
	<path class="st0" d="M49.8,216.2c0,0-0.1,0-0.1-0.1C49.7,216.2,49.7,216.2,49.8,216.2c-0.4-0.2-0.8-0.4-1.1-0.6c0,0,0.1,0,0.1,0.1
		c0,0-0.1,0-0.1-0.1C49,215.9,49.4,216.1,49.8,216.2z"/>
	<path class="st0" d="M146.9,240.5c1.1-0.6,2.2-1.3,3.2-2.1c0.5-0.4,1-0.8,1.5-1.2c-2.1,1.5-4.3,2.9-6.5,4.1
		C145.8,241.2,146.4,240.9,146.9,240.5z"/>
	<path class="st0" d="M145.2,241.4C145.2,241.4,145.2,241.4,145.2,241.4c-1.9,1-3.8,1.9-5.4,2.8c0,0,0,0-0.1,0c0,0,0,0,0,0
		c0,0,0,0,0,0C141.6,243.4,143.4,242.5,145.2,241.4C145.2,241.4,145.2,241.4,145.2,241.4C145.2,241.4,145.2,241.4,145.2,241.4z"/>
</g>
</svg>
