<svg id="Layer_2" data-name="Layer 2" xmlns="http://www.w3.org/2000/svg" width="208.31" height="253.71" viewBox="0 0 208.31 253.71">
  <defs>
    <style>
      .cls-1 {
        fill: none;
      }

      .cls-2 {
        fill: #191724;
      }
    </style>
  </defs>
  <title>circle</title>
  <g>
    <path class="cls-1" d="M88.16,40.44a2,2,0,0,0-2,.87c.49-.31.22,0,0,0a1.92,1.92,0,0,0,1.09-.1,1.93,1.93,0,0,1,.84-.64Z" transform="translate(-1.96 -1.97)"/>
    <path class="cls-1" d="M27.19,226.65c-.21-.11-.5-.28-.85-.49C26.35,226.31,26.58,226.52,27.19,226.65Z" transform="translate(-1.96 -1.97)"/>
    <path class="cls-1" d="M27.31,226.72l0,0-.1,0Z" transform="translate(-1.96 -1.97)"/>
    <path class="cls-1" d="M158.53,54.57a50,50,0,0,0-22.76-15.85c7.47,6.84,16.75,11.64,24.65,18.1l-1.84-2.19Z" transform="translate(-1.96 -1.97)"/>
    <path class="cls-1" d="M50.94,219.29c-1.57-.51-3.09-1-4.36-1.48a6,6,0,0,0-1.19-.13A53.35,53.35,0,0,0,50.94,219.29Z" transform="translate(-1.96 -1.97)"/>
    <path class="cls-1" d="M95.11,42.06l2.56.41h0a87.58,87.58,0,0,1,12.51,3.24C107.08,44.51,98.23,40.28,95.11,42.06Z" transform="translate(-1.96 -1.97)"/>
    <path class="cls-1" d="M136.14,61.1c.49.33.52.38,0,0l1.55,1.15A2,2,0,0,0,136.14,61.1Z" transform="translate(-1.96 -1.97)"/>
    <path class="cls-1" d="M82.14,40.43a2.56,2.56,0,0,1-1.15.85,1,1,0,0,0,.6.13c-.2,0,.59-.43,0,0l1.78-1.26A3.55,3.55,0,0,0,82.14,40.43Z" transform="translate(-1.96 -1.97)"/>
    <path class="cls-1" d="M180,180c.86-.2,2.27-4.27,2.78-5.2-.31,0-.39-.09-.44,0a2.79,2.79,0,0,1-.29.77Q181.07,177.78,180,180Z" transform="translate(-1.96 -1.97)"/>
    <path class="cls-1" d="M87.09,41.33a1.91,1.91,0,0,0,1.8-.84,1.57,1.57,0,0,0-.85.07,2.27,2.27,0,0,1-.84.64l-.11.13C87.54,41,87.2,41.34,87.09,41.33Z" transform="translate(-1.96 -1.97)"/>
    <path class="cls-1" d="M91,41.58c.46-.22.75.07,0,0a2.85,2.85,0,0,0,3.27-.34A2.91,2.91,0,0,0,91,41.58Z" transform="translate(-1.96 -1.97)"/>
    <path class="cls-1" d="M111.08,23.11c-2.62-1.68-7.15-3.59-10.85-5.74l.35.21C102.47,18.74,108.63,23.65,111.08,23.11Z" transform="translate(-1.96 -1.97)"/>
    <path class="cls-1" d="M84.69,12.71c6,4.17,11.75,8,11.91,8.08C93.29,18.56,90,16.35,86.76,14,86.36,13.71,85.58,13.25,84.69,12.71Z" transform="translate(-1.96 -1.97)"/>
    <path class="cls-1" d="M30.89,52.78c7.1-4.36,14.87-8.67,16.25-9.3-4.57,1-9.05,3.51-13.27,6.41q1.7-1.06,3.44-2.06C36.9,48.08,34.39,50,30.89,52.78Z" transform="translate(-1.96 -1.97)"/>
    <path class="cls-1" d="M93,15.3c6.51,4.64,13.23,9.08,15.14,8.54C106.7,22.81,99.1,18.88,93,15.3Z" transform="translate(-1.96 -1.97)"/>
    <path class="cls-1" d="M22,59.93c3.22-2.62,6.34-5.11,8.92-7.15-1.85,1.14-3.65,2.27-5.29,3.35l-1.85,1.48c-.57.46-2.56,2.27-5.12,4.64a46.4,46.4,0,0,0,4-3A2.74,2.74,0,0,0,22,59.93Z" transform="translate(-1.96 -1.97)"/>
    <path class="cls-1" d="M51.73,218.2a5.08,5.08,0,0,1-1.13-.6A7.43,7.43,0,0,0,51.73,218.2Zm29.2-208c.84,1,.08.09,0,0ZM15.09,212.57a68.51,68.51,0,0,0,6,5.94A28.62,28.62,0,0,1,15.09,212.57Zm118.49,37.35A88.51,88.51,0,0,1,118,254.43c4.27-1.1,8.13-2.29,12.41-3.44-2.33.63.3-.26,0,0A3,3,0,0,1,133.58,249.92Zm20.07-10.65a32,32,0,0,1-6.47,4.13,59.77,59.77,0,0,1-5.47,2.81c1.61-.91,3.53-1.82,5.47-2.81,2.2-1.27,4.37-2.66,6.47-4.13a12,12,0,0,0,2.68-3.24,13.81,13.81,0,0,0,3.58-1.41C157.89,236.2,155.8,237.77,153.65,239.27Z" transform="translate(-1.96 -1.97)"/>
    <path class="cls-1" d="M113,24.36c.45.3-.45.07,0,0l-1.36.23a2.07,2.07,0,0,0,2.72.67Z" transform="translate(-1.96 -1.97)"/>
    <path class="cls-1" d="M135.83,37.38l-.4-.15-2-.6c4.53,3.67,11.18,5.06,16.21,8.42A54,54,0,0,0,135.83,37.38Z" transform="translate(-1.96 -1.97)"/>
    <path class="cls-1" d="M82.14,40.43a3.62,3.62,0,0,0,.25-.3c-1.73,0-.85-.18-2.58,1.26.51-.42.29,0,0,0A2.35,2.35,0,0,0,81,41.28C80.78,41.08,81.43,40.69,82.14,40.43Z" transform="translate(-1.96 -1.97)"/>
    <path class="cls-1" d="M32.08,46.67c-1.07.73-3.5,3-6.19,5.39,1.15-.94,2-1.6,2.29-1.81A155.83,155.83,0,0,1,52.1,36.38,82.1,82.1,0,0,0,32.08,46.67Z" transform="translate(-1.96 -1.97)"/>
    <path class="cls-1" d="M135.43,37.24l.08,0Z" transform="translate(-1.96 -1.97)"/>
    <path class="cls-1" d="M135.51,37.26l.32.12C136.4,37.58,137.17,37.85,135.51,37.26Z" transform="translate(-1.96 -1.97)"/>
    <path class="cls-1" d="M116,24c-1.42.14,5.2,1,5.85,1a57.5,57.5,0,0,1,10.14.57c-1-.51,2.71.14,2.91.19A48.3,48.3,0,0,0,116,24Z" transform="translate(-1.96 -1.97)"/>
    <path class="cls-1" d="M141.31,229c1.7.19,2.94.81,4.2-.06-1.47-.15-2.93-.73-4.2.06C141.57,228.85,142.36,229.14,141.31,229Z" transform="translate(-1.96 -1.97)"/>
    <path class="cls-1" d="M52.83,221.25c2.83.77,5.61,1.5,8.09,2.14-1.57-.43-3.13-.87-4.69-1.34C55.41,221.8,54.17,221.55,52.83,221.25Z" transform="translate(-1.96 -1.97)"/>
    <path class="cls-1" d="M109.18,224.67a196.2,196.2,0,0,1-20.48-.74c-2.69-.24-5.87-.38-9.12-.64l2.32.32C91.38,224.89,100.61,225.58,109.18,224.67Z" transform="translate(-1.96 -1.97)"/>
    <path class="cls-1" d="M139.83,228.44h0c-1.6,1,1.88.06,2,0a1.53,1.53,0,0,0-2,0Z" transform="translate(-1.96 -1.97)"/>
    <path class="cls-1" d="M62.1,221.65c10,1.89,20.52,3.47,22.33,3.56-4.85-.76-9.7-1.5-14.53-2.4C68.65,222.58,65.47,222.2,62.1,221.65Z" transform="translate(-1.96 -1.97)"/>
    <path class="cls-1" d="M153.39,229.37l1.43-.11a1.4,1.4,0,0,0-1.67.13S153.48,229.35,153.39,229.37Z" transform="translate(-1.96 -1.97)"/>
    <path class="cls-1" d="M153.39,229.37l-.24,0Z" transform="translate(-1.96 -1.97)"/>
    <path class="cls-1" d="M188.48,134l-2.07,30.71a34,34,0,0,1,3.9.44c.27-1.29.63-2.57,1-3.76.15-.48.32-1,.49-1.45a7.36,7.36,0,0,1-1.64-5.63c-.93-4.26-1.55-12.08-1.63-19.5C188.52,134.54,188.5,134.27,188.48,134Z" transform="translate(-1.96 -1.97)"/>
    <path class="cls-1" d="M189.54,118.33l-.09,1.39c.14-.52.29-1,.46-1.55C189.78,118,189.62,118.19,189.54,118.33Z" transform="translate(-1.96 -1.97)"/>
    <path class="cls-1" d="M111.22,208.74l4,1.77c4.93,2.21,15.37,8.62,20.38,6.75-5.46-1.61-10.86-3.46-16.14-5.56C117.2,210.81,114.21,209.86,111.22,208.74Z" transform="translate(-1.96 -1.97)"/>
    <path class="cls-1" d="M183.54,176l-.15.32q-.95,2-2,4a40.94,40.94,0,0,1,3.87-5.32Q183.12,174,183.54,176Z" transform="translate(-1.96 -1.97)"/>
    <path class="cls-1" d="M129.12,234.49a50.17,50.17,0,0,1-8.5,3.46,25.76,25.76,0,0,1-6.57,1.87c4.42.54,9.2-1.45,13.25-2.92-3.72,1.54-7.45,3-11.17,4.56a73.33,73.33,0,0,0,16.59-4.93,106.29,106.29,0,0,0,11.54-6.73,18.57,18.57,0,0,0-8.12,1.53A24.37,24.37,0,0,1,129.12,234.49Z" transform="translate(-1.96 -1.97)"/>
    <path class="cls-1" d="M187.32,186.23l0-.06,0,.06.77-1.23a74.28,74.28,0,0,0-6.21,9.47A69.12,69.12,0,0,0,187.32,186.23Z" transform="translate(-1.96 -1.97)"/>
    <path class="cls-1" d="M192.57,177.16c0-.17.05-.3.07-.42h0a24.77,24.77,0,0,1-1.76,4.22,23.45,23.45,0,0,0,2.52-4.28l-.3-.18A1,1,0,0,0,192.57,177.16Z" transform="translate(-1.96 -1.97)"/>
    <path class="cls-1" d="M139.84,229.27l-1.11-.17c.37.06-3.42,2,0,0-3.37,2-6.85,3.85-10.39,5.56.26,0,.52-.11.77-.17,2.34-1.12,4.7-2.27,7-3.15C137.36,230.61,138.58,229.88,139.84,229.27Z" transform="translate(-1.96 -1.97)"/>
    <path class="cls-1" d="M108.87,243.32c-2.65.5-5.71,1-8.68,1.33,1.17-.08,2.35-.16,3.5-.34-5.31,1.43,1.07.52,2.16.39,1.91-.22,3.8-.52,5.68-.89a95.4,95.4,0,0,0,11.1-3,115.37,115.37,0,0,0,17.51-7c-.56.2,1-.86,3.16-1.78-3.54,1.48-7,3.05-10.59,4.5a73,73,0,0,1-24.44,6.92Z" transform="translate(-1.96 -1.97)"/>
    <path class="cls-1" d="M173.07,94.3c.44.58,0,0,0,0Z" transform="translate(-1.96 -1.97)"/>
    <path class="cls-1" d="M140.15,233.81a34.31,34.31,0,0,0,3.61-2C142.57,232.54,141.36,233.19,140.15,233.81Z" transform="translate(-1.96 -1.97)"/>
    <path class="cls-1" d="M114.74,238.77a55.58,55.58,0,0,1-8.82,1.57,72.75,72.75,0,0,0,14.7-2.39C125.1,235.88,115.67,238.55,114.74,238.77Z" transform="translate(-1.96 -1.97)"/>
    <path class="cls-1" d="M173.07,94.3a35.89,35.89,0,0,0,3.67,3.95A18.64,18.64,0,0,0,173.07,94.3Z" transform="translate(-1.96 -1.97)"/>
    <path class="cls-1" d="M88.16,201c7.12,4.36,14.78,8.79,15.13,9q-5.44-3-10.66-6.46C91.78,202.91,89.84,202,88.16,201Z" transform="translate(-1.96 -1.97)"/>
    <path class="cls-1" d="M168.64,88.72c.44.34.29.34,0,0a6.9,6.9,0,0,0,2.14,2A6,6,0,0,0,168.64,88.72Z" transform="translate(-1.96 -1.97)"/>
    <path class="cls-1" d="M94.75,245a2.21,2.21,0,0,1-.48,0,5.94,5.94,0,0,1-1,.49,20.58,20.58,0,0,1,2.91-.54Z" transform="translate(-1.96 -1.97)"/>
    <path class="cls-1" d="M23.64,56.95a31.16,31.16,0,0,0-2.83,2.59c1.24-1,2.9-2.15,4.8-3.4,2.59-2.07,5.36-4.25,8.26-6.24C30.35,52.08,26.94,54.45,23.64,56.95Z" transform="translate(-1.96 -1.97)"/>
    <path class="cls-1" d="M81.39,243.52c-4.76-.78-9.47-2-14.29-2.37,1.53.33,3.12.55,4.68.77-2.54,1,3.11,1.15,4.59,1.42,2,.37,4,.7,6,1q3.83.49,7.7.66a19.34,19.34,0,0,0,2-.11C88.8,244.5,83.36,243.84,81.39,243.52Z" transform="translate(-1.96 -1.97)"/>
    <path class="cls-2" d="M181.2,175.09a2.84,2.84,0,0,0,.56-.28C181.43,174.93,181.08,175.09,181.2,175.09Z" transform="translate(-1.96 -1.97)"/>
    <path class="cls-2" d="M101.9,204c-.27-.23-.53-.46-.77-.71A4.19,4.19,0,0,0,101.9,204Z" transform="translate(-1.96 -1.97)"/>
    <path class="cls-2" d="M65.71,220.69c-.32-.13-.64-.26-.94-.4A5.14,5.14,0,0,0,65.71,220.69Z" transform="translate(-1.96 -1.97)"/>
    <path class="cls-2" d="M83.88,195.47c-.18.34.84,1.16,2.6,2.27C84.88,196.57,83.77,195.66,83.88,195.47Z" transform="translate(-1.96 -1.97)"/>
    <path class="cls-2" d="M2,77.92s6.65-6.37,12.65-12C7.38,72,1.32,77.42,2,77.92Z" transform="translate(-1.96 -1.97)"/>
    <path class="cls-2" d="M26.33,226.16c.36.21.65.38.85.49l.1,0C26.91,225.85,26.31,225.91,26.33,226.16Z" transform="translate(-1.96 -1.97)"/>
    <path class="cls-2" d="M85.45,42.23a44.88,44.88,0,0,0-5.64,4.2C82.2,44.63,84.32,43,85.45,42.23Z" transform="translate(-1.96 -1.97)"/>
    <path class="cls-2" d="M68.38,55.89c.39.35,6.33-5.2,11.44-9.45C74.53,50.44,68,55.56,68.38,55.89Z" transform="translate(-1.96 -1.97)"/>
    <path class="cls-2" d="M22,59.93a2.74,2.74,0,0,1,.61-.66,46.4,46.4,0,0,1-4,3l-4,3.69C17,64,19.53,61.91,22,59.93Z" transform="translate(-1.96 -1.97)"/>
    <path class="cls-2" d="M108.64,234c-.88.89-4,.76-7,.44C105.39,234.91,108.31,235,108.64,234Z" transform="translate(-1.96 -1.97)"/>
    <path class="cls-2" d="M57.6,219.67a41.65,41.65,0,0,1-5.24-1.23A28.11,28.11,0,0,0,57.6,219.67Z" transform="translate(-1.96 -1.97)"/>
    <path class="cls-2" d="M110.37,234.05a1.77,1.77,0,0,1-.78-.21A1.18,1.18,0,0,0,110.37,234.05Z" transform="translate(-1.96 -1.97)"/>
    <path class="cls-2" d="M68.78,225.37l1,.23Z" transform="translate(-1.96 -1.97)"/>
    <path class="cls-2" d="M43.22,216.24c-.07.41.74.9,2.16,1.44a6,6,0,0,1,1.19.13C44.56,217.09,43.17,216.49,43.22,216.24Z" transform="translate(-1.96 -1.97)"/>
    <path class="cls-2" d="M37.31,47.83q-1.74,1-3.44,2.06c-2.9,2-5.67,4.17-8.26,6.24,1.63-1.08,3.43-2.22,5.29-3.35C34.39,50,36.9,48.08,37.31,47.83Z" transform="translate(-1.96 -1.97)"/>
    <path class="cls-2" d="M182.34,174.77c-.05.07-.06.28-.29.77A2.79,2.79,0,0,0,182.34,174.77Z" transform="translate(-1.96 -1.97)"/>
    <path class="cls-2" d="M113,24.36c-.45.07.45.3,0,0Z" transform="translate(-1.96 -1.97)"/>
    <path class="cls-2" d="M97.67,42.47Z" transform="translate(-1.96 -1.97)"/>
    <path class="cls-2" d="M136.14,61.1c.52.38.49.33,0,0Z" transform="translate(-1.96 -1.97)"/>
    <path class="cls-2" d="M91,41.58c.75.07.46-.22,0,0Z" transform="translate(-1.96 -1.97)"/>
    <path class="cls-2" d="M87.09,41.33c.12,0,.45-.29,0,0Z" transform="translate(-1.96 -1.97)"/>
    <path class="cls-2" d="M168.64,88.72c.29.34.44.34,0,0Z" transform="translate(-1.96 -1.97)"/>
    <path class="cls-2" d="M87.2,41.2a2.27,2.27,0,0,0,.84-.64A1.93,1.93,0,0,0,87.2,41.2Z" transform="translate(-1.96 -1.97)"/>
    <path class="cls-2" d="M138.73,229.1c-3.42,2,.37.06,0,0Z" transform="translate(-1.96 -1.97)"/>
    <path class="cls-2" d="M192.64,176.74c-.17.47,0,0,0,0Z" transform="translate(-1.96 -1.97)"/>
    <path class="cls-2" d="M168,40.94a92.12,92.12,0,0,0-16-11.35,58.59,58.59,0,0,0-30.77-7.76c-6.6.23-8,.56-14-2.58-2.17-1.13-9.31-3.24-11.42-5.12a16.4,16.4,0,0,0,2.93,2.34c-2.76-1.7-5.53-3.39-8.33-5-.85-.49-5.29-2.3-5.77-3.15.63,1.39,6.61,4.28,7.77,5,4.32,2.73,8.73,5.32,13,8.17-1.38-.79-10.84-5.65-16.38-9L85.15,9.62a1,1,0,0,1-.1-.17.68.68,0,0,0,0,.11C81.65,7.09,79.19,5.37,79,5.66c-.46.65,11.13,9.07,11.85,9.6C89,14.28,80.53,6.9,79.46,7.72A2.4,2.4,0,0,0,80.7,9.36S79.94,8.89,80,9a2.23,2.23,0,0,0,.53.75C75.3,6,71,2.57,71.58,2c-.68.69,3.65,4.09,9.27,8.1a23.81,23.81,0,0,0,3,2.12c8,5.61,17.2,11.67,18.37,13.05-1.47-1-18.89-13.07-19.14-12.8a7.61,7.61,0,0,0,2.6,2.18q-2-.93-.91.74C83.12,14.31,76,11,75.35,9.1c1,3,8.32,6.14,10.92,8,4.58,3.21,8.87,6.8,13.45,10-1.37.67-31.44-18.7-30.83-20.82C67.44,11,93.52,24.66,96.8,26.71c-13.07-2.1-26.86-.57-39.39,3.51a79.68,79.68,0,0,0-15.94,7.15c-2.89,1.71-6.53,5.33-9.89,7.72,2.7-1.77,5.33-3.95,8-5.42a94.12,94.12,0,0,1,15-6.74,77.54,77.54,0,0,1,29.93-4.25c-.3,0-5,.21-3.67.48-12.33.61-26,3.44-36.86,9.19A129.65,129.65,0,0,0,25.28,49.93C22.05,52.42,17.83,58.4,14.18,60c3.71-1.39,9-7.78,12.11-10.09A103,103,0,0,1,45.74,38.43a121.62,121.62,0,0,0-17.28,10.5C26.79,50.14,17.63,59.28,15.79,59.6a6.72,6.72,0,0,0,2.73-1.39C13.3,62.66,8,67.34,8.29,67.57c0,0,1.78-1.33,4.15-3.23-1,1.09-1.59,2-1.36,2.45a4.88,4.88,0,0,0,2.56-1.64l-.79.95a7.83,7.83,0,0,0,2-1.1,32.89,32.89,0,0,0,3.73-3.26.53.53,0,0,0-.05.53s0,0,.08,0c2.56-2.37,4.55-4.18,5.12-4.64l1.85-1.48c-1.9,1.25-3.56,2.42-4.8,3.4a31.16,31.16,0,0,1,2.83-2.59c3.31-2.5,6.71-4.87,10.23-7.06,4.22-2.89,8.7-5.36,13.27-6.41-1.38.63-9.15,4.94-16.25,9.3-2.58,2-5.7,4.53-8.92,7.15a2.54,2.54,0,0,0-.37.89A1.37,1.37,0,0,0,23,60.49c-2.69,2.31-8.38,10.27-11.55,11.39,4-1.46,9.43-8.9,13-11.77a88,88,0,0,1,15.87-9.94C52.08,44.18,64.59,39.45,78,39q-.93.13-.58.51c-14.53.64-28.3,5.63-40.5,13.41a121.81,121.81,0,0,0-16.72,13C18.53,67.4,7.9,80.12,7.09,80c2.71.36,12.37-11.82,14.65-13.87a128.42,128.42,0,0,1,17-13.08c12.74-8,27.08-12.91,42.22-13-2.09,1.33-26.74,3.1-26.56,5.8-.05-2.52,22.46-4.32,24.83-4.34a2,2,0,0,0-1,1c1-.2.95-1,2.15-1a3.21,3.21,0,0,0-1,.82c.31.1,1.36-.81,1.86-.81-.61.45-8.11,6.25-7.86,6.5.91.91,9.4-8,12.09-7.8-1.16.73-10.39,6.18-9.77,7.59a3.12,3.12,0,0,0,2.1-1,6.42,6.42,0,0,0-.64.69,4.26,4.26,0,0,0,1.94-.92c-.22.24-.48.54,0,0,2.23-1.69,4.27-5.06,7-4.94l-.74.52a3,3,0,0,1,1.34-.49s-5.14,3-4.89,3.45a10.86,10.86,0,0,0,3.26-1.94q-1.8,1.7.34,1.13c-2,1.48-7,7.56-9.33,7.94,6-1,9.29-11,16.36-10.05A93.22,93.22,0,0,0,81,50.49c-1,.83-8.19,8.06-8.27,8,2.05.68,15.2-11.91,17.84-13.65,6.81-4.48,17.61.65,24.72,3.57,6.91,2.83,14.2,8,20.12,12.51,2.67,2,4.11,4.32,6.35,6.89a49.47,49.47,0,0,0,4,4.06c.76.69,4.78,4.32,1.21.72,5.3,4.71,12,10,16.54,13.84l-.46-.64c6.88,6,11,12.92,16.08,20.43-2.59-4.42,1,.84,1.09,1s10.73,61.85,1.51,67.58c.29-.09.57-.15.58,0,0-.07.13,0,.44,0-.51.92-1.93,5-2.78,5.2q1.06-2.21,2.05-4.45c-6.78,15.15-23.71,32.57-39.35,38.67-7.49,2.92-17.66-2-25-4.67-3.42-1.25-12.55-3.16-15.76-5.58a15.91,15.91,0,0,0,1.67,1.21c-.75-.38-1.51-.75-2.26-1.14-2.07-1.1-9.89-3.8-11.44-6,.94,1.58,6.84,4.07,8.3,4.9,4.56,2.59,9.24,5,13.94,7.27-1.48-.61-9.44-3.86-15.3-6.8l-1.53-.79c-2.6-1.37-4.55-2.61-4.88-3.39a3.15,3.15,0,0,0,1,1.34c-1.93-1-3.62-2-4.91-2.83l1.32.94c-1.56-1-2.8-1.55-3.15-1.26A2.78,2.78,0,0,0,86.08,199a6.55,6.55,0,0,0-.78-.37,3.84,3.84,0,0,0,1.1,1.18l0,0,.23.23c-5.88-3.64-11-7-10.67-7.54-1.3,2.11,30.78,19,33.69,21.4-1.66-.81-20.84-12-20.89-12A9.1,9.1,0,0,0,91.62,204q-2.12-.93-.82.68c-1.94-1.14-9-3.87-9.94-5.91,1,2.08,6.47,4.36,8.45,5.59,3.61,2.25,7.13,4.57,10.7,6.88a98.93,98.93,0,0,0,20.17,10.06c-3.22.51-9.12-3.57-11.93-4.95-4.1-2-8.14-4.16-12.12-6.41-2.38-1.35-21.83-11.42-21.68-13.18-.31,3.14,17.29,11.88,20,13.39a208.28,208.28,0,0,0,23.72,11.44c-1,.13-6.51-2-6.47-2s4.85,2.37,4.63,2.27a156.42,156.42,0,0,1-26.67.92c-4.27-.25-8.54-.63-12.8-1-2.54-.25-8.17,0-11.12-1q.95.38,2,.7c-1.24-.24-2.49-.48-3.73-.76-1.58-.35-4-.59-6.36-1,1,.18,1.83.34,2.37.48,6.43,1.64,12.95,2.9,19.49,4-5.21-.61-10.37-1.59-15.49-2.69-2-.44-11.88-1.6-12.46-3.07.39.77,2,1.43,4.2,2l-2.23-.49a59.38,59.38,0,0,0-6.9-2.07c1.27.46,2.79,1,4.36,1.48a53.35,53.35,0,0,1-5.56-1.61.76.76,0,0,0-.56.17A4.13,4.13,0,0,0,47,219l-1-.21a6.88,6.88,0,0,0,2,1.12c-7.75-2.2-14.54-4.39-14.33-5.22-.53,2,17.6,6.52,31,9.69q2.06.52,4.13,1l-2.07-.51c5.81,1.37,10.39,2.44,11.53,2.85-2.39-.4-27.23-6.53-27.22-6.55a14,14,0,0,0,3.86,1.39q-2.63-.48-.6.72c-3.14-.84-10.57-1.54-12.93-3.67,2.81,2.5,10.29,3.38,13.89,4.39,5.3,1.48,10.54,3.19,15.88,4.5a146.85,146.85,0,0,0,33,3.7q-.82,0-.53.35A183.4,183.4,0,0,1,66.93,228q-9-2-17.91-4.62c-1.35-.4-14.88-3.58-15.26-4.7,1,3.06,15.85,5.84,18.84,6.68a214.63,214.63,0,0,0,21.46,4.83q4.93.85,9.9,1.47c-.75,0-1.24.12-1.37.37.15-.24,11.91,1.51,12.9,1.59s3.6.49,6.12.76c-4-.54-8.9-1.55-12.75-2.17a143.52,143.52,0,0,0,31.06-.15c-.8.33-7.24,2.08-9.57,2a34.1,34.1,0,0,0,6.08-.66c-29.5,10.28-68.3,7.37-93.5-13.3A20.63,20.63,0,0,1,25.68,223l-1.41-.12c.49,1.48,2.73,2.87,3.76,3.9a5.74,5.74,0,0,1-.73-.1l0,0-.13-.06c-.61-.14-.84-.34-.85-.49-3.37-2-12.68-8.12-12.5-6,.38,4.36,11,9.18,14.15,11.24-6.53-1.53-11.76-6.13-17.62-9.13,5.43,6.23,12.87,10,19.7,14.11A131.68,131.68,0,0,0,48,246c15.26,6.42,30.81,8.46,47.32,9.67a1.06,1.06,0,0,0-.28-.74c4.43-.56,10.68-.36,14.17-.77,6.72-.79,13-1.4,19.44-3.15,2-.55,27.23-14.13,25.75-15.08-.61-.39-7.16,1-7.11.33,2.24-8.49,13.56-6.86,20.25-8.25a40.67,40.67,0,0,0,4.16-1.29,30.79,30.79,0,0,0,4.49-2.13c1.16-.68,7.86-5.22,2.4-1.84a61.78,61.78,0,0,0,11.07-10.23c-.08.49-.21,1.09-.38,1.78A139.1,139.1,0,0,0,168,40.94ZM100.59,17.58l-.35-.21c3.7,2.15,8.23,4.06,10.85,5.74C108.63,23.65,102.47,18.74,100.59,17.58Zm-15.9-4.87c.89.54,1.67,1,2.07,1.3,3.22,2.34,6.53,4.56,9.84,6.78C96.44,20.69,90.66,16.88,84.69,12.71ZM93,15.3c6.1,3.58,13.71,7.51,15.14,8.54C106.23,24.38,99.5,19.94,93,15.3Zm18.66,9.3,1.36-.23,1.36.91A2.07,2.07,0,0,1,111.65,24.6Zm20.36.94A57.5,57.5,0,0,0,121.88,25c-.66,0-7.27-.86-5.85-1a48.3,48.3,0,0,1,18.9,1.76C134.73,25.68,131,25,132,25.54Zm3.41,11.69.08,0c1.66.59.89.32.32.12a54,54,0,0,1,13.83,7.68c-5-3.37-11.68-4.76-16.21-8.42Zm-107.25,13c-.31.22-1.14.88-2.29,1.81,2.69-2.42,5.12-4.66,6.19-5.39a82.1,82.1,0,0,1,20-10.29A155.83,155.83,0,0,0,28.18,50.24ZM81.59,41.4a1,1,0,0,1-.6-.13,2.35,2.35,0,0,1-1.19.11c1.73-1.44.85-1.28,2.58-1.26a3.62,3.62,0,0,1-.25.3,3.55,3.55,0,0,1,1.23-.28Zm4.53-.1a2,2,0,0,1,2-.87l-.12.12a1.57,1.57,0,0,1,.85-.07,1.91,1.91,0,0,1-1.8.84l.11-.13A1.92,1.92,0,0,1,86.11,41.31Zm4.92.27a2.91,2.91,0,0,1,3.27-.34A2.85,2.85,0,0,1,91,41.58Zm6.63.89-2.56-.41c3.13-1.78,12,2.46,15.07,3.65A87.58,87.58,0,0,0,97.67,42.47Zm38.1-3.75a50,50,0,0,1,22.76,15.85l0,.05,1.84,2.19C152.51,50.36,143.24,45.55,135.76,38.72Zm.37,22.38a2,2,0,0,1,1.55,1.15Zm32.51,27.62a6,6,0,0,1,2.14,2A6.9,6.9,0,0,1,168.64,88.72Zm4.42,5.58h0a18.64,18.64,0,0,1,3.67,3.95A35.89,35.89,0,0,1,173.07,94.3ZM88.16,201c1.68,1,3.62,2,4.46,2.51q5.22,3.42,10.66,6.46C102.94,209.75,95.28,205.32,88.16,201Zm1.93,44q-3.86-.16-7.7-.66c-2-.26-4-.59-6-1-1.48-.27-7.12-.39-4.59-1.42-1.55-.22-3.14-.44-4.68-.77,4.83.41,9.54,1.6,14.29,2.37,2,.32,7.42,1,10.72,1.32A19.34,19.34,0,0,1,90.09,245Zm4.18.08a2.21,2.21,0,0,0,.48,0l1.41,0a20.58,20.58,0,0,0-2.91.54A5.94,5.94,0,0,0,94.27,245Zm50-15.22a106.29,106.29,0,0,1-11.54,6.73c3.55-1.45,7.05-3,10.59-4.5-2.11.93-3.72,2-3.16,1.78,1.22-.63,2.42-1.28,3.61-2a34.31,34.31,0,0,1-3.61,2,115.37,115.37,0,0,1-17.51,7,95.4,95.4,0,0,1-11.1,3c-1.89.37-3.78.66-5.68.89-1.09.13-7.47,1-2.16-.39-1.16.17-2.33.26-3.5.34,3-.33,6-.83,8.68-1.33l-.6.14a73,73,0,0,0,24.44-6.92,73.33,73.33,0,0,1-16.59,4.93c3.72-1.52,7.45-3,11.17-4.56-4,1.47-8.83,3.46-13.25,2.92a25.76,25.76,0,0,0,6.57-1.87,72.75,72.75,0,0,1-14.7,2.39,55.58,55.58,0,0,0,8.82-1.57c.93-.22,10.36-2.89,5.88-.82a50.17,50.17,0,0,0,8.5-3.46c-.26.06-.51.13-.77.17,3.54-1.71,7-3.54,10.39-5.56l1.11.17c-1.25.61-2.48,1.34-3.7,2.06A18.57,18.57,0,0,1,144.25,229.8Zm10.58-.55-1.43.11-.24,0A1.4,1.4,0,0,1,154.83,229.26Zm-9.32-.3c-1.26.86-2.5.25-4.2.06C142.58,228.22,144,228.8,145.51,229Zm-3.72-.48c-.08,0-3.56.95-2,0h0A1.53,1.53,0,0,1,141.79,228.47Zm-89-7.23c1.35.3,2.58.55,3.4.8,1.56.47,3.12.91,4.69,1.34C58.44,222.75,55.66,222,52.83,221.25Zm9.27.41c3.37.55,6.55.93,7.8,1.16,4.83.9,9.68,1.64,14.53,2.4C82.62,225.12,72.07,223.55,62.1,221.65Zm26.6,2.28a196.2,196.2,0,0,0,20.48.74c-8.57.92-17.81.22-27.28-1.05l-2.32-.32C82.83,223.55,86,223.69,88.7,223.93Zm46.88-6.66c-5,1.87-15.46-4.54-20.38-6.75l-4-1.77c3,1.12,6,2.07,8.22,3C124.72,213.81,130.13,215.66,135.58,217.27Zm51.74-31,0-.06,0,.06a69.12,69.12,0,0,1-5.45,8.24,74.28,74.28,0,0,1,6.21-9.47Zm6.08-9.55a23.45,23.45,0,0,1-2.52,4.28,24.77,24.77,0,0,0,1.76-4.22h0c0,.12,0,.26-.07.42a1,1,0,0,1,.53-.66Zm-8.15-1.74a40.94,40.94,0,0,0-3.87,5.32q1.06-2,2-4l.15-.32Q183.12,174,185.26,174.93Zm4.29-56.6c.08-.14.24-.3.37-.16-.17.51-.32,1-.46,1.55Zm2.26,41.61c-.17.48-.34,1-.49,1.45-.37,1.19-.73,2.47-1,3.76a34,34,0,0,0-3.9-.44L188.48,134c0,.27,0,.55.06.82.07,7.43.7,15.24,1.63,19.5A7.36,7.36,0,0,0,191.8,159.94Z" transform="translate(-1.96 -1.97)"/>
    <path class="cls-2" d="M141.31,229c1.06.12.26-.16,0,0Z" transform="translate(-1.96 -1.97)"/>
    <path class="cls-2" d="M153.15,229.38l.24,0C153.48,229.35,153.18,229.36,153.15,229.38Z" transform="translate(-1.96 -1.97)"/>
    <path class="cls-2" d="M129.12,234.49a24.37,24.37,0,0,0,7-3.15C133.81,232.23,131.45,233.37,129.12,234.49Z" transform="translate(-1.96 -1.97)"/>
    <path class="cls-2" d="M31.59,45.1a22.67,22.67,0,0,1-3.81,2.09A14.22,14.22,0,0,0,31.59,45.1Z" transform="translate(-1.96 -1.97)"/>
    <path class="cls-2" d="M86.11,41.31c.22,0,.49-.31,0,0Z" transform="translate(-1.96 -1.97)"/>
    <path class="cls-2" d="M15.09,212.57a28.62,28.62,0,0,0,6,5.94A68.51,68.51,0,0,1,15.09,212.57Z" transform="translate(-1.96 -1.97)"/>
    <path class="cls-2" d="M80.93,10.23h0C81,10.33,81.77,11.25,80.93,10.23Z" transform="translate(-1.96 -1.97)"/>
    <path class="cls-2" d="M130.44,251c-4.29,1.15-8.15,2.33-12.41,3.44a88.51,88.51,0,0,0,15.56-4.51A3,3,0,0,0,130.44,251Z" transform="translate(-1.96 -1.97)"/>
    <path class="cls-2" d="M130.44,251c.3-.26-2.33.63,0,0Z" transform="translate(-1.96 -1.97)"/>
    <path class="cls-2" d="M50.6,217.61a5.08,5.08,0,0,0,1.13.6A7.43,7.43,0,0,1,50.6,217.61Z" transform="translate(-1.96 -1.97)"/>
    <path class="cls-2" d="M95.82,14.12c-.16-.16-.32-.33-.45-.5A2.46,2.46,0,0,0,95.82,14.12Z" transform="translate(-1.96 -1.97)"/>
    <path class="cls-2" d="M79.81,41.39c.29,0,.51-.42,0,0Z" transform="translate(-1.96 -1.97)"/>
    <path class="cls-2" d="M135.51,37.26l-.08,0,.4.15Z" transform="translate(-1.96 -1.97)"/>
    <path class="cls-2" d="M153.65,239.27c-2.1,1.47-4.27,2.86-6.47,4.13A32,32,0,0,0,153.65,239.27Z" transform="translate(-1.96 -1.97)"/>
    <path class="cls-2" d="M81,41.28a2.56,2.56,0,0,0,1.15-.85C81.43,40.69,80.78,41.08,81,41.28Z" transform="translate(-1.96 -1.97)"/>
    <path class="cls-2" d="M81.59,41.4c.59-.43-.2,0,0,0Z" transform="translate(-1.96 -1.97)"/>
    <path class="cls-2" d="M153.65,239.27c2.15-1.5,4.24-3.07,6.26-4.64a13.81,13.81,0,0,1-3.58,1.41A12,12,0,0,1,153.65,239.27Z" transform="translate(-1.96 -1.97)"/>
    <path class="cls-2" d="M147.18,243.4c-1.94,1-3.86,1.9-5.47,2.81A59.77,59.77,0,0,0,147.18,243.4Z" transform="translate(-1.96 -1.97)"/>
  </g>
</svg>
